<?xml version="1.0" encoding="UTF-8"?>
<svg xmlns="http://www.w3.org/2000/svg" width="29" height="29" viewBox="0 0 29 29" fill="none">
  <path d="M2.53478 11.7725C2.67109 11.1717 2.29461 10.5742 1.69387 10.4379C1.09314 10.3016 0.495632 10.6781 0.359318 11.2788L2.53478 11.7725ZM4.83305 3.69241C4.37405 4.10323 4.33498 4.80838 4.74581 5.2674C5.15663 5.7264 5.86178 5.76547 6.3208 5.35463L4.83305 3.69241ZM18.9615 17.8462C18.3455 17.8462 17.8462 18.3455 17.8462 18.9615C17.8462 19.5775 18.3455 20.0769 18.9615 20.0769V17.8462ZM22.3077 24.4764C22.3077 25.0924 22.8071 25.5918 23.4231 25.5918C24.0391 25.5918 24.5385 25.0924 24.5385 24.4764H22.3077ZM4.46154 24.4764C4.46154 25.0924 4.96092 25.5918 5.57692 25.5918C6.19293 25.5918 6.69231 25.0924 6.69231 24.4764H4.46154ZM13.0128 20.0769C13.6288 20.0769 14.1282 19.5775 14.1282 18.9615C14.1282 18.3455 13.6288 17.8462 13.0128 17.8462V20.0769ZM14.5 2.23077C21.276 2.23077 26.7692 7.72389 26.7692 14.5H29C29 6.49187 22.5082 0 14.5 0V2.23077ZM14.5 26.7692C7.72389 26.7692 2.23077 21.276 2.23077 14.5H0C0 22.5082 6.49187 29 14.5 29V26.7692ZM26.7692 14.5C26.7692 21.276 21.276 26.7692 14.5 26.7692V29C22.5082 29 29 22.5082 29 14.5H26.7692ZM2.23077 14.5C2.23077 13.5613 2.33597 12.6486 2.53478 11.7725L0.359318 11.2788C0.124001 12.3158 0 13.3941 0 14.5H2.23077ZM6.3208 5.35463C8.49218 3.41119 11.3569 2.23077 14.5 2.23077V0C10.787 0 7.39765 1.39706 4.83305 3.69241L6.3208 5.35463ZM17.8462 10.0385C17.8462 11.8864 16.348 13.3846 14.5 13.3846V15.6154C17.5801 15.6154 20.0769 13.1186 20.0769 10.0385H17.8462ZM14.5 13.3846C12.652 13.3846 11.1538 11.8864 11.1538 10.0385H8.92308C8.92308 13.1186 11.4199 15.6154 14.5 15.6154V13.3846ZM11.1538 10.0385C11.1538 8.19043 12.652 6.69231 14.5 6.69231V4.46154C11.4199 4.46154 8.92308 6.95841 8.92308 10.0385H11.1538ZM14.5 6.69231C16.348 6.69231 17.8462 8.19043 17.8462 10.0385H20.0769C20.0769 6.95841 17.5801 4.46154 14.5 4.46154V6.69231ZM18.9615 20.0769C19.855 20.0769 20.6691 20.5812 21.3067 21.4671C21.9491 22.36 22.3077 23.512 22.3077 24.4764H24.5385C24.5385 23.0321 24.0257 21.4265 23.1173 20.1641C22.2037 18.8948 20.7871 17.8462 18.9615 17.8462V20.0769ZM6.69231 24.4764C6.69231 23.512 7.05085 22.36 7.6934 21.4671C8.33093 20.5812 9.14495 20.0769 10.0384 20.0769L10.0385 17.8462C8.21299 17.8462 6.79625 18.8948 5.88275 20.1641C4.97427 21.4265 4.46154 23.0321 4.46154 24.4764H6.69231ZM10.0384 20.0769H13.0128V17.8462H10.0385L10.0384 20.0769Z" fill="#F57600"></path>
</svg>
