<?xml version="1.0" encoding="UTF-8"?>
<svg xmlns="http://www.w3.org/2000/svg" width="29" height="29" viewBox="0 0 29 29" fill="none">
  <path d="M12.5552 0.888466C13.5727 -0.128955 15.189 -0.182503 16.2694 0.72782L16.4443 0.888466L19.0561 3.50026H22.7497C24.1995 3.50026 25.3872 4.6221 25.4922 6.04503L25.4997 6.25026V9.94388L28.1116 12.5557C29.129 13.5732 29.1826 15.1894 28.2722 16.2699L28.1116 16.4449L25.4997 19.0567V22.7503C25.4997 24.2 24.3779 25.3878 22.955 25.4928L22.7497 25.5003H19.0561L16.4443 28.112C15.4269 29.1295 13.8107 29.183 12.7301 28.2727L12.5552 28.112L9.94343 25.5003H6.24975C4.8 25.5003 3.61227 24.3784 3.50729 22.9556L3.49975 22.7503V19.0565L0.887965 16.4449C-0.129442 15.4274 -0.18299 13.8111 0.727334 12.7306L0.887979 12.5557L3.49975 9.94394V6.25026C3.49975 4.80052 4.62158 3.61279 6.04451 3.50781L6.24975 3.50026H9.94343L12.5552 0.888466ZM14.4997 2.833L11.8879 5.4448C11.4295 5.90323 10.8259 6.18309 10.1852 6.23962L9.94343 6.25026H6.24975V9.94394C6.24975 10.5923 6.02083 11.217 5.60774 11.71L5.44429 11.8885L2.83252 14.5003L5.44429 17.112C5.90272 17.5705 6.18258 18.1741 6.23911 18.8147L6.24975 19.0565V22.7503H9.94343C10.5917 22.7503 11.2164 22.9792 11.7094 23.3923L11.8879 23.5557L14.4997 26.1675L17.1115 23.5557C17.57 23.0973 18.1736 22.8175 18.8143 22.761L19.0561 22.7503H22.7497V19.0567C22.7497 18.4083 22.9786 17.7836 23.3918 17.2906L23.5552 17.1121L26.167 14.5003L23.5552 11.8884C23.0968 11.43 22.8169 10.8264 22.7604 10.1857L22.7497 9.94388V6.25026H19.0561C18.4078 6.25026 17.7831 6.02134 17.2901 5.60826L17.1115 5.4448L14.4997 2.833ZM18.7339 10.3513C19.2708 9.81432 20.1415 9.81432 20.6784 10.3513C21.1742 10.847 21.2123 11.6269 20.7928 12.1663L20.6784 12.2958L13.9672 19.0072C13.4187 19.5555 12.5538 19.5947 11.9602 19.1247L11.8282 19.0072L8.52247 15.7014C7.98551 15.1645 7.98551 14.2938 8.52247 13.7569C9.01813 13.2612 9.79808 13.2231 10.3375 13.6425L10.467 13.7569L12.8977 16.1875L18.7339 10.3513Z" fill="#F57600"></path>
</svg>
