<?xml version="1.0" encoding="UTF-8"?>
<svg xmlns="http://www.w3.org/2000/svg" width="85" height="64" viewBox="0 0 85 64" fill="none">
  <path d="M78.1452 0.0322266H6.85484C3.07508 0.0322266 0 3.10731 0 6.88707V56.2419C0 60.0217 3.07508 63.0967 6.85484 63.0967H78.1452C81.9249 63.0967 85 60.0217 85 56.2419V6.88707C85 3.10731 81.9249 0.0322266 78.1452 0.0322266ZM8.22581 60.3548H6.85484C4.58726 60.3548 2.74194 58.5095 2.74194 56.2419V6.88707C2.74194 4.61948 4.58726 2.77416 6.85484 2.77416H8.22581V60.3548ZM71.2903 60.3548H10.9677V2.77416H71.2903V60.3548ZM82.2581 56.2419C82.2581 58.5095 80.4127 60.3548 78.1452 60.3548H74.0323V2.77416H78.1452C80.4127 2.77416 82.2581 4.61948 82.2581 6.88707V56.2419Z" fill="url(#paint0_linear_7_145)"></path>
  <path d="M79.5161 26.0808H76.7742V37.0486H79.5161V26.0808Z" fill="url(#paint1_linear_7_145)"></path>
  <path d="M27.4193 30.1935C34.2234 30.1935 39.758 24.6589 39.758 17.8548C39.758 11.0507 34.2234 5.51611 27.4193 5.51611C20.6152 5.51611 15.0806 11.0507 15.0806 17.8548C15.0806 24.6589 20.6152 30.1935 27.4193 30.1935ZM27.4193 8.25805C32.7098 8.25805 37.0161 12.5643 37.0161 17.8548C37.0161 23.1454 32.7098 27.4516 27.4193 27.4516C22.1287 27.4516 17.8225 23.1454 17.8225 17.8548C17.8225 12.5643 22.1287 8.25805 27.4193 8.25805Z" fill="url(#paint2_linear_7_145)"></path>
  <path d="M54.8387 30.1935C61.6428 30.1935 67.1774 24.6589 67.1774 17.8548C67.1774 11.0507 61.6428 5.51611 54.8387 5.51611C48.0346 5.51611 42.5 11.0507 42.5 17.8548C42.5 24.6589 48.0346 30.1935 54.8387 30.1935ZM54.8387 8.25805C60.1293 8.25805 64.4355 12.5643 64.4355 17.8548C64.4355 23.1454 60.1293 27.4516 54.8387 27.4516C49.5481 27.4516 45.2419 23.1454 45.2419 17.8548C45.2419 12.5643 49.5481 8.25805 54.8387 8.25805Z" fill="url(#paint3_linear_7_145)"></path>
  <path d="M27.4193 57.613C34.2234 57.613 39.758 52.0784 39.758 45.2743C39.758 38.4701 34.2234 32.9355 27.4193 32.9355C20.6152 32.9355 15.0806 38.4701 15.0806 45.2743C15.0806 52.0784 20.6152 57.613 27.4193 57.613ZM27.4193 35.6775C32.7098 35.6775 37.0161 39.9837 37.0161 45.2743C37.0161 50.5648 32.7098 54.871 27.4193 54.871C22.1287 54.871 17.8225 50.5648 17.8225 45.2743C17.8225 39.9837 22.1287 35.6775 27.4193 35.6775Z" fill="url(#paint4_linear_7_145)"></path>
  <path d="M54.8387 57.613C61.6428 57.613 67.1774 52.0784 67.1774 45.2743C67.1774 38.4701 61.6428 32.9355 54.8387 32.9355C48.0346 32.9355 42.5 38.4701 42.5 45.2743C42.5 52.0784 48.0346 57.613 54.8387 57.613ZM61.6935 38.5702C63.3867 40.3031 64.4355 42.6667 64.4355 45.2743C64.4355 47.8818 63.3867 50.2454 61.6935 51.9769V38.5702ZM54.8401 54.871C52.2339 54.871 49.8676 53.8222 48.136 52.1291H61.5427C59.8112 53.8222 57.4463 54.871 54.8401 54.871ZM54.8387 47.2128L58.9516 43.0999V49.3872H50.7258V43.0999L54.8387 47.2128ZM52.6644 41.1614H57.0131L54.8387 43.3357L52.6644 41.1614ZM54.8373 35.6775C57.4435 35.6775 59.8098 36.7263 61.5414 38.4194H48.1347C49.8662 36.7263 52.2311 35.6775 54.8373 35.6775ZM47.9839 38.5716V51.9783C46.2907 50.2468 45.2419 47.8818 45.2419 45.2756C45.2419 42.6694 46.2907 40.3031 47.9839 38.5716Z" fill="url(#paint5_linear_7_145)"></path>
  <path d="M26.0483 24.7097H28.7903V20.5968H31.5322V17.8548H28.7903V13.7419H32.9032V11H26.0483V17.8548H23.3064V20.5968H26.0483V24.7097Z" fill="url(#paint6_linear_7_145)"></path>
  <path d="M53.4678 20.5968H56.8952C59.5412 20.5968 61.6936 18.4444 61.6936 15.7984C61.6936 13.1524 59.5412 11 56.8952 11H50.7258V24.7097H53.4678V20.5968ZM53.4678 13.7419H56.8952C58.029 13.7419 58.9516 14.6646 58.9516 15.7984C58.9516 16.9322 58.029 17.8548 56.8952 17.8548H53.4678V13.7419Z" fill="url(#paint7_linear_7_145)"></path>
  <path d="M23.3064 37.2295V53.3192L35.375 45.2743L23.3064 37.2295ZM26.0483 42.3514L30.4313 45.2743L26.0483 48.1972V42.3514Z" fill="url(#paint8_linear_7_145)"></path>
  <defs>
    <linearGradient id="paint0_linear_7_145" x1="3.35526" y1="6.6706" x2="45.8765" y2="71.7266" gradientUnits="userSpaceOnUse">
      <stop stop-color="#BC0D2C"></stop>
      <stop offset="1" stop-color="#E65F1E"></stop>
    </linearGradient>
    <linearGradient id="paint1_linear_7_145" x1="76.8824" y1="27.2353" x2="81.1233" y2="28.4388" gradientUnits="userSpaceOnUse">
      <stop stop-color="#BC0D2C"></stop>
      <stop offset="1" stop-color="#E65F1E"></stop>
    </linearGradient>
    <linearGradient id="paint2_linear_7_145" x1="16.0547" y1="8.11374" x2="34.0757" y2="28.57" gradientUnits="userSpaceOnUse">
      <stop stop-color="#BC0D2C"></stop>
      <stop offset="1" stop-color="#E65F1E"></stop>
    </linearGradient>
    <linearGradient id="paint3_linear_7_145" x1="43.4741" y1="8.11374" x2="61.4951" y2="28.57" gradientUnits="userSpaceOnUse">
      <stop stop-color="#BC0D2C"></stop>
      <stop offset="1" stop-color="#E65F1E"></stop>
    </linearGradient>
    <linearGradient id="paint4_linear_7_145" x1="16.0547" y1="35.5332" x2="34.0757" y2="55.9895" gradientUnits="userSpaceOnUse">
      <stop stop-color="#BC0D2C"></stop>
      <stop offset="1" stop-color="#E65F1E"></stop>
    </linearGradient>
    <linearGradient id="paint5_linear_7_145" x1="43.4741" y1="35.5332" x2="61.4951" y2="55.9895" gradientUnits="userSpaceOnUse">
      <stop stop-color="#BC0D2C"></stop>
      <stop offset="1" stop-color="#E65F1E"></stop>
    </linearGradient>
    <linearGradient id="paint6_linear_7_145" x1="23.6852" y1="12.4431" x2="33.5164" y2="20.2549" gradientUnits="userSpaceOnUse">
      <stop stop-color="#BC0D2C"></stop>
      <stop offset="1" stop-color="#E65F1E"></stop>
    </linearGradient>
    <linearGradient id="paint7_linear_7_145" x1="51.1588" y1="12.4431" x2="61.2043" y2="21.5655" gradientUnits="userSpaceOnUse">
      <stop stop-color="#BC0D2C"></stop>
      <stop offset="1" stop-color="#E65F1E"></stop>
    </linearGradient>
    <linearGradient id="paint8_linear_7_145" x1="23.7828" y1="38.9231" x2="35.4755" y2="48.8789" gradientUnits="userSpaceOnUse">
      <stop stop-color="#BC0D2C"></stop>
      <stop offset="1" stop-color="#E65F1E"></stop>
    </linearGradient>
  </defs>
</svg>
