<?xml version="1.0" encoding="UTF-8"?>
<svg xmlns="http://www.w3.org/2000/svg" width="37" height="40" viewBox="0 0 37 40" fill="none">
  <path d="M18.7414 0.0517273C16.2507 0.367977 14.0439 1.26888 12.1289 2.76985C11.7722 3.05366 11.3501 3.41086 11.2041 3.57304L10.9203 3.86496H7.399H3.86959L3.91824 4.73302C4.03987 6.97231 5.07052 8.90304 6.82286 10.2013L7.38279 10.6152L7.02599 10.8585C6.83138 10.9883 6.57149 11.2153 6.44985 11.3698C6.23902 11.6536 6.23091 11.6536 5.62233 11.6536C4.73805 11.6536 4.4214 11.7752 3.89432 12.3027C3.39116 12.7978 3.2452 13.1546 3.2452 13.8604V14.3064L2.90462 14.4037C1.52529 14.8092 0.340981 16.1074 0.0810894 17.4868C0.0324358 17.73 0 19.1905 0 20.8131C0 23.9447 0.0324358 24.2204 0.454506 25.0561C0.713992 25.5673 1.45231 26.3624 1.93114 26.6381C2.64514 27.0602 3.06721 27.1656 4.22719 27.2224C5.1358 27.271 5.38758 27.3116 5.72005 27.4737C6.22321 27.717 6.65298 28.1472 6.90476 28.6585C7.09938 29.0477 7.09938 29.0963 7.1237 31.5712L7.14803 34.0943L6.86422 34.1916C6.35295 34.3781 5.4038 35.0678 4.8682 35.6358C3.9596 36.6174 3.41589 37.7697 3.28615 39.0111L3.22939 39.5629H3.88662H4.54384V39.2548C4.55195 37.9322 5.54165 36.2853 6.71826 35.6443L7.14033 35.4173V37.4863V39.5634H7.78945H8.43857V37.2916V35.0199H11.2621H14.0775L17.1038 37.3808L20.1219 39.7336L23.1482 37.3808L26.1663 35.0199H28.9655C32.1134 35.0199 32.4058 35.0605 33.363 35.5636C34.6775 36.2533 35.6915 37.8597 35.6996 39.2552V39.5634H36.3487C37.1033 39.5634 37.0789 39.6039 36.8843 38.5737C36.6411 37.3245 36.0568 36.2695 35.0996 35.369C34.3856 34.6956 33.8175 34.355 32.8846 34.014L32.1706 33.7626L29.3957 33.7383L26.6127 33.7059V31.5071L26.6208 29.3003L27.0835 29.0246C29.9698 27.288 32.1929 24.1077 32.842 20.7648C32.9718 20.1238 33.061 19.8805 33.3046 19.5233C33.6776 18.9796 34.0105 18.2656 34.197 17.6165C34.4079 16.8944 34.4727 13.2677 34.2862 12.5537C34.0916 11.7748 33.5966 11.0689 33.0042 10.7121C32.9393 10.6716 32.7934 10.2576 32.6717 9.80354C31.4059 4.91142 27.4305 1.16346 22.4974 0.213909C21.4834 0.0192909 19.65 -0.0617981 18.7414 0.0517273ZM22.5952 1.51215C26.1408 2.2748 29.0369 4.55462 30.6271 7.84847C31.0491 8.73276 31.5519 10.2256 31.4546 10.3229C31.3573 10.4283 30.4649 10.1932 29.8969 9.91747C28.7288 9.35755 28.3148 8.80614 27.3332 6.5101C26.9598 5.63393 26.6354 4.91993 26.6111 4.91993C26.5868 4.91993 26.262 5.63393 25.889 6.5101C25.1588 8.21379 24.7692 8.87912 24.234 9.34985C23.8119 9.71475 22.9114 10.1611 22.3515 10.2747C22.0677 10.3314 19.9906 10.3558 15.8935 10.3395L9.85723 10.3152L9.2892 10.1206C8.25896 9.77962 7.63416 9.3985 6.89584 8.65207C5.97913 7.74347 5.45975 6.72903 5.24081 5.42309L5.19215 5.1636H8.29139H11.3825L12.0154 4.55503C13.8732 2.78647 16.0962 1.69906 18.5869 1.35038C19.4716 1.22834 21.6784 1.31754 22.5952 1.51215ZM26.7652 8.4084C26.8949 8.78992 27.3819 9.47919 27.8441 9.9418L28.258 10.3558H26.6111H24.9723L25.5322 9.75529C25.857 9.4062 26.1976 8.93588 26.3354 8.66018C26.4652 8.39259 26.5949 8.16513 26.6277 8.16513C26.6517 8.16513 26.7165 8.27865 26.7652 8.4084ZM32.6555 11.9946C32.8015 12.1568 32.9637 12.4244 33.0123 12.6032C33.061 12.7815 33.1015 13.7226 33.1015 14.8262C33.1015 16.465 33.0772 16.8303 32.9393 17.3655C32.7204 18.2174 32.4362 18.7124 31.7627 19.394C30.132 21.0409 27.5846 21.195 25.767 19.7589L25.3696 19.4426H20.1041H14.8304L14.5142 19.7183C13.7759 20.3431 12.7051 20.7405 11.715 20.7405C11.074 20.7405 10.0924 20.4891 9.48381 20.1643C8.85091 19.8234 7.93419 18.858 7.61794 18.2008C7.18817 17.2921 7.131 16.789 7.15533 14.4767C7.17966 12.5217 7.18777 12.3834 7.34994 12.1645C7.43914 12.0428 7.64187 11.8725 7.79634 11.7914C8.05583 11.6617 8.77793 11.6536 20.2257 11.6698L32.3875 11.6941L32.6555 11.9946ZM5.84128 14.8992V16.8462H5.35433C4.54303 16.8462 4.54303 16.838 4.54303 14.8988C4.54303 12.9595 4.54303 12.9514 5.35433 12.9514H5.84128V14.8992ZM3.24479 16.0186C3.24479 16.5867 3.45563 17.1138 3.82904 17.4953C4.30788 17.9984 4.68899 18.1444 5.53273 18.1444H6.23861L6.43323 18.5665C6.53864 18.8016 6.76569 19.1913 6.92828 19.4345C7.17155 19.7913 7.26075 20.035 7.39089 20.7166C7.8454 23.0613 9.10269 25.4384 10.7983 27.1421C11.5285 27.8885 12.5425 28.6917 13.216 29.0732L13.6299 29.3003V31.5071V33.714L11.0338 33.7383L8.43776 33.7626V31.6125C8.43776 29.2759 8.3891 28.911 7.98325 28.1074C7.72377 27.5962 6.98545 26.8011 6.50661 26.5254C5.79262 26.1037 5.37055 25.9979 4.21057 25.9411C3.30196 25.8925 3.05058 25.8519 2.71771 25.6898C2.21455 25.4465 1.78478 25.0163 1.533 24.5055L1.33838 24.1077V20.7409V17.3741L1.533 16.9767C1.77626 16.4817 2.20644 16.0438 2.67717 15.8082C3.19614 15.5479 3.24479 15.5641 3.24479 16.0186ZM25.2967 21.0409C26.9355 22.1283 29.2153 22.3392 30.8866 21.5603C31.1623 21.4224 31.3978 21.3413 31.3978 21.3738C31.3978 21.5765 30.9109 22.8099 30.5865 23.4671C29.8158 24.9762 28.5504 26.4609 27.2116 27.402C26.108 28.1889 23.0087 29.8845 22.1488 30.1687C21.4267 30.412 21.305 30.4282 20.1613 30.4282C18.863 30.4282 18.3603 30.339 17.4837 29.9494C16.7535 29.6331 13.711 27.8885 13.0294 27.402C11.6744 26.4447 10.3357 24.8627 9.60545 23.3779C9.29731 22.7369 8.8428 21.5526 8.8428 21.3823C8.8428 21.3499 9.06985 21.4228 9.35407 21.5526C11.074 22.3314 13.2808 22.1368 14.8953 21.0656L15.3741 20.7494L20.1122 20.7413H24.8503L25.2967 21.0409ZM15.9016 30.5738C17.508 31.4418 18.5545 31.7338 20.1203 31.7338C21.6861 31.7338 22.733 31.4418 24.339 30.5738C24.8097 30.3224 25.2152 30.0949 25.2557 30.0868C25.2881 30.0706 25.3125 30.963 25.3044 32.0747V34.087L22.7083 36.0911L20.1199 38.1033L17.5319 36.0911L14.9359 34.087V32.0747C14.9278 30.963 14.9521 30.0706 14.9926 30.0868C15.0255 30.0949 15.4309 30.3224 15.9016 30.5738Z" fill="url(#paint0_linear_46_1594)"></path>
  <path d="M9.73535 16.8462V17.4954H18.4975H27.2596V16.8462V16.1971H18.4975H9.73535V16.8462Z" fill="url(#paint1_linear_46_1594)"></path>
  <path d="M28.5586 16.8462V17.4954H29.5321H30.5055V16.8462V16.1971H29.5321H28.5586V16.8462Z" fill="url(#paint2_linear_46_1594)"></path>
  <defs>
    <linearGradient id="paint0_linear_46_1594" x1="1.46053" y1="35.5511" x2="30.6651" y2="4.68087" gradientUnits="userSpaceOnUse">
      <stop stop-color="#BC0D2C"></stop>
      <stop offset="1" stop-color="#E65F1E"></stop>
    </linearGradient>
    <linearGradient id="paint1_linear_46_1594" x1="10.4271" y1="17.3587" x2="10.5513" y2="15.4554" gradientUnits="userSpaceOnUse">
      <stop stop-color="#BC0D2C"></stop>
      <stop offset="1" stop-color="#E65F1E"></stop>
    </linearGradient>
    <linearGradient id="paint2_linear_46_1594" x1="28.6354" y1="17.3587" x2="29.4702" y2="15.9377" gradientUnits="userSpaceOnUse">
      <stop stop-color="#BC0D2C"></stop>
      <stop offset="1" stop-color="#E65F1E"></stop>
    </linearGradient>
  </defs>
</svg>
