<?xml version="1.0" encoding="UTF-8"?>
<svg xmlns="http://www.w3.org/2000/svg" width="36" height="36" viewBox="0 0 36 36" fill="none">
  <path d="M28.6736 12.7791V17.6203C28.6736 23.3347 24.2267 28.0303 18.6115 28.4285V32.45H22.6191C23.0468 32.45 23.3938 32.7971 23.3938 33.2247C23.3938 33.6524 23.0468 33.9995 22.6192 33.9995H13.0545C12.6268 33.9995 12.2797 33.6524 12.2797 33.2247C12.2797 32.7971 12.6268 32.45 13.0545 32.45H17.0621V28.4285C11.4469 28.0303 7 23.3347 7 17.6203V12.7791C7 12.3515 7.34708 12.0044 7.77473 12.0044C8.20237 12.0044 8.54945 12.3515 8.54945 12.7791V17.6203C8.54945 22.7413 12.7159 26.9069 17.8368 26.9069C22.9578 26.9069 27.1242 22.7413 27.1242 17.6203V12.7791C27.1242 12.3515 27.4713 12.0044 27.8989 12.0044C28.3266 12.0044 28.6736 12.3515 28.6736 12.7791Z" fill="#E65F1D"></path>
  <path d="M24.7758 7.4232V18.1368C24.7758 21.678 21.8946 24.56 18.3526 24.56H17.3207C13.7786 24.56 10.8975 21.678 10.8975 18.1368V7.4232C10.8975 3.88118 13.7787 1 17.3207 1H18.3527C21.8946 1 24.7758 3.88118 24.7758 7.4232ZM23.2264 16.8461V14.6893H20.418C19.9904 14.6893 19.6433 14.3422 19.6433 13.9146C19.6433 13.487 19.9904 13.1399 20.418 13.1399H23.2264V10.9831H20.418C19.9904 10.9831 19.6433 10.6368 19.6433 10.2084C19.6433 9.78071 19.9904 9.43363 20.418 9.43363H23.2264V7.4232C23.2264 5.4918 22.0976 3.81918 20.4645 3.03053V5.22142C20.4645 5.64907 20.1174 5.99615 19.6898 5.99615C19.2621 5.99615 18.915 5.64907 18.915 5.22142V2.58271C18.7306 2.56176 16.9426 2.56176 16.7582 2.58271V5.22142C16.7582 5.64907 16.4112 5.99615 15.9835 5.99615C15.5559 5.99615 15.2088 5.64907 15.2088 5.22142V3.03053C13.5757 3.81918 12.4469 5.4918 12.4469 7.4232V9.43363H15.2553C15.6829 9.43363 16.03 9.78071 16.03 10.2084C16.03 10.6368 15.6829 10.9831 15.2553 10.9831H12.4469V13.1399H15.2553C15.6829 13.1399 16.03 13.487 16.03 13.9146C16.03 14.3422 15.6829 14.6893 15.2553 14.6893H12.4469V16.8461H15.2553C15.6829 16.8461 16.03 17.1924 16.03 17.6208C16.03 18.0485 15.6829 18.3956 15.2553 18.3956H12.4539C12.5886 20.963 14.7199 23.0106 17.3207 23.0106H18.3526C20.9534 23.0106 23.0846 20.963 23.2194 18.3956H20.418C19.9904 18.3956 19.6433 18.0485 19.6433 17.6208C19.6433 17.1924 19.9904 16.8461 20.418 16.8461H23.2264Z" fill="#E65F1D"></path>
  <path d="M23.2267 14.6892V16.846H20.4184C19.9907 16.846 19.6437 17.1923 19.6437 17.6207C19.6437 18.0484 19.9907 18.3955 20.4184 18.3955H23.2198C23.085 20.9629 20.9537 23.0105 18.353 23.0105H17.321C14.7203 23.0105 12.589 20.9629 12.4542 18.3955H15.2556C15.6833 18.3955 16.0303 18.0484 16.0303 17.6207C16.0303 17.1923 15.6833 16.846 15.2556 16.846H12.4473V14.6892H15.2556C15.6833 14.6892 16.0303 14.3421 16.0303 13.9145C16.0303 13.4868 15.6833 13.1398 15.2556 13.1398H12.4473V10.983H15.2556C15.6833 10.983 16.0303 10.6367 16.0303 10.2082C16.0303 9.7806 15.6833 9.43352 15.2556 9.43352H12.4473V7.4231C12.4473 5.4917 13.576 3.81907 15.2091 3.03043V5.22132C15.2091 5.64896 15.5562 5.99604 15.9839 5.99604C16.4115 5.99604 16.7586 5.64896 16.7586 5.22132V2.5826C16.943 2.56166 18.7311 2.56166 18.9154 2.5826V5.22132C18.9154 5.64896 19.2625 5.99604 19.6901 5.99604C20.1178 5.99604 20.4648 5.64896 20.4648 5.22132V3.03043C22.098 3.81907 23.2267 5.4917 23.2267 7.4231V9.43352H20.4184C19.9907 9.43352 19.6437 9.7806 19.6437 10.2082C19.6437 10.6367 19.9907 10.983 20.4184 10.983H23.2267V13.1398H20.4184C19.9907 13.1398 19.6437 13.4868 19.6437 13.9145C19.6437 14.3421 19.9907 14.6892 20.4184 14.6892H23.2267Z" fill="white"></path>
</svg>
