<?xml version="1.0" encoding="UTF-8"?>
<svg xmlns="http://www.w3.org/2000/svg" width="49" height="48" viewBox="0 0 49 48" fill="none">
  <path d="M48.1513 11.9626H37.2313V1.1215C37.2313 0.502131 36.8513 0 36.3826 0H0.848738C0.380008 0 0 0.502131 0 1.1215V34.9159C0 35.5352 0.380008 36.0374 0.848738 36.0374H11.7687V46.8785C11.7687 47.4979 12.1487 48 12.6174 48H48.1513C48.62 48 49 47.4979 49 46.8785V13.0841C49 12.4647 48.62 11.9626 48.1513 11.9626ZM47.3025 18.5862H13.4662V14.2056H47.3025V18.5862ZM35.5338 2.24299V6.62355H1.69748V2.24299H35.5338ZM1.69748 33.7944V8.86654H35.5338V11.9626H12.6174C12.1487 11.9626 11.7687 12.4647 11.7687 13.0841V33.7944H1.69748ZM13.4662 20.8292H23.7214V45.757H13.4662V20.8292ZM25.4189 45.757V20.8292H47.3025V45.757H25.4189Z" fill="url(#paint0_linear_46_1626)"></path>
  <path d="M15.2228 17.5176C15.4468 17.5176 15.6652 17.398 15.8237 17.1887C15.981 16.9808 16.0715 16.6907 16.0715 16.3962C16.0715 16.1001 15.981 15.8115 15.8237 15.6036C15.6652 15.3943 15.4468 15.2747 15.2228 15.2747C14.9998 15.2747 14.7803 15.3943 14.623 15.6036C14.4646 15.8115 14.374 16.1001 14.374 16.3962C14.374 16.6907 14.4646 16.9808 14.623 17.1887C14.7813 17.398 14.9997 17.5176 15.2228 17.5176Z" fill="url(#paint1_linear_46_1626)"></path>
  <path d="M17.3242 17.5176C17.5482 17.5176 17.7666 17.398 17.9251 17.1887C18.0824 16.9808 18.1729 16.6907 18.1729 16.3962C18.1729 16.1016 18.0824 15.8115 17.9251 15.6021C17.7666 15.3943 17.5482 15.2747 17.3242 15.2747C17.1012 15.2747 16.8828 15.3943 16.7244 15.6021C16.5671 15.8115 16.4766 16.1016 16.4766 16.3962C16.4766 16.6907 16.5671 16.9808 16.7244 17.1887C16.8828 17.398 17.1012 17.5176 17.3242 17.5176Z" fill="url(#paint2_linear_46_1626)"></path>
  <path d="M19.4269 17.5176C19.6498 17.5176 19.8682 17.398 20.0266 17.1887C20.1851 16.9808 20.2756 16.6907 20.2756 16.3962C20.2756 16.1001 20.1851 15.8115 20.0266 15.6021C19.8682 15.3943 19.6498 15.2747 19.4269 15.2747C19.2028 15.2747 18.9844 15.3943 18.826 15.6021C18.6687 15.8115 18.5781 16.1016 18.5781 16.3962C18.5781 16.6907 18.6687 16.9808 18.826 17.1887C18.9844 17.398 19.2028 17.5176 19.4269 17.5176Z" fill="url(#paint3_linear_46_1626)"></path>
  <path d="M15.878 25.3765H21.31C21.7787 25.3765 22.1587 24.8744 22.1587 24.255C22.1587 23.6357 21.7787 23.1335 21.31 23.1335H15.878C15.4093 23.1335 15.0293 23.6357 15.0293 24.255C15.0293 24.8744 15.4093 25.3765 15.878 25.3765Z" fill="url(#paint4_linear_46_1626)"></path>
  <path d="M21.31 27.1709H15.878C15.4093 27.1709 15.0293 27.673 15.0293 28.2924C15.0293 28.9118 15.4093 29.4139 15.878 29.4139H21.31C21.7787 29.4139 22.1587 28.9118 22.1587 28.2924C22.1587 27.673 21.7787 27.1709 21.31 27.1709Z" fill="url(#paint5_linear_46_1626)"></path>
  <path d="M21.31 31.2083H15.878C15.4093 31.2083 15.0293 31.7104 15.0293 32.3297C15.0293 32.9491 15.4093 33.4512 15.878 33.4512H21.31C21.7787 33.4512 22.1587 32.9491 22.1587 32.3297C22.1587 31.7104 21.7787 31.2083 21.31 31.2083Z" fill="url(#paint6_linear_46_1626)"></path>
  <path d="M40.4 23.1335H27.6471C27.1783 23.1335 26.7983 23.6357 26.7983 24.255C26.7983 24.8744 27.1783 25.3765 27.6471 25.3765H40.4C40.8687 25.3765 41.2487 24.8744 41.2487 24.255C41.2487 23.6357 40.8687 23.1335 40.4 23.1335Z" fill="url(#paint7_linear_46_1626)"></path>
  <path d="M40.4 27.1709H27.6471C27.1783 27.1709 26.7983 27.673 26.7983 28.2924C26.7983 28.9118 27.1783 29.4139 27.6471 29.4139H40.4C40.8687 29.4139 41.2487 28.9118 41.2487 28.2924C41.2487 27.673 40.8687 27.1709 40.4 27.1709Z" fill="url(#paint8_linear_46_1626)"></path>
  <path d="M40.4 31.2083H27.6471C27.1783 31.2083 26.7983 31.7104 26.7983 32.3297C26.7983 32.9491 27.1783 33.4512 27.6471 33.4512H40.4C40.8687 33.4512 41.2487 32.9491 41.2487 32.3297C41.2487 31.7104 40.8687 31.2083 40.4 31.2083Z" fill="url(#paint9_linear_46_1626)"></path>
  <path d="M3.45372 5.555C3.67778 5.555 3.89619 5.43538 4.05462 5.22603C4.21192 5.01668 4.30246 4.72809 4.30246 4.43351C4.30246 4.13893 4.21192 3.84883 4.05462 3.64098C3.89619 3.43164 3.67778 3.31201 3.45372 3.31201C3.23078 3.31201 3.01237 3.43164 2.85394 3.64098C2.69551 3.84883 2.60498 4.13743 2.60498 4.43351C2.60498 4.72809 2.69551 5.01818 2.85394 5.22603C3.01226 5.43538 3.23067 5.555 3.45372 5.555Z" fill="url(#paint10_linear_46_1626)"></path>
  <path d="M5.55513 5.555C5.77919 5.555 5.9976 5.43538 6.15603 5.22603C6.31333 5.01818 6.40386 4.72809 6.40386 4.43351C6.40386 4.13743 6.31333 3.84883 6.15603 3.64098C5.9976 3.43164 5.77919 3.31201 5.55513 3.31201C5.33219 3.31201 5.11378 3.43164 4.95535 3.64098C4.79805 3.84883 4.70752 4.13743 4.70752 4.43351C4.70752 4.72809 4.79805 5.01818 4.95535 5.22603C5.11378 5.43538 5.33219 5.555 5.55513 5.555Z" fill="url(#paint11_linear_46_1626)"></path>
  <path d="M7.65733 5.555C7.88027 5.555 8.09868 5.43538 8.25711 5.22603C8.41554 5.01668 8.50607 4.72809 8.50607 4.43351C8.50607 4.13893 8.41554 3.84883 8.25711 3.64098C8.09981 3.43164 7.88027 3.31201 7.65733 3.31201C7.43326 3.31201 7.21486 3.43164 7.05643 3.64098C6.89913 3.84883 6.80859 4.13743 6.80859 4.43351C6.80859 4.72809 6.89913 5.01818 7.05643 5.22603C7.21486 5.43538 7.43326 5.555 7.65733 5.555Z" fill="url(#paint12_linear_46_1626)"></path>
  <path d="M9.54091 11.1711H4.10899C3.64026 11.1711 3.26025 11.6733 3.26025 12.2926C3.26025 12.912 3.64026 13.4141 4.10899 13.4141H9.54091C10.0096 13.4141 10.3897 12.912 10.3897 12.2926C10.3897 11.6733 10.0096 11.1711 9.54091 11.1711Z" fill="url(#paint13_linear_46_1626)"></path>
  <path d="M9.54091 15.2083H4.10899C3.64026 15.2083 3.26025 15.7104 3.26025 16.3297C3.26025 16.9491 3.64026 17.4512 4.10899 17.4512H9.54091C10.0096 17.4512 10.3897 16.9491 10.3897 16.3297C10.3897 15.7104 10.0096 15.2083 9.54091 15.2083Z" fill="url(#paint14_linear_46_1626)"></path>
  <path d="M9.54091 19.2456H4.10899C3.64026 19.2456 3.26025 19.7477 3.26025 20.3671C3.26025 20.9865 3.64026 21.4886 4.10899 21.4886H9.54091C10.0096 21.4886 10.3897 20.9865 10.3897 20.3671C10.3897 19.7477 10.0096 19.2456 9.54091 19.2456Z" fill="url(#paint15_linear_46_1626)"></path>
  <defs>
    <linearGradient id="paint0_linear_46_1626" x1="1.93421" y1="5.05263" x2="36.8885" y2="45.5571" gradientUnits="userSpaceOnUse">
      <stop stop-color="#BC0D2C"></stop>
      <stop offset="1" stop-color="#E65F1E"></stop>
    </linearGradient>
    <linearGradient id="paint1_linear_46_1626" x1="14.441" y1="15.5108" x2="16.0733" y2="16.913" gradientUnits="userSpaceOnUse">
      <stop stop-color="#BC0D2C"></stop>
      <stop offset="1" stop-color="#E65F1E"></stop>
    </linearGradient>
    <linearGradient id="paint2_linear_46_1626" x1="16.5435" y1="15.5108" x2="18.1756" y2="16.9119" gradientUnits="userSpaceOnUse">
      <stop stop-color="#BC0D2C"></stop>
      <stop offset="1" stop-color="#E65F1E"></stop>
    </linearGradient>
    <linearGradient id="paint3_linear_46_1626" x1="18.6451" y1="15.5108" x2="20.2774" y2="16.913" gradientUnits="userSpaceOnUse">
      <stop stop-color="#BC0D2C"></stop>
      <stop offset="1" stop-color="#E65F1E"></stop>
    </linearGradient>
    <linearGradient id="paint4_linear_46_1626" x1="15.3107" y1="23.3696" x2="16.1607" y2="26.4364" gradientUnits="userSpaceOnUse">
      <stop stop-color="#BC0D2C"></stop>
      <stop offset="1" stop-color="#E65F1E"></stop>
    </linearGradient>
    <linearGradient id="paint5_linear_46_1626" x1="15.3107" y1="27.407" x2="16.1607" y2="30.4737" gradientUnits="userSpaceOnUse">
      <stop stop-color="#BC0D2C"></stop>
      <stop offset="1" stop-color="#E65F1E"></stop>
    </linearGradient>
    <linearGradient id="paint6_linear_46_1626" x1="15.3107" y1="31.4444" x2="16.1607" y2="34.5111" gradientUnits="userSpaceOnUse">
      <stop stop-color="#BC0D2C"></stop>
      <stop offset="1" stop-color="#E65F1E"></stop>
    </linearGradient>
    <linearGradient id="paint7_linear_46_1626" x1="27.3687" y1="23.3696" x2="27.812" y2="26.6113" gradientUnits="userSpaceOnUse">
      <stop stop-color="#BC0D2C"></stop>
      <stop offset="1" stop-color="#E65F1E"></stop>
    </linearGradient>
    <linearGradient id="paint8_linear_46_1626" x1="27.3687" y1="27.407" x2="27.812" y2="30.6487" gradientUnits="userSpaceOnUse">
      <stop stop-color="#BC0D2C"></stop>
      <stop offset="1" stop-color="#E65F1E"></stop>
    </linearGradient>
    <linearGradient id="paint9_linear_46_1626" x1="27.3687" y1="31.4444" x2="27.812" y2="34.686" gradientUnits="userSpaceOnUse">
      <stop stop-color="#BC0D2C"></stop>
      <stop offset="1" stop-color="#E65F1E"></stop>
    </linearGradient>
    <linearGradient id="paint10_linear_46_1626" x1="2.67199" y1="3.54812" x2="4.30426" y2="4.95034" gradientUnits="userSpaceOnUse">
      <stop stop-color="#BC0D2C"></stop>
      <stop offset="1" stop-color="#E65F1E"></stop>
    </linearGradient>
    <linearGradient id="paint11_linear_46_1626" x1="4.77448" y1="3.54812" x2="6.40659" y2="4.94926" gradientUnits="userSpaceOnUse">
      <stop stop-color="#BC0D2C"></stop>
      <stop offset="1" stop-color="#E65F1E"></stop>
    </linearGradient>
    <linearGradient id="paint12_linear_46_1626" x1="6.8756" y1="3.54812" x2="8.50788" y2="4.95034" gradientUnits="userSpaceOnUse">
      <stop stop-color="#BC0D2C"></stop>
      <stop offset="1" stop-color="#E65F1E"></stop>
    </linearGradient>
    <linearGradient id="paint13_linear_46_1626" x1="3.54168" y1="11.4072" x2="4.39164" y2="14.474" gradientUnits="userSpaceOnUse">
      <stop stop-color="#BC0D2C"></stop>
      <stop offset="1" stop-color="#E65F1E"></stop>
    </linearGradient>
    <linearGradient id="paint14_linear_46_1626" x1="3.54168" y1="15.4444" x2="4.39164" y2="18.5111" gradientUnits="userSpaceOnUse">
      <stop stop-color="#BC0D2C"></stop>
      <stop offset="1" stop-color="#E65F1E"></stop>
    </linearGradient>
    <linearGradient id="paint15_linear_46_1626" x1="3.54168" y1="19.4817" x2="4.39164" y2="22.5484" gradientUnits="userSpaceOnUse">
      <stop stop-color="#BC0D2C"></stop>
      <stop offset="1" stop-color="#E65F1E"></stop>
    </linearGradient>
  </defs>
</svg>
