<?xml version="1.0" encoding="UTF-8"?>
<svg xmlns="http://www.w3.org/2000/svg" width="44" height="44" viewBox="0 0 44 44" fill="none">
  <g filter="url(#filter0_d_184_27)">
    <path d="M21.7375 24.1445C21.4886 23.9575 21.1352 24.0077 20.9483 24.2567C20.4818 24.8777 19.7693 25.2339 18.9938 25.2339C17.647 25.2339 16.5512 24.1382 16.5512 22.7913C16.5512 21.4445 17.647 20.3488 18.9938 20.3488C19.7699 20.3488 20.4827 20.7054 20.9492 21.3273C21.136 21.5763 21.4893 21.6268 21.7383 21.4399C21.9873 21.253 22.0377 20.8998 21.8509 20.6508C21.1694 19.7424 20.1281 19.2214 18.9937 19.2214C17.0253 19.2214 15.4238 20.8229 15.4238 22.7913C15.4238 24.7597 17.0253 26.3612 18.9937 26.3612C20.1272 26.3612 21.1681 25.8409 21.8496 24.9337C22.0367 24.6848 21.9865 24.3315 21.7375 24.1445Z" fill="url(#paint0_linear_184_27)"></path>
    <path d="M27.2982 23.9053C28.3702 23.6796 29.1776 22.7268 29.1776 21.5886C29.1776 20.2832 28.1156 19.2212 26.8102 19.2212H23.8039C23.4927 19.2212 23.2402 19.4735 23.2402 19.7849V25.7974C23.2402 26.1086 23.4926 26.3611 23.8039 26.3611C24.1153 26.3611 24.3676 26.1087 24.3676 25.7974V23.956H25.9272L27.5618 26.1356C27.6726 26.2832 27.8418 26.3611 28.0132 26.3611C28.1309 26.3611 28.2496 26.3243 28.351 26.2484C28.5999 26.0616 28.6505 25.7082 28.4637 25.4592L27.2982 23.9053ZM24.3676 22.8288V20.3487H26.8101C27.4939 20.3487 28.0502 20.905 28.0502 21.5888C28.0502 22.2725 27.4939 22.8289 26.8101 22.8289H24.3676V22.8288Z" fill="url(#paint1_linear_184_27)"></path>
    <path d="M36.9912 25.7412L36.3899 19.7288C36.364 19.4704 36.1651 19.2631 35.9079 19.2268C35.6511 19.1904 35.4021 19.3344 35.3057 19.5756L33.424 24.2797L31.5423 19.5756C31.4458 19.3345 31.1972 19.1907 30.9401 19.2268C30.6829 19.2631 30.484 19.4704 30.4581 19.7288L29.8568 25.7413C29.8259 26.0511 30.0519 26.3273 30.3617 26.3583C30.6711 26.3892 30.9476 26.1633 30.9787 25.8535L31.3508 22.132L32.9007 26.0067C32.9864 26.2207 33.1935 26.361 33.4241 26.361C33.6546 26.361 33.8618 26.2207 33.9474 26.0067L35.4973 22.132L35.8695 25.8535C35.8986 26.1441 36.1435 26.361 36.4297 26.361C36.4485 26.361 36.4674 26.3601 36.4865 26.3582C36.7961 26.3273 37.0221 26.051 36.9912 25.7412Z" fill="url(#paint2_linear_184_27)"></path>
    <path d="M37.6326 9H6.36742C5.06207 9 4 10.0621 4 11.3674V33.0125C4 34.3179 5.06207 35.3799 6.36742 35.3799H37.6326C38.938 35.3799 40 34.3178 40 33.0125V11.3674C40 10.0621 38.9379 9 37.6326 9ZM12.4175 34.2526H6.36742C5.68363 34.2526 5.12732 33.6963 5.12732 33.0125V11.3674C5.12732 10.6836 5.68363 10.1273 6.36742 10.1273H12.4175V34.2526ZM38.8727 33.0125C38.8727 33.6963 38.3163 34.2526 37.6326 34.2526H13.5449V10.1274H37.6326C38.3163 10.1274 38.8727 10.6837 38.8727 11.3675V33.0125Z" fill="url(#paint3_linear_184_27)"></path>
  </g>
  <defs>
    <filter id="filter0_d_184_27" x="0" y="9" width="44" height="34.3799" color-interpolation-filters="sRGB">
      <feFlood flood-opacity="0" result="BackgroundImageFix"></feFlood>
      <feColorMatrix in="SourceAlpha" type="matrix" values="0 0 0 0 0 0 0 0 0 0 0 0 0 0 0 0 0 0 127 0" result="hardAlpha"></feColorMatrix>
      <feOffset dy="4"></feOffset>
      <feGaussianBlur stdDeviation="2"></feGaussianBlur>
      <feComposite in2="hardAlpha" operator="out"></feComposite>
      <feColorMatrix type="matrix" values="0 0 0 0 0 0 0 0 0 0 0 0 0 0 0 0 0 0 0.25 0"></feColorMatrix>
      <feBlend mode="normal" in2="BackgroundImageFix" result="effect1_dropShadow_184_27"></feBlend>
      <feBlend mode="normal" in="SourceGraphic" in2="effect1_dropShadow_184_27" result="shape"></feBlend>
    </filter>
    <linearGradient id="paint0_linear_184_27" x1="15.682" y1="19.973" x2="20.9339" y2="25.4337" gradientUnits="userSpaceOnUse">
      <stop stop-color="#BC0D2C"></stop>
      <stop offset="1" stop-color="#E65F1E"></stop>
    </linearGradient>
    <linearGradient id="paint1_linear_184_27" x1="23.4746" y1="19.9728" x2="28.7218" y2="24.9259" gradientUnits="userSpaceOnUse">
      <stop stop-color="#BC0D2C"></stop>
      <stop offset="1" stop-color="#E65F1E"></stop>
    </linearGradient>
    <linearGradient id="paint2_linear_184_27" x1="30.1358" y1="19.9728" x2="35.3499" y2="25.8914" gradientUnits="userSpaceOnUse">
      <stop stop-color="#BC0D2C"></stop>
      <stop offset="1" stop-color="#E65F1E"></stop>
    </linearGradient>
    <linearGradient id="paint3_linear_184_27" x1="5.42105" y1="11.7768" x2="23.1181" y2="39.1911" gradientUnits="userSpaceOnUse">
      <stop stop-color="#BC0D2C"></stop>
      <stop offset="1" stop-color="#E65F1E"></stop>
    </linearGradient>
  </defs>
</svg>
