<?xml version="1.0" encoding="UTF-8"?>
<svg xmlns="http://www.w3.org/2000/svg" width="32" height="32" viewBox="0 0 32 32" fill="none">
  <path d="M12.3413 2.00001C12.324 2.00016 12.3068 2.00118 12.2897 2.00305H6.69643C3.55645 2.00305 1 4.55923 1 7.69888V25.3042C1 28.4438 3.55645 31 6.69643 31H24.3036C27.4436 31 30 28.4438 30 25.3042V7.69888C30 4.55923 27.4436 2.00305 24.3036 2.00305H12.4009C12.3811 2.00089 12.3612 1.99987 12.3413 2.00001ZM6.69643 3.03865H10.4711C6.93333 5.48483 4.625 9.44343 4.625 13.9125C4.625 17.4185 6.04715 20.6159 8.36632 23.0074C8.50006 23.1453 8.53621 23.3273 8.47353 23.4656C7.76554 25.0254 5.91762 26.1517 5.91762 26.1517C5.83907 26.1975 5.77396 26.2631 5.72884 26.3421C5.68372 26.421 5.66018 26.5104 5.66059 26.6014C5.661 26.6923 5.68535 26.7815 5.73118 26.86C5.777 26.9386 5.8427 27.0036 5.92167 27.0487C5.92167 27.0487 6.13268 27.158 6.45975 27.2328C6.78683 27.3075 7.2785 27.3754 7.99107 27.3754C9.21784 27.3754 10.1068 27.159 10.8484 26.9274C11.59 26.6958 12.1724 26.4642 12.8733 26.3772C13.1778 26.3393 13.5092 26.3938 13.8422 26.5127C13.9069 26.5382 13.9759 26.5505 14.0454 26.5487C14.1148 26.547 14.1832 26.5313 14.2464 26.5026C14.3097 26.4739 14.3665 26.4328 14.4135 26.3816C14.4606 26.3305 14.4968 26.2705 14.5202 26.2051C14.5435 26.1397 14.5535 26.0702 14.5494 26.0009C14.5454 25.9316 14.5274 25.8637 14.4967 25.8015C14.4659 25.7392 14.4229 25.6838 14.3702 25.6385C14.3176 25.5932 14.2563 25.5589 14.1902 25.5378C13.7489 25.3803 13.2571 25.2863 12.7458 25.3497H12.7448C11.8953 25.4553 11.2355 25.721 10.5399 25.9383C9.84398 26.1556 9.09932 26.3398 7.99107 26.3398C7.73658 26.3398 7.66532 26.3092 7.47928 26.2943C8.14395 25.7551 8.92235 24.9814 9.41619 23.8934C9.6703 23.3329 9.50995 22.7004 9.10972 22.2874V22.2864C6.96425 20.0737 5.66071 17.1388 5.66071 13.9125C5.66071 9.23426 8.40511 5.16229 12.4768 3.03865H24.3036C26.8838 3.03865 28.9643 5.11888 28.9643 7.69888V25.3042C28.9643 27.8842 26.8838 29.9644 24.3036 29.9644H6.69643C4.11616 29.9644 2.03571 27.8842 2.03571 25.3042V7.69888C2.03571 5.11888 4.11616 3.03865 6.69643 3.03865ZM20.9375 10.2879C20.5082 10.2879 20.1607 10.6359 20.1607 11.0646V17.2782C20.1607 17.707 20.5082 18.0549 20.9375 18.0549C21.3668 18.0549 21.7143 17.707 21.7143 17.2782V11.0646C21.7143 10.6359 21.3668 10.2879 20.9375 10.2879ZM9.67411 10.8057C9.2448 10.8057 8.89732 11.1537 8.89732 11.5824C8.89732 12.0111 9.2448 12.3591 9.67411 12.3591H11.9144L8.92665 16.5228C8.73971 16.7801 8.71339 17.1163 8.85788 17.4006C9.00288 17.6844 9.29037 17.8608 9.60938 17.8608H13.4286C13.8579 17.8608 14.2054 17.5128 14.2054 17.0841C14.2054 16.6553 13.8579 16.3073 13.4286 16.3073H10.994L14.0597 12.0355C14.2296 11.7988 14.2525 11.4863 14.1194 11.2274C13.9868 10.968 13.7196 10.8057 13.4286 10.8057H9.67411ZM24.8214 12.4228C23.3937 12.4228 22.2321 13.6865 22.2321 15.2394C22.2321 16.7923 23.3937 18.0549 24.8214 18.0549C26.2492 18.0549 27.4107 16.7923 27.4107 15.2394C27.4107 13.6865 26.2492 12.4228 24.8214 12.4228ZM16.6004 12.4238C15.2778 12.4238 14.2054 13.6839 14.2054 15.2394C14.2054 16.7943 15.2778 18.0559 16.6004 18.0559C17.1219 18.0559 17.6032 17.8574 17.9962 17.525C18.1288 17.7632 18.3798 17.9265 18.6719 17.9265C19.1012 17.9265 19.4487 17.5785 19.4487 17.1498V13.331C19.4487 12.9017 19.1012 12.5533 18.6719 12.5533C18.3798 12.5533 18.1288 12.7161 17.9962 12.9538C17.6032 12.6213 17.1219 12.4238 16.6004 12.4238ZM24.8214 13.9125C25.3926 13.9125 25.8571 14.5082 25.8571 15.2394C25.8571 15.9705 25.3926 16.5652 24.8214 16.5652C24.2502 16.5652 23.7857 15.9705 23.7857 15.2394C23.7857 14.5082 24.2502 13.9125 24.8214 13.9125ZM16.827 13.9135C17.4168 13.9135 17.8941 14.5067 17.8941 15.2394C17.8946 15.9721 17.4174 16.5662 16.827 16.5662C16.2372 16.5662 15.7589 15.9721 15.7589 15.2394C15.7589 14.5067 16.2372 13.9135 16.827 13.9135ZM26.6956 23.3806C26.6013 23.3828 26.5094 23.4106 26.4298 23.4611C26.3502 23.5117 26.2859 23.583 26.2438 23.6674C26.2018 23.7518 26.1836 23.8461 26.1912 23.9401C26.1988 24.0341 26.2319 24.1243 26.287 24.2008L26.8787 25.0503C26.9166 25.1084 26.9657 25.1583 27.0233 25.197C27.0808 25.2357 27.1455 25.2624 27.2135 25.2757C27.2816 25.2889 27.3516 25.2884 27.4194 25.2741C27.4873 25.2597 27.5515 25.2319 27.6084 25.1923C27.6653 25.1527 27.7137 25.1021 27.7507 25.0434C27.7876 24.9848 27.8124 24.9193 27.8236 24.8509C27.8348 24.7824 27.8321 24.7125 27.8157 24.6451C27.7994 24.5778 27.7696 24.5144 27.7283 24.4587L27.1366 23.6082C27.088 23.5364 27.0222 23.4779 26.9452 23.4381C26.8681 23.3984 26.7823 23.3786 26.6956 23.3806ZM24.4472 24.6417C24.3619 24.6445 24.2786 24.6683 24.2047 24.711C24.1308 24.7538 24.0686 24.8141 24.0236 24.8867C23.9787 24.9592 23.9524 25.0418 23.947 25.127C23.9417 25.2122 23.9575 25.2974 23.9931 25.375L24.4118 26.3226C24.4377 26.3871 24.4763 26.4458 24.5253 26.4951C24.5744 26.5444 24.6329 26.5833 24.6973 26.6095C24.7617 26.6357 24.8307 26.6487 24.9003 26.6477C24.9698 26.6466 25.0384 26.6316 25.102 26.6035C25.1656 26.5753 25.2229 26.5347 25.2704 26.4839C25.318 26.4332 25.3548 26.3734 25.3788 26.3081C25.4027 26.2428 25.4132 26.1734 25.4098 26.1039C25.4063 26.0345 25.3888 25.9665 25.3585 25.9039L24.9408 24.9563C24.8998 24.8602 24.8308 24.7787 24.7427 24.7226C24.6546 24.6665 24.5516 24.6383 24.4472 24.6417ZM21.9985 25.4549C21.9218 25.458 21.8468 25.4782 21.7789 25.5139C21.711 25.5496 21.6519 25.6 21.6058 25.6613C21.5597 25.7227 21.5278 25.7935 21.5125 25.8687C21.4972 25.9439 21.4987 26.0215 21.5171 26.096L21.7497 27.1054C21.765 27.1716 21.7933 27.2342 21.8328 27.2896C21.8723 27.345 21.9224 27.392 21.9801 27.428C22.0378 27.4641 22.1021 27.4884 22.1692 27.4996C22.2363 27.5108 22.3049 27.5086 22.3712 27.4933C22.4375 27.4779 22.5001 27.4497 22.5555 27.4101C22.6109 27.3706 22.6579 27.3206 22.6939 27.2628C22.7299 27.2051 22.7542 27.1409 22.7654 27.0738C22.7766 27.0067 22.7745 26.938 22.7591 26.8717L22.5255 25.8624C22.4996 25.7434 22.4326 25.6372 22.3362 25.5627C22.2398 25.4881 22.1203 25.45 21.9985 25.4549ZM16.9019 25.6753C16.7735 25.6721 16.6485 25.7166 16.5511 25.8004C16.4537 25.8841 16.3909 26.001 16.3749 26.1284L16.2303 27.1529C16.2207 27.2202 16.2245 27.2888 16.2414 27.3547C16.2583 27.4206 16.288 27.4825 16.3289 27.5369C16.3698 27.5913 16.4209 27.6371 16.4795 27.6717C16.5381 27.7063 16.6029 27.729 16.6702 27.7386C16.7376 27.7482 16.8061 27.7444 16.872 27.7274C16.9379 27.7105 16.9998 27.6807 17.0542 27.6399C17.1086 27.599 17.1544 27.5478 17.189 27.4892C17.2236 27.4307 17.2463 27.3659 17.2559 27.2985L17.4005 26.273C17.4119 26.2002 17.4076 26.1259 17.3879 26.0549C17.3683 25.9839 17.3337 25.9179 17.2865 25.8613C17.2393 25.8047 17.1806 25.7589 17.1143 25.7268C17.0479 25.6947 16.9755 25.6772 16.9019 25.6753ZM19.4355 25.8007C19.2985 25.8086 19.1701 25.8705 19.0787 25.9729C18.9873 26.0753 18.9403 26.2098 18.948 26.3469L18.9915 27.3815C18.993 27.4503 19.0083 27.5182 19.0364 27.581C19.0644 27.6439 19.1048 27.7006 19.155 27.7477C19.2053 27.7948 19.2644 27.8314 19.3289 27.8554C19.3935 27.8793 19.4622 27.8902 19.531 27.8873C19.5998 27.8844 19.6674 27.8678 19.7297 27.8385C19.792 27.8092 19.8479 27.7678 19.894 27.7166C19.9401 27.6655 19.9755 27.6056 19.9982 27.5406C20.0209 27.4756 20.0304 27.4067 20.0262 27.338L19.9827 26.3034C19.9808 26.2341 19.965 26.166 19.9362 26.1029C19.9075 26.0399 19.8664 25.9833 19.8154 25.9364C19.7643 25.8895 19.7044 25.8534 19.6392 25.8301C19.5739 25.8068 19.5047 25.7968 19.4355 25.8007Z" fill="url(#paint0_linear_184_16)"></path>
  <defs>
    <linearGradient id="paint0_linear_184_16" x1="2.14474" y1="5.05263" x2="23.3224" y2="29.0921" gradientUnits="userSpaceOnUse">
      <stop stop-color="#BC0D2C"></stop>
      <stop offset="1" stop-color="#E65F1E"></stop>
    </linearGradient>
  </defs>
</svg>
