<?xml version="1.0" encoding="UTF-8"?>
<svg xmlns="http://www.w3.org/2000/svg" width="35" height="35" viewBox="0 0 35 35" fill="none">
  <path d="M6.69481 1.98438C9.27863 1.98438 11.3892 4.09536 11.3892 6.67878V28.3058C11.3892 30.8896 9.27863 33.0002 6.69481 33.0002C4.11099 33.0002 2 30.8896 2 28.3058V6.67878C2 4.09536 4.11099 1.98438 6.69481 1.98438ZM18.4876 23.9287C19.1586 23.9287 19.7028 24.4725 19.7028 25.1439C19.7028 25.8148 19.1586 26.359 18.4876 26.359C17.8163 26.359 17.2725 25.8148 17.2725 25.1439C17.2725 24.4725 17.8163 23.9287 18.4876 23.9287ZM29.4249 23.9287C30.0959 23.9287 30.6401 24.4725 30.6401 25.1439C30.6401 25.8148 30.0959 26.359 29.4249 26.359C28.7539 26.359 28.2098 25.8148 28.2098 25.1439C28.2098 24.4725 28.7539 23.9287 29.4249 23.9287ZM23.9563 23.9287C24.6272 23.9287 25.1714 24.4725 25.1714 25.1439C25.1714 25.8148 24.6272 26.359 23.9563 26.359C23.2849 26.359 22.7411 25.8148 22.7411 25.1439C22.7411 24.4725 23.2849 23.9287 23.9563 23.9287ZM18.4876 14.6858C19.1586 14.6858 19.7028 15.23 19.7028 15.901C19.7028 16.5723 19.1586 17.1161 18.4876 17.1161C17.8163 17.1161 17.2725 16.5723 17.2725 15.901C17.2725 15.23 17.8163 14.6858 18.4876 14.6858ZM29.4249 14.6858C30.0959 14.6858 30.6401 15.23 30.6401 15.901C30.6401 16.5723 30.0959 17.1161 29.4249 17.1161C28.7539 17.1161 28.2098 16.5723 28.2098 15.901C28.2098 15.23 28.7539 14.6858 29.4249 14.6858ZM23.9563 14.6858C24.6272 14.6858 25.1714 15.23 25.1714 15.901C25.1714 16.5723 24.6272 17.1161 23.9563 17.1161C23.2849 17.1161 22.7411 16.5723 22.7411 15.901C22.7411 15.23 23.2849 14.6858 23.9563 14.6858ZM18.4876 19.3072C19.1586 19.3072 19.7028 19.851 19.7028 20.5224C19.7028 21.1934 19.1586 21.7376 18.4876 21.7376C17.8163 21.7376 17.2725 21.1934 17.2725 20.5224C17.2725 19.851 17.8163 19.3072 18.4876 19.3072ZM29.4249 19.3072C30.0959 19.3072 30.6401 19.851 30.6401 20.5224C30.6401 21.1934 30.0959 21.7376 29.4249 21.7376C28.7539 21.7376 28.2098 21.1934 28.2098 20.5224C28.2098 19.851 28.7539 19.3072 29.4249 19.3072ZM23.9563 19.3072C24.6272 19.3072 25.1714 19.851 25.1714 20.5224C25.1714 21.1934 24.6272 21.7376 23.9563 21.7376C23.2849 21.7376 22.7411 21.1934 22.7411 20.5224C22.7411 19.851 23.2849 19.3072 23.9563 19.3072ZM17.8055 7.80026H30.107C30.5627 7.80026 30.9323 8.17023 30.9323 8.62592V12.4951C30.9323 12.9508 30.5627 13.3203 30.107 13.3203H17.8055C17.3498 13.3203 16.9802 12.9508 16.9802 12.4951V8.62592C16.9802 8.17023 17.3498 7.80026 17.8055 7.80026ZM29.2814 9.45158H18.6312V11.6694H29.2814V9.45158ZM33.3491 5.52023H14.5635V29.4643H33.3491V5.52023ZM13.7382 3.86932H34.1743C34.6304 3.86932 35 4.23929 35 4.69497V30.29C35 30.7457 34.6304 31.1152 34.1743 31.1152H13.7382C13.2821 31.1152 12.9126 30.7457 12.9126 30.29V4.69497C12.9126 4.23929 13.2821 3.86932 13.7382 3.86932ZM6.69481 3.63569C5.02236 3.63569 3.65132 5.00674 3.65132 6.67878V28.3058C3.65132 29.9782 5.02236 31.3493 6.69481 31.3493C8.36685 31.3493 9.7383 29.9782 9.7383 28.3058V6.67878C9.7383 5.00674 8.36685 3.63569 6.69481 3.63569Z" fill="url(#paint0_linear_184_18)"></path>
  <defs>
    <linearGradient id="paint0_linear_184_18" x1="3.30263" y1="5.2492" x2="25.7337" y2="32.3404" gradientUnits="userSpaceOnUse">
      <stop stop-color="#BC0D2C"></stop>
      <stop offset="1" stop-color="#E65F1E"></stop>
    </linearGradient>
  </defs>
</svg>
