<?xml version="1.0" encoding="UTF-8"?>
<svg xmlns="http://www.w3.org/2000/svg" width="33" height="33" viewBox="0 0 33 33" fill="none">
  <path d="M14.0308 10.6301V18.245L20.6251 14.4376L14.0308 10.6301ZM15.4058 13.0122L17.8751 14.4376L15.4058 15.8629V13.0122Z" fill="url(#paint0_linear_46_1562)"></path>
  <path d="M28.875 8.25V0H4.125V8.25H0V24.0625H4.125V33H28.875V24.0625H33V8.25H28.875ZM5.5 1.375H27.5V5.5H5.5V1.375ZM5.5 6.875H27.5V8.25H5.5V6.875ZM27.5 31.625H5.5V27.5H27.5V31.625ZM27.5 26.125H5.5V24.0625H27.5V26.125ZM31.625 22.6875H1.375V9.625H31.625V22.6875Z" fill="url(#paint1_linear_46_1562)"></path>
  <path d="M19.9375 28.875H13.0625C12.6825 28.875 12.375 29.1825 12.375 29.5625C12.375 29.9425 12.6825 30.25 13.0625 30.25H19.9375C20.3175 30.25 20.625 29.9425 20.625 29.5625C20.625 29.1825 20.3175 28.875 19.9375 28.875Z" fill="url(#paint2_linear_46_1562)"></path>
  <path d="M17.1875 2.75H13.0625V4.125H17.1875V2.75Z" fill="url(#paint3_linear_46_1562)"></path>
  <path d="M19.9375 2.75H18.5625V4.125H19.9375V2.75Z" fill="url(#paint4_linear_46_1562)"></path>
  <path d="M27.5 19.9375H26.125V21.3125H27.5V19.9375Z" fill="url(#paint5_linear_46_1562)"></path>
  <path d="M30.25 19.9375H28.875V21.3125H30.25V19.9375Z" fill="url(#paint6_linear_46_1562)"></path>
  <path d="M8.25 19.9375V19.25H6.875V19.9375H2.75V21.3125H6.875V22H8.25V21.3125H24.75V19.9375H8.25Z" fill="url(#paint7_linear_46_1562)"></path>
  <defs>
    <linearGradient id="paint0_linear_46_1562" x1="14.2911" y1="11.4317" x2="19.8958" y2="16.9412" gradientUnits="userSpaceOnUse">
      <stop stop-color="#BC0D2C"></stop>
      <stop offset="1" stop-color="#E65F1E"></stop>
    </linearGradient>
    <linearGradient id="paint1_linear_46_1562" x1="1.30263" y1="3.47368" x2="25.4013" y2="30.8289" gradientUnits="userSpaceOnUse">
      <stop stop-color="#BC0D2C"></stop>
      <stop offset="1" stop-color="#E65F1E"></stop>
    </linearGradient>
    <linearGradient id="paint2_linear_46_1562" x1="12.7007" y1="29.0197" x2="12.9916" y2="31.0014" gradientUnits="userSpaceOnUse">
      <stop stop-color="#BC0D2C"></stop>
      <stop offset="1" stop-color="#E65F1E"></stop>
    </linearGradient>
    <linearGradient id="paint3_linear_46_1562" x1="13.2253" y1="2.89474" x2="13.7726" y2="4.75841" gradientUnits="userSpaceOnUse">
      <stop stop-color="#BC0D2C"></stop>
      <stop offset="1" stop-color="#E65F1E"></stop>
    </linearGradient>
    <linearGradient id="paint4_linear_46_1562" x1="18.6168" y1="2.89474" x2="19.6209" y2="4.03454" gradientUnits="userSpaceOnUse">
      <stop stop-color="#BC0D2C"></stop>
      <stop offset="1" stop-color="#E65F1E"></stop>
    </linearGradient>
    <linearGradient id="paint5_linear_46_1562" x1="26.1793" y1="20.0822" x2="27.1834" y2="21.222" gradientUnits="userSpaceOnUse">
      <stop stop-color="#BC0D2C"></stop>
      <stop offset="1" stop-color="#E65F1E"></stop>
    </linearGradient>
    <linearGradient id="paint6_linear_46_1562" x1="28.9293" y1="20.0822" x2="29.9334" y2="21.222" gradientUnits="userSpaceOnUse">
      <stop stop-color="#BC0D2C"></stop>
      <stop offset="1" stop-color="#E65F1E"></stop>
    </linearGradient>
    <linearGradient id="paint7_linear_46_1562" x1="3.61842" y1="19.5395" x2="4.05892" y2="23.5397" gradientUnits="userSpaceOnUse">
      <stop stop-color="#BC0D2C"></stop>
      <stop offset="1" stop-color="#E65F1E"></stop>
    </linearGradient>
  </defs>
</svg>
