<?xml version="1.0" encoding="UTF-8"?>
<svg xmlns="http://www.w3.org/2000/svg" width="40" height="40" viewBox="0 0 40 40" fill="none">
  <mask id="path-1-inside-1_184_12" fill="white">
    <path d="M24.4565 24.6018C24.1149 24.6018 23.8381 24.8787 23.8381 25.2202V31.4515H8.23681V15.8495H12.9977C13.3393 15.8495 13.6161 15.5726 13.6161 15.2311C13.6161 14.8896 13.3393 14.6127 12.9977 14.6127H8.23681V11.9933C8.23681 10.9059 9.12146 10.0212 10.2089 10.0212H11.0994C11.441 10.0212 11.7178 9.74435 11.7178 9.40283C11.7178 9.0613 11.441 8.78442 11.0994 8.78442H10.2089C8.43956 8.78442 7 10.2239 7 11.9933V35.3076C7 37.077 8.43956 38.5164 10.2089 38.5164H21.8661C23.6354 38.5164 25.075 37.077 25.075 35.3076V25.2202C25.0749 24.8787 24.7981 24.6018 24.4565 24.6018ZM21.866 37.2797H10.2089C9.12154 37.2797 8.23681 36.3951 8.23681 35.3077V32.6883H23.8382V35.3077C23.8381 36.3951 22.9535 37.2797 21.866 37.2797Z"></path>
  </mask>
  <path d="M24.4565 24.6018C24.1149 24.6018 23.8381 24.8787 23.8381 25.2202V31.4515H8.23681V15.8495H12.9977C13.3393 15.8495 13.6161 15.5726 13.6161 15.2311C13.6161 14.8896 13.3393 14.6127 12.9977 14.6127H8.23681V11.9933C8.23681 10.9059 9.12146 10.0212 10.2089 10.0212H11.0994C11.441 10.0212 11.7178 9.74435 11.7178 9.40283C11.7178 9.0613 11.441 8.78442 11.0994 8.78442H10.2089C8.43956 8.78442 7 10.2239 7 11.9933V35.3076C7 37.077 8.43956 38.5164 10.2089 38.5164H21.8661C23.6354 38.5164 25.075 37.077 25.075 35.3076V25.2202C25.0749 24.8787 24.7981 24.6018 24.4565 24.6018ZM21.866 37.2797H10.2089C9.12154 37.2797 8.23681 36.3951 8.23681 35.3077V32.6883H23.8382V35.3077C23.8381 36.3951 22.9535 37.2797 21.866 37.2797Z" fill="url(#paint0_linear_184_12)"></path>
  <path d="M23.8381 31.4515V34.4515H26.8381V31.4515H23.8381ZM8.23681 31.4515H5.23681V34.4515H8.23681V31.4515ZM8.23681 15.8495V12.8495H5.23681V15.8495H8.23681ZM8.23681 14.6127H5.23681V17.6127H8.23681V14.6127ZM25.075 25.2202H28.075V25.2195L25.075 25.2202ZM8.23681 32.6883V29.6883H5.23681V32.6883H8.23681ZM23.8382 32.6883H26.8382V29.6883H23.8382V32.6883ZM23.8382 35.3077L26.8382 35.3079V35.3077H23.8382ZM24.4565 21.6018C22.4578 21.6018 20.8381 23.2221 20.8381 25.2202H26.8381C26.8381 26.5353 25.772 27.6018 24.4565 27.6018V21.6018ZM20.8381 25.2202V31.4515H26.8381V25.2202H20.8381ZM23.8381 28.4515H8.23681V34.4515H23.8381V28.4515ZM11.2368 31.4515V15.8495H5.23681V31.4515H11.2368ZM8.23681 18.8495H12.9977V12.8495H8.23681V18.8495ZM12.9977 18.8495C14.9964 18.8495 16.6161 17.2292 16.6161 15.2311H10.6161C10.6161 13.916 11.6822 12.8495 12.9977 12.8495V18.8495ZM16.6161 15.2311C16.6161 13.233 14.9964 11.6127 12.9977 11.6127V17.6127C11.6822 17.6127 10.6161 16.5462 10.6161 15.2311H16.6161ZM12.9977 11.6127H8.23681V17.6127H12.9977V11.6127ZM11.2368 14.6127V11.9933H5.23681V14.6127H11.2368ZM11.2368 11.9933C11.2368 12.5628 10.7782 13.0212 10.2089 13.0212V7.02123C7.46469 7.02123 5.23681 9.24895 5.23681 11.9933H11.2368ZM10.2089 13.0212H11.0994V7.02123H10.2089V13.0212ZM11.0994 13.0212C13.0981 13.0212 14.7178 11.4009 14.7178 9.40283H8.71777C8.71777 8.08776 9.78386 7.02123 11.0994 7.02123V13.0212ZM14.7178 9.40283C14.7178 7.40471 13.0981 5.78442 11.0994 5.78442V11.7844C9.78386 11.7844 8.71777 10.7179 8.71777 9.40283H14.7178ZM11.0994 5.78442H10.2089V11.7844H11.0994V5.78442ZM10.2089 5.78442C6.78281 5.78442 4 8.56695 4 11.9933H10C10 11.9388 10.0189 11.8901 10.0622 11.8467C10.1056 11.8033 10.1544 11.7844 10.2089 11.7844V5.78442ZM4 11.9933V35.3076H10V11.9933H4ZM4 35.3076C4 38.7339 6.78281 41.5164 10.2089 41.5164V35.5164C10.1544 35.5164 10.1056 35.4975 10.0622 35.4542C10.0189 35.4108 10 35.362 10 35.3076H4ZM10.2089 41.5164H21.8661V35.5164H10.2089V41.5164ZM21.8661 41.5164C25.2922 41.5164 28.075 38.7339 28.075 35.3076H22.075C22.075 35.362 22.0561 35.4108 22.0128 35.4542C21.9694 35.4975 21.9206 35.5164 21.8661 35.5164V41.5164ZM28.075 35.3076V25.2202H22.075V35.3076H28.075ZM28.075 25.2195C28.0745 23.2221 26.4554 21.6018 24.4565 21.6018V27.6018C23.1409 27.6018 22.0753 26.5353 22.075 25.221L28.075 25.2195ZM21.866 34.2797H10.2089V40.2797H21.866V34.2797ZM10.2089 34.2797C10.7782 34.2797 11.2368 34.7381 11.2368 35.3077H5.23681C5.23681 38.0521 7.46485 40.2797 10.2089 40.2797V34.2797ZM11.2368 35.3077V32.6883H5.23681V35.3077H11.2368ZM8.23681 35.6883H23.8382V29.6883H8.23681V35.6883ZM20.8382 32.6883V35.3077H26.8382V32.6883H20.8382ZM20.8382 35.3074C20.8382 34.7381 21.2966 34.2797 21.866 34.2797V40.2797C24.6103 40.2797 26.838 38.052 26.8382 35.3079L20.8382 35.3074Z" fill="url(#paint1_linear_184_12)" mask="url(#path-1-inside-1_184_12)"></path>
  <path d="M19.3108 8.75703C19.3472 8.83598 19.3722 8.91037 19.3894 8.97621L19.2889 8.93292C19.2903 8.8733 19.2977 8.81439 19.3108 8.75703Z" fill="url(#paint2_linear_184_12)" stroke="url(#paint3_linear_184_12)" stroke-width="3"></path>
  <mask id="path-4-inside-2_184_12" fill="white">
    <path d="M30.2453 9.68409C29.346 9.53699 29.3081 9.4491 29.3081 9.26448C29.3081 8.93805 29.856 8.8518 30.1457 8.8518C30.611 8.8518 30.9113 9.00871 30.9676 9.16364C31.0839 9.48472 31.4385 9.65095 31.7596 9.53427C32.0808 9.41785 32.2467 9.06321 32.1303 8.74214C31.8782 8.04688 31.1178 7.61499 30.1457 7.61499C28.9243 7.61499 28.0713 8.29326 28.0713 9.26448C28.0713 10.5818 29.3072 10.7839 30.0456 10.9047C30.9454 11.0519 30.9833 11.14 30.9833 11.3251C30.9833 11.6515 30.4353 11.7378 30.1457 11.7378C29.6801 11.7378 29.3798 11.5808 29.3237 11.4258C29.2075 11.1047 28.8531 10.9383 28.5318 11.0547C28.2106 11.171 28.0446 11.5255 28.1608 11.8467C28.4126 12.5424 29.1731 12.9746 30.1457 12.9746C31.3671 12.9746 32.2201 12.2963 32.2201 11.3251C32.2201 10.0071 30.9839 9.80489 30.2453 9.68409Z"></path>
  </mask>
  <path d="M30.2453 9.68409C29.346 9.53699 29.3081 9.4491 29.3081 9.26448C29.3081 8.93805 29.856 8.8518 30.1457 8.8518C30.611 8.8518 30.9113 9.00871 30.9676 9.16364C31.0839 9.48472 31.4385 9.65095 31.7596 9.53427C32.0808 9.41785 32.2467 9.06321 32.1303 8.74214C31.8782 8.04688 31.1178 7.61499 30.1457 7.61499C28.9243 7.61499 28.0713 8.29326 28.0713 9.26448C28.0713 10.5818 29.3072 10.7839 30.0456 10.9047C30.9454 11.0519 30.9833 11.14 30.9833 11.3251C30.9833 11.6515 30.4353 11.7378 30.1457 11.7378C29.6801 11.7378 29.3798 11.5808 29.3237 11.4258C29.2075 11.1047 28.8531 10.9383 28.5318 11.0547C28.2106 11.171 28.0446 11.5255 28.1608 11.8467C28.4126 12.5424 29.1731 12.9746 30.1457 12.9746C31.3671 12.9746 32.2201 12.2963 32.2201 11.3251C32.2201 10.0071 30.9839 9.80489 30.2453 9.68409Z" fill="url(#paint4_linear_184_12)"></path>
  <path d="M30.2453 9.68409L29.761 12.6447L29.7611 12.6448L30.2453 9.68409ZM30.9676 9.16364L33.7881 8.14161L33.7876 8.1401L30.9676 9.16364ZM31.7596 9.53427L30.7372 6.71388L30.7353 6.71458L31.7596 9.53427ZM32.1303 8.74214L29.3099 9.76465L29.3099 9.76481L32.1303 8.74214ZM30.0456 10.9047L29.5612 13.8654L29.5613 13.8654L30.0456 10.9047ZM29.3237 11.4258L26.5027 12.4465L26.503 12.4475L29.3237 11.4258ZM28.5318 11.0547L29.553 13.8756L29.5538 13.8753L28.5318 11.0547ZM28.1608 11.8467L30.9818 10.8257L30.9817 10.8255L28.1608 11.8467ZM32.2201 11.3251H35.2201H32.2201ZM30.7296 6.72344C30.5368 6.6919 30.4529 6.67338 30.4325 6.66839C30.3827 6.65621 30.5674 6.69338 30.8245 6.82721C31.128 6.98519 31.6789 7.35576 32.0301 8.08385C32.1895 8.41424 32.2551 8.71336 32.2836 8.92168C32.3095 9.11044 32.3081 9.25488 32.3081 9.26448H26.3081C26.3081 9.32985 26.2854 9.98456 26.626 10.6906C27.0124 11.4917 27.629 11.9281 28.0544 12.1495C28.6761 12.473 29.4027 12.5861 29.761 12.6447L30.7296 6.72344ZM32.3081 9.26448C32.3081 10.1305 31.9079 10.8091 31.4825 11.22C31.1195 11.5706 30.7648 11.7115 30.6347 11.7583C30.3752 11.8518 30.2121 11.8518 30.1457 11.8518V5.8518C29.7895 5.8518 29.2077 5.89497 28.6018 6.11317C28.2258 6.24859 26.3081 7.03774 26.3081 9.26448H32.3081ZM30.1457 11.8518C30.0601 11.8518 29.846 11.8399 29.5537 11.7178C29.4078 11.6569 29.1867 11.5449 28.9482 11.3441C28.7237 11.155 28.3645 10.7848 28.1476 10.1872L33.7876 8.1401C33.3311 6.88242 32.287 6.35711 31.8663 6.18142C31.2935 5.94213 30.6966 5.8518 30.1457 5.8518V11.8518ZM28.147 10.1857C28.8271 12.0625 30.9017 13.0378 32.784 12.354L30.7353 6.71458C31.9752 6.26412 33.3407 6.90695 33.7881 8.14161L28.147 10.1857ZM32.7821 12.3547C34.6608 11.6736 35.6319 9.59841 34.9506 7.71947L29.3099 9.76481C28.8615 8.52802 29.5008 7.16211 30.7372 6.71388L32.7821 12.3547ZM34.9506 7.71962C34.121 5.43141 31.8858 4.61499 30.1457 4.61499V10.615C30.2006 10.615 30.1059 10.6284 29.9264 10.5265C29.7314 10.4157 29.4577 10.1724 29.3099 9.76465L34.9506 7.71962ZM30.1457 4.61499C29.0016 4.61499 27.7832 4.93228 26.7833 5.7274C25.7368 6.55955 25.0713 7.8204 25.0713 9.26448H31.0713C31.0713 9.47027 31.0238 9.7026 30.9125 9.92756C30.8026 10.1495 30.656 10.3136 30.5176 10.4237C30.2495 10.6368 30.0684 10.615 30.1457 10.615V4.61499ZM25.0713 9.26448C25.0713 10.0841 25.2704 10.903 25.7242 11.637C26.1693 12.3571 26.7571 12.8304 27.2882 13.1352C28.2394 13.6811 29.2857 13.8203 29.5612 13.8654L30.5299 7.9441C30.3318 7.91168 30.2437 7.89552 30.1731 7.87735C30.1038 7.85953 30.1598 7.86535 30.2749 7.93138C30.4047 8.00592 30.6374 8.17412 30.8277 8.482C31.0266 8.80383 31.0713 9.10351 31.0713 9.26448H25.0713ZM29.5613 13.8654C29.7542 13.897 29.8381 13.9155 29.8584 13.9204C29.9081 13.9326 29.7231 13.8954 29.4655 13.7612C29.1612 13.6026 28.6108 13.2314 28.2603 12.5034C28.1014 12.1733 28.0361 11.8746 28.0077 11.6669C27.9819 11.4786 27.9833 11.3345 27.9833 11.3251H33.9833C33.9833 11.26 34.006 10.606 33.6663 9.90059C33.2806 9.09943 32.6645 8.66235 32.2382 8.44023C31.6158 8.11591 30.8882 8.0027 30.5298 7.94408L29.5613 13.8654ZM27.9833 11.3251C27.9833 10.4589 28.3836 9.78032 28.809 9.36944C29.172 9.01884 29.5268 8.87806 29.6568 8.83125C29.9162 8.73782 30.0792 8.73778 30.1457 8.73778V14.7378C30.5018 14.7378 31.0836 14.6946 31.6895 14.4764C32.0653 14.3411 33.9833 13.5521 33.9833 11.3251H27.9833ZM30.1457 8.73778C30.2311 8.73778 30.4454 8.74964 30.7379 8.87188C30.8839 8.9329 31.1052 9.04499 31.3438 9.24608C31.5685 9.43547 31.9277 9.80607 32.1443 10.404L26.503 12.4475C26.959 13.7062 28.0036 14.232 28.4244 14.4079C28.9975 14.6474 29.5947 14.7378 30.1457 14.7378V8.73778ZM32.1447 10.405C31.4654 8.52772 29.3916 7.55233 27.5098 8.23416L29.5538 13.8753C28.3146 14.3243 26.9496 13.6817 26.5027 12.4465L32.1447 10.405ZM27.5106 8.23387C25.6314 8.91415 24.6598 10.9889 25.34 12.8679L30.9817 10.8255C31.4293 12.0621 30.7899 13.4278 29.553 13.8756L27.5106 8.23387ZM25.3399 12.8677C26.1687 15.1576 28.4049 15.9746 30.1457 15.9746V9.97459C30.0906 9.97459 30.1854 9.96111 30.3651 10.0633C30.5605 10.1743 30.8341 10.4179 30.9818 10.8257L25.3399 12.8677ZM30.1457 15.9746C31.2897 15.9746 32.5081 15.6573 33.508 14.8622C34.5545 14.0301 35.2201 12.7693 35.2201 11.3251H29.2201C29.2201 11.1193 29.2677 10.8869 29.379 10.6619C29.4888 10.44 29.6355 10.2759 29.7738 10.1659C30.0419 9.95274 30.223 9.97459 30.1457 9.97459V15.9746ZM35.2201 11.3251C35.2201 10.5054 35.021 9.68646 34.5673 8.9524C34.1222 8.23223 33.5345 7.75881 33.0032 7.45385C32.0518 6.9077 31.0052 6.76852 30.7295 6.72342L29.7611 12.6448C29.9592 12.6772 30.0473 12.6933 30.118 12.7115C30.1872 12.7293 30.1312 12.7235 30.0162 12.6575C29.8863 12.5829 29.6538 12.4147 29.4635 12.1069C29.2647 11.7852 29.2201 11.4858 29.2201 11.3251H35.2201Z" fill="url(#paint5_linear_184_12)" mask="url(#path-4-inside-2_184_12)"></path>
  <mask id="path-6-inside-3_184_12" fill="white">
    <path d="M26.43 7.65326C26.1868 7.56363 25.9138 7.63504 25.7457 7.83194L24.4565 9.34225L23.1673 7.83194C22.9992 7.63495 22.726 7.56355 22.4831 7.65326C22.2401 7.7428 22.0786 7.97442 22.0786 8.23349V12.3562C22.0786 12.6977 22.3554 12.9746 22.697 12.9746C23.0386 12.9746 23.3154 12.6977 23.3154 12.3562V9.91052L23.9862 10.6963C24.1037 10.8339 24.2755 10.9132 24.4565 10.9132C24.6375 10.9132 24.8093 10.834 24.9268 10.6963L25.5976 9.91052V12.3562C25.5976 12.6977 25.8744 12.9746 26.216 12.9746C26.5576 12.9746 26.8344 12.6977 26.8344 12.3562V8.23349C26.8344 7.97442 26.673 7.74289 26.43 7.65326Z"></path>
  </mask>
  <path d="M26.43 7.65326C26.1868 7.56363 25.9138 7.63504 25.7457 7.83194L24.4565 9.34225L23.1673 7.83194C22.9992 7.63495 22.726 7.56355 22.4831 7.65326C22.2401 7.7428 22.0786 7.97442 22.0786 8.23349V12.3562C22.0786 12.6977 22.3554 12.9746 22.697 12.9746C23.0386 12.9746 23.3154 12.6977 23.3154 12.3562V9.91052L23.9862 10.6963C24.1037 10.8339 24.2755 10.9132 24.4565 10.9132C24.6375 10.9132 24.8093 10.834 24.9268 10.6963L25.5976 9.91052V12.3562C25.5976 12.6977 25.8744 12.9746 26.216 12.9746C26.5576 12.9746 26.8344 12.6977 26.8344 12.3562V8.23349C26.8344 7.97442 26.673 7.74289 26.43 7.65326Z" fill="url(#paint6_linear_184_12)"></path>
  <path d="M26.43 7.65326L27.4681 4.83862L27.4675 4.83839L26.43 7.65326ZM25.7457 7.83194L23.4642 5.88389L23.4639 5.88425L25.7457 7.83194ZM24.4565 9.34225L22.1747 11.2899L24.4565 13.9631L26.7383 11.2899L24.4565 9.34225ZM23.1673 7.83194L20.8855 9.77951L20.8856 9.77962L23.1673 7.83194ZM22.4831 7.65326L23.5204 10.4682L23.5224 10.4675L22.4831 7.65326ZM23.3154 9.91052L25.5972 7.96278L20.3154 1.77534V9.91052H23.3154ZM23.9862 10.6963L21.7045 12.644L21.7047 12.6443L23.9862 10.6963ZM24.9268 10.6963L22.6451 8.74857L22.6447 8.749L24.9268 10.6963ZM25.5976 9.91052H28.5976V1.77534L23.3159 7.96278L25.5976 9.91052ZM26.8344 8.23349H29.8344H26.8344ZM27.4675 4.83839C26.0453 4.31418 24.4478 4.73189 23.4642 5.88389L28.0271 9.77998C27.3798 10.5382 26.3283 10.8131 25.3924 10.4681L27.4675 4.83839ZM23.4639 5.88425L22.1747 7.39456L26.7383 11.2899L28.0275 9.77962L23.4639 5.88425ZM26.7383 7.39457L25.4491 5.88425L20.8856 9.77962L22.1747 11.2899L26.7383 7.39457ZM25.4492 5.88436C24.4656 4.73196 22.8669 4.31344 21.4437 4.83905L23.5224 10.4675C22.585 10.8137 21.5328 10.5379 20.8855 9.77951L25.4492 5.88436ZM21.4457 4.83831C20.0228 5.36265 19.0786 6.71826 19.0786 8.23349H25.0786C25.0786 9.23057 24.4573 10.123 23.5204 10.4682L21.4457 4.83831ZM19.0786 8.23349V12.3562H25.0786V8.23349H19.0786ZM19.0786 12.3562C19.0786 14.3543 20.6983 15.9746 22.697 15.9746V9.9746C24.0125 9.9746 25.0786 11.0411 25.0786 12.3562H19.0786ZM22.697 15.9746C24.6957 15.9746 26.3154 14.3543 26.3154 12.3562H20.3154C20.3154 11.0411 21.3815 9.9746 22.697 9.9746V15.9746ZM26.3154 12.3562V9.91052H20.3154V12.3562H26.3154ZM21.0337 11.8583L21.7045 12.644L26.2679 8.74857L25.5972 7.96278L21.0337 11.8583ZM21.7047 12.6443C22.3915 13.4488 23.3968 13.9132 24.4565 13.9132V7.91324C25.1542 7.91324 25.8158 8.21907 26.2677 8.74833L21.7047 12.6443ZM24.4565 13.9132C25.5154 13.9132 26.5213 13.4495 27.2089 12.6436L22.6447 8.749C23.0973 8.21856 23.7596 7.91324 24.4565 7.91324V13.9132ZM27.2086 12.644L27.8793 11.8583L23.3159 7.96278L22.6451 8.74857L27.2086 12.644ZM22.5976 9.91052V12.3562H28.5976V9.91052H22.5976ZM22.5976 12.3562C22.5976 14.3543 24.2173 15.9746 26.216 15.9746V9.9746C27.5315 9.9746 28.5976 11.0411 28.5976 12.3562H22.5976ZM26.216 15.9746C28.2147 15.9746 29.8344 14.3543 29.8344 12.3562H23.8344C23.8344 11.0411 24.9005 9.9746 26.216 9.9746V15.9746ZM29.8344 12.3562V8.23349H23.8344V12.3562H29.8344ZM29.8344 8.23349C29.8344 6.71763 28.8897 5.36295 27.4681 4.83862L25.3918 10.4679C24.4562 10.1228 23.8344 9.2312 23.8344 8.23349H29.8344Z" fill="url(#paint7_linear_184_12)" mask="url(#path-6-inside-3_184_12)"></path>
  <mask id="path-8-inside-4_184_12" fill="white">
    <path d="M32.5664 3.67547C30.3939 1.95012 27.5139 1 24.4566 1C21.3993 1 18.5191 1.9502 16.3467 3.67547C14.1325 5.43405 12.9131 7.7849 12.9131 10.295C12.9131 14.7011 16.7033 18.4587 21.9953 19.3786C22.0916 20.7523 21.5948 22.1159 20.6234 23.0965C20.4477 23.2739 20.3959 23.5394 20.4919 23.7698C20.588 24.0001 20.8131 24.1501 21.0627 24.1501C23.8907 24.1501 26.3192 22.1313 26.8917 19.3831C32.1977 18.471 36.0001 14.7086 36.0001 10.295C36.0002 7.78498 34.7807 5.43405 32.5664 3.67547ZM26.256 18.2301C25.9339 18.2746 25.7012 18.5607 25.7236 18.8851C25.7237 18.888 25.724 18.8908 25.7242 18.8937C25.4396 20.7142 24.1399 22.1703 22.46 22.6989C23.1051 21.5562 23.3702 20.2151 23.1873 18.8885C23.1874 18.8873 23.1874 18.8861 23.1875 18.8849C23.2099 18.5607 22.9772 18.2745 22.6552 18.2299C17.7269 17.5488 14.15 14.2117 14.15 10.2951C14.15 5.85176 18.7735 2.23689 24.4567 2.23689C30.1399 2.23689 34.7635 5.85176 34.7635 10.2951C34.7634 14.2124 31.1856 17.5496 26.256 18.2301Z"></path>
  </mask>
  <path d="M32.5664 3.67547C30.3939 1.95012 27.5139 1 24.4566 1C21.3993 1 18.5191 1.9502 16.3467 3.67547C14.1325 5.43405 12.9131 7.7849 12.9131 10.295C12.9131 14.7011 16.7033 18.4587 21.9953 19.3786C22.0916 20.7523 21.5948 22.1159 20.6234 23.0965C20.4477 23.2739 20.3959 23.5394 20.4919 23.7698C20.588 24.0001 20.8131 24.1501 21.0627 24.1501C23.8907 24.1501 26.3192 22.1313 26.8917 19.3831C32.1977 18.471 36.0001 14.7086 36.0001 10.295C36.0002 7.78498 34.7807 5.43405 32.5664 3.67547ZM26.256 18.2301C25.9339 18.2746 25.7012 18.5607 25.7236 18.8851C25.7237 18.888 25.724 18.8908 25.7242 18.8937C25.4396 20.7142 24.1399 22.1703 22.46 22.6989C23.1051 21.5562 23.3702 20.2151 23.1873 18.8885C23.1874 18.8873 23.1874 18.8861 23.1875 18.8849C23.2099 18.5607 22.9772 18.2745 22.6552 18.2299C17.7269 17.5488 14.15 14.2117 14.15 10.2951C14.15 5.85176 18.7735 2.23689 24.4567 2.23689C30.1399 2.23689 34.7635 5.85176 34.7635 10.2951C34.7634 14.2124 31.1856 17.5496 26.256 18.2301Z" fill="url(#paint8_linear_184_12)"></path>
  <path d="M32.5664 3.67547L34.4322 1.32622L34.4322 1.32621L32.5664 3.67547ZM16.3467 3.67547L14.481 1.32623L14.4809 1.32625L16.3467 3.67547ZM21.9953 19.3786L24.988 19.1688L24.8237 16.8252L22.5091 16.4229L21.9953 19.3786ZM20.6234 23.0965L22.7546 25.2079L22.7547 25.2078L20.6234 23.0965ZM20.4919 23.7698L17.723 24.9243L17.7231 24.9247L20.4919 23.7698ZM26.8917 19.3831L26.3835 16.4264L24.3711 16.7723L23.9547 18.7713L26.8917 19.3831ZM36.0001 10.295L33.0001 10.2949V10.295H36.0001ZM26.256 18.2301L25.8457 15.2583L25.8451 15.2584L26.256 18.2301ZM25.7236 18.8851L28.7187 18.714L28.7177 18.6964L28.7165 18.6789L25.7236 18.8851ZM25.7242 18.8937L28.6882 19.3571L28.7442 18.9988L28.7133 18.6375L25.7242 18.8937ZM22.46 22.6989L19.8476 21.2241L16.1117 27.8417L23.3605 25.5606L22.46 22.6989ZM23.1873 18.8885L20.1939 18.6889L20.1735 18.9948L20.2154 19.2984L23.1873 18.8885ZM23.1875 18.8849L26.1799 19.0987L26.1804 19.0912L23.1875 18.8849ZM22.6552 18.2299L23.0661 15.2582L23.0659 15.2582L22.6552 18.2299ZM34.7635 10.2951L37.7635 10.2952V10.2951H34.7635ZM34.4322 1.32621C31.6743 -0.864044 28.118 -2 24.4566 -2V4C26.9098 4 29.1136 4.76428 30.7007 6.02473L34.4322 1.32621ZM24.4566 -2C20.7952 -2 17.2387 -0.863965 14.481 1.32623L18.2125 6.02471C19.7994 4.76437 22.0033 4 24.4566 4V-2ZM14.4809 1.32625C11.6529 3.57229 9.91309 6.74612 9.91309 10.295H15.9131C15.9131 8.82368 16.612 7.29581 18.2125 6.02468L14.4809 1.32625ZM9.91309 10.295C9.91309 16.5917 15.2245 21.2467 21.4816 22.3343L22.5091 16.4229C18.182 15.6708 15.9131 12.8106 15.9131 10.295H9.91309ZM19.0027 19.5884C19.0395 20.1133 18.8466 20.6274 18.492 20.9853L22.7547 25.2078C24.3429 23.6045 25.1438 21.3912 24.988 19.1688L19.0027 19.5884ZM18.4922 20.9851C17.4639 22.023 17.1611 23.5768 17.723 24.9243L23.2609 22.6152C23.6306 23.502 23.4314 24.5248 22.7546 25.2079L18.4922 20.9851ZM17.7231 24.9247C18.2851 26.272 19.6021 27.1501 21.0627 27.1501V21.1501C22.0241 21.1501 22.8908 21.7281 23.2607 22.6149L17.7231 24.9247ZM21.0627 27.1501C25.3383 27.1501 28.9718 24.1081 29.8286 19.9948L23.9547 18.7713C23.6666 20.1545 22.4431 21.1501 21.0627 21.1501V27.1501ZM27.3999 22.3397C33.6719 21.2616 39.0001 16.6025 39.0001 10.295H33.0001C33.0001 12.8146 30.7235 15.6804 26.3835 16.4264L27.3999 22.3397ZM39.0001 10.2951C39.0003 6.74617 37.2602 3.57223 34.4322 1.32622L30.7007 6.02472C32.3012 7.29587 33.0002 8.82379 33.0001 10.2949L39.0001 10.2951ZM25.8451 15.2584C23.9623 15.5187 22.5998 17.1921 22.7307 19.0913L28.7165 18.6789C28.8026 19.9293 27.9055 21.0306 26.6668 21.2018L25.8451 15.2584ZM22.7284 19.0563C22.7302 19.0872 22.7321 19.1123 22.7333 19.1276C22.7344 19.1405 22.7355 19.1537 22.7352 19.1499L28.7133 18.6375C28.7127 18.6308 28.7136 18.6412 28.7144 18.6512C28.7154 18.6637 28.7171 18.6859 28.7187 18.714L22.7284 19.0563ZM22.7602 18.4303C22.6547 19.1055 22.1698 19.6453 21.5595 19.8373L23.3605 25.5606C26.11 24.6954 28.2245 22.3229 28.6882 19.3571L22.7602 18.4303ZM25.0725 24.1738C26.0366 22.4659 26.4329 20.4636 26.1591 18.4786L20.2154 19.2984C20.3076 19.9666 20.1737 20.6465 19.8476 21.2241L25.0725 24.1738ZM26.1806 19.088C26.1804 19.0922 26.1801 19.0955 26.18 19.0973C26.1799 19.0987 26.1798 19.1002 26.1799 19.0987L20.1951 18.6712C20.1951 18.6714 20.1951 18.6712 20.1951 18.6716C20.1951 18.6718 20.1951 18.6721 20.195 18.6725C20.195 18.6733 20.1949 18.6746 20.1948 18.676C20.1946 18.6791 20.1943 18.6835 20.1939 18.6889L26.1806 19.088ZM26.1804 19.0912C26.3112 17.1925 24.9492 15.5186 23.0661 15.2582L22.2443 21.2017C21.0052 21.0303 20.1085 19.9288 20.1946 18.6787L26.1804 19.0912ZM23.0659 15.2582C19.0473 14.7028 17.15 12.1987 17.15 10.2951H11.15C11.15 16.2247 16.4065 20.3948 22.2445 21.2017L23.0659 15.2582ZM17.15 10.2951C17.15 8.15414 19.701 5.23689 24.4567 5.23689V-0.763107C17.846 -0.763107 11.15 3.54939 11.15 10.2951H17.15ZM24.4567 5.23689C29.2124 5.23689 31.7635 8.15418 31.7635 10.2951H37.7635C37.7635 3.54935 31.0673 -0.763107 24.4567 -0.763107V5.23689ZM31.7635 10.2951C31.7634 12.199 29.8657 14.7034 25.8457 15.2583L26.6662 21.2019C32.5055 20.3958 37.7634 16.2257 37.7635 10.2952L31.7635 10.2951Z" fill="url(#paint9_linear_184_12)" mask="url(#path-8-inside-4_184_12)"></path>
  <defs>
    <linearGradient id="paint0_linear_184_12" x1="7.71349" y1="11.9141" x2="28.1763" y2="26.0351" gradientUnits="userSpaceOnUse">
      <stop stop-color="#BC0D2C"></stop>
      <stop offset="1" stop-color="#E65F1E"></stop>
    </linearGradient>
    <linearGradient id="paint1_linear_184_12" x1="7.71349" y1="11.9141" x2="28.1763" y2="26.0351" gradientUnits="userSpaceOnUse">
      <stop stop-color="#BC0D2C"></stop>
      <stop offset="1" stop-color="#E65F1E"></stop>
    </linearGradient>
    <linearGradient id="paint2_linear_184_12" x1="16.8566" y1="8.17916" x2="20.7693" y2="11.6172" gradientUnits="userSpaceOnUse">
      <stop stop-color="#BC0D2C"></stop>
      <stop offset="1" stop-color="#E65F1E"></stop>
    </linearGradient>
    <linearGradient id="paint3_linear_184_12" x1="16.8566" y1="8.17916" x2="20.7693" y2="11.6172" gradientUnits="userSpaceOnUse">
      <stop stop-color="#BC0D2C"></stop>
      <stop offset="1" stop-color="#E65F1E"></stop>
    </linearGradient>
    <linearGradient id="paint4_linear_184_12" x1="28.2351" y1="8.17916" x2="32.1477" y2="11.6172" gradientUnits="userSpaceOnUse">
      <stop stop-color="#BC0D2C"></stop>
      <stop offset="1" stop-color="#E65F1E"></stop>
    </linearGradient>
    <linearGradient id="paint5_linear_184_12" x1="28.2351" y1="8.17916" x2="32.1477" y2="11.6172" gradientUnits="userSpaceOnUse">
      <stop stop-color="#BC0D2C"></stop>
      <stop offset="1" stop-color="#E65F1E"></stop>
    </linearGradient>
    <linearGradient id="paint6_linear_184_12" x1="22.2663" y1="8.17916" x2="26.2116" y2="12.1531" gradientUnits="userSpaceOnUse">
      <stop stop-color="#BC0D2C"></stop>
      <stop offset="1" stop-color="#E65F1E"></stop>
    </linearGradient>
    <linearGradient id="paint7_linear_184_12" x1="22.2663" y1="8.17916" x2="26.2116" y2="12.1531" gradientUnits="userSpaceOnUse">
      <stop stop-color="#BC0D2C"></stop>
      <stop offset="1" stop-color="#E65F1E"></stop>
    </linearGradient>
    <linearGradient id="paint8_linear_184_12" x1="13.8244" y1="3.43686" x2="30.7359" y2="22.5813" gradientUnits="userSpaceOnUse">
      <stop stop-color="#BC0D2C"></stop>
      <stop offset="1" stop-color="#E65F1E"></stop>
    </linearGradient>
    <linearGradient id="paint9_linear_184_12" x1="13.8244" y1="3.43686" x2="30.7359" y2="22.5813" gradientUnits="userSpaceOnUse">
      <stop stop-color="#BC0D2C"></stop>
      <stop offset="1" stop-color="#E65F1E"></stop>
    </linearGradient>
  </defs>
</svg>
