<?xml version="1.0" encoding="UTF-8"?>
<svg xmlns="http://www.w3.org/2000/svg" width="40" height="40" viewBox="0 0 40 40" fill="none">
  <path d="M4.14538 18.5649C4.14538 18.5649 19.6253 12.2314 24.994 10.0013C27.0519 9.10927 34.0313 6.25464 34.0313 6.25464C34.0313 6.25464 37.2525 5.00599 36.9841 8.03869C36.8945 9.28758 36.1786 13.6586 35.4628 18.3864C34.3891 25.0768 33.2259 32.3913 33.2259 32.3913C33.2259 32.3913 33.0471 34.4431 31.526 34.8C30.0047 35.1568 27.4994 33.5511 27.0519 33.1942C26.6941 32.9265 20.3411 28.9124 18.0148 26.95C17.3884 26.4149 16.6725 25.3443 18.1042 24.0954C21.3254 21.1519 25.173 17.4944 27.4994 15.1751C28.573 14.1046 29.6469 11.6068 25.173 14.6397C18.8201 19.0107 12.5565 23.1142 12.5565 23.1142C12.5565 23.1142 11.125 24.0062 8.44068 23.2034C5.75633 22.4005 2.62454 21.3302 2.62454 21.3302C2.62454 21.3302 0.477244 19.9919 4.14586 18.5649H4.14538Z" stroke="url(#paint0_linear_184_4)" stroke-width="2"></path>
  <defs>
    <linearGradient id="paint0_linear_184_4" x1="3.38158" y1="9.03698" x2="23.5776" y2="36.8479" gradientUnits="userSpaceOnUse">
      <stop stop-color="#BC0D2C"></stop>
      <stop offset="1" stop-color="#E65F1E"></stop>
    </linearGradient>
  </defs>
</svg>
