<?xml version="1.0" encoding="UTF-8"?>
<svg xmlns="http://www.w3.org/2000/svg" width="40" height="40" viewBox="0 0 40 40" fill="none">
  <path d="M34.0184 8.10522C37.1913 11.2772 38.9378 15.5021 38.9378 20.0001C38.9378 24.4981 37.1913 28.723 34.0184 31.895C33.8532 32.0602 33.6373 32.1428 33.4215 32.1428C33.2047 32.1428 32.9888 32.0602 32.8237 31.895C32.4943 31.5656 32.4943 31.0306 32.8237 30.7013C35.6776 27.8474 37.2485 24.0467 37.2485 20.0001C37.2485 15.9535 35.6776 12.1527 32.8237 9.29894C32.4943 8.96957 32.4943 8.43459 32.8237 8.10522C33.1541 7.77482 33.689 7.77482 34.0184 8.10522Z" fill="url(#paint0_linear_184_8)"></path>
  <path d="M29.3809 12.7427C31.316 14.6787 32.3821 17.2558 32.3821 19.9997C32.3821 22.7437 31.316 25.3208 29.3799 27.2568C29.2157 27.422 28.9989 27.5036 28.7831 27.5036C28.5672 27.5036 28.3504 27.422 28.1862 27.2568C27.8559 26.9265 27.8559 26.3924 28.1862 26.0621C29.8022 24.4461 30.6929 22.2923 30.6929 19.9997C30.6929 17.707 29.8023 15.5533 28.1862 13.9372C27.8559 13.6069 27.8559 13.0729 28.1862 12.7426C28.5157 12.4133 29.0506 12.4133 29.3809 12.7427Z" fill="url(#paint1_linear_184_8)"></path>
  <path d="M24.4398 8.36608V31.6341C24.4398 32.5078 23.9612 33.3074 23.1907 33.7194C22.8397 33.9071 22.4569 34 22.0739 34C21.616 34 21.159 33.8668 20.762 33.6021L10.5966 26.8246H6.74242C5.75425 26.8246 4.94155 26.0616 4.86078 25.0941H4.31646C2.48744 25.094 1 23.6066 1 21.7775V18.2227C1 16.3937 2.48744 14.9062 4.31653 14.9062H4.86086C4.94155 13.9386 5.75425 13.1757 6.74249 13.1757H10.5968L20.7621 6.3982C21.4894 5.91301 22.4204 5.86796 23.1908 6.2809C23.9611 6.69281 24.4398 7.49232 24.4398 8.36608ZM22.5628 31.6341V8.36608C22.5628 8.10141 22.3826 7.97663 22.3048 7.93535C22.2269 7.89408 22.0232 7.81339 21.8036 7.95973L11.8185 14.6162V25.3841L21.8036 32.0406C22.0233 32.187 22.2269 32.1063 22.3048 32.0649C22.3827 32.0235 22.5628 31.8987 22.5628 31.6341ZM9.94158 24.9476V15.0525H6.74242C6.73493 15.0525 6.7293 15.0581 6.7293 15.0647V24.9354C6.7293 24.942 6.73493 24.9476 6.74242 24.9476L9.94158 24.9476ZM4.85233 23.2171V16.7831H4.31646C3.5225 16.7831 2.87689 17.4287 2.87689 18.2226V21.7775C2.87689 22.5714 3.52258 23.217 4.31646 23.217H4.85233V23.2171Z" fill="url(#paint2_linear_184_8)"></path>
  <path d="M22.5632 8.36593V31.634C22.5632 31.8987 22.383 32.0234 22.3051 32.0647C22.2273 32.106 22.0236 32.1867 21.804 32.0403L11.8188 25.3838V14.616L21.804 7.95957C22.0236 7.81316 22.2273 7.89385 22.3051 7.9352C22.383 7.97654 22.5632 8.10125 22.5632 8.36593Z" fill="white"></path>
  <path d="M9.94128 15.0522V24.9473H6.74212C6.73464 24.9473 6.729 24.9417 6.729 24.9351V15.0645C6.729 15.0579 6.73464 15.0522 6.74212 15.0522H9.94128Z" fill="white"></path>
  <path d="M4.8524 16.7827V23.2168H4.31652C3.52257 23.2168 2.87695 22.5711 2.87695 21.7772V18.2224C2.87695 17.4284 3.52264 16.7828 4.31652 16.7828H4.8524V16.7827Z" fill="white"></path>
  <defs>
    <linearGradient id="paint0_linear_184_8" x1="32.8278" y1="10.4138" x2="42.5952" y2="13.3179" gradientUnits="userSpaceOnUse">
      <stop stop-color="#BC0D2C"></stop>
      <stop offset="1" stop-color="#E65F1E"></stop>
    </linearGradient>
    <linearGradient id="paint1_linear_184_8" x1="28.1139" y1="14.0754" x2="34.7864" y2="16.318" gradientUnits="userSpaceOnUse">
      <stop stop-color="#BC0D2C"></stop>
      <stop offset="1" stop-color="#E65F1E"></stop>
    </linearGradient>
    <linearGradient id="paint2_linear_184_8" x1="1.92526" y1="8.94737" x2="22.5103" y2="28.5086" gradientUnits="userSpaceOnUse">
      <stop stop-color="#BC0D2C"></stop>
      <stop offset="1" stop-color="#E65F1E"></stop>
    </linearGradient>
  </defs>
</svg>
