<?xml version="1.0" encoding="UTF-8"?>
<svg xmlns="http://www.w3.org/2000/svg" width="43" height="43" viewBox="0 0 43 43" fill="none">
  <path d="M37.6326 9H6.36742C5.06207 9 4 10.0621 4 11.3674V33.0125C4 34.3179 5.06207 35.3799 6.36742 35.3799H37.6326C38.938 35.3799 40 34.3178 40 33.0125V11.3674C40 10.0621 38.9379 9 37.6326 9ZM12.4175 34.2526H6.36742C5.68363 34.2526 5.12732 33.6963 5.12732 33.0125V11.3674C5.12732 10.6836 5.68363 10.1273 6.36742 10.1273H12.4175V34.2526ZM38.8727 33.0125C38.8727 33.6963 38.3163 34.2526 37.6326 34.2526H13.5449V10.1274H37.6326C38.3163 10.1274 38.8727 10.6837 38.8727 11.3675V33.0125Z" fill="url(#paint0_linear_184_24)"></path>
  <defs>
    <linearGradient id="paint0_linear_184_24" x1="5.42105" y1="11.7768" x2="23.1181" y2="39.1911" gradientUnits="userSpaceOnUse">
      <stop stop-color="#BC0D2C"></stop>
      <stop offset="1" stop-color="#E65F1E"></stop>
    </linearGradient>
  </defs>
</svg>
