<?xml version="1.0" encoding="UTF-8"?>
<svg xmlns="http://www.w3.org/2000/svg" width="49" height="43" viewBox="0 0 49 43" fill="none">
  <path d="M44.2511 18.4988C44.4919 17.729 44.5856 16.9324 44.5298 16.1193C44.2666 12.3002 40.4569 9.16828 36.0381 9.13766C32.9269 9.15542 30.1062 10.5942 28.5833 12.8283V5.95282C28.5834 2.55933 22.4394 0 14.2916 0C6.14383 0 0 2.55933 0 5.95282V27.1925C0 30.4423 5.6389 32.9206 13.2708 33.1257V35.9605C11.8429 36.2863 10.7246 37.2678 10.3533 38.5208H2.04166V40.3125H10.3533C10.8098 41.8536 12.3946 43 14.2916 43C16.1887 43 17.7734 41.8536 18.23 40.3125H26.5416V38.5208H18.23C17.8588 37.2678 16.7404 36.2864 15.3125 35.9605V33.1227C18.9315 33.0126 22.452 32.3287 24.9562 31.2356C26.4603 31.1759 27.4706 30.835 28.7094 29.9273C29.476 30.5244 30.8223 31.2422 32.863 31.2422C35.1678 31.2422 36.6597 30.3735 37.4218 29.7646C41.1263 31.0839 43.7741 30.342 45.3727 29.4484C47.8649 28.0574 48.9999 25.6621 48.9999 24.0257C49 21.4186 47.0311 19.2079 44.2511 18.4988ZM14.2916 1.79166C21.5107 1.79166 26.5416 3.98444 26.5416 5.95282C26.5416 7.9212 21.5107 10.114 14.2916 10.114C7.07255 10.114 2.04166 7.9212 2.04166 5.95282C2.04166 3.98444 7.07255 1.79166 14.2916 1.79166ZM2.04166 9.09505C4.49644 10.8047 8.9578 11.9056 14.2916 11.9056C19.6255 11.9056 24.0868 10.8047 26.5416 9.09505V12.8803C25.637 12.596 24.6663 12.4626 23.677 12.5465C21.2002 12.7542 19.0404 14.2301 18.1746 16.3056C18.0821 16.5274 18.0076 16.7507 17.9483 16.975C16.7643 17.1098 15.5447 17.194 14.2916 17.194C7.07255 17.194 2.04166 15.0012 2.04166 13.0329V9.09505ZM14.3048 24.2739C14.3004 24.2739 14.296 24.2741 14.2916 24.2741C7.07255 24.2741 2.04166 22.0814 2.04166 20.113V16.1751C4.49644 17.8847 8.9578 18.9857 14.2916 18.9857C15.5008 18.9857 16.68 18.9067 17.8348 18.789C17.8408 18.8356 17.8397 18.8818 17.8471 18.9284C15.6893 19.9148 14.2916 21.8766 14.2916 24.0256C14.2917 24.1098 14.3009 24.1909 14.3048 24.2739ZM16.3334 39.4166C16.3334 40.4047 15.4177 41.2083 14.2917 41.2083C13.1657 41.2083 12.2501 40.4047 12.2501 39.4166C12.2501 38.4285 13.1657 37.6249 14.2917 37.6249C15.4177 37.6249 16.3334 38.4285 16.3334 39.4166ZM14.2916 31.3541C7.07255 31.3541 2.04166 29.1609 2.04166 27.1925V23.2551C4.49644 24.9647 8.9578 26.0657 14.2916 26.0657C14.4335 26.0657 14.5719 26.0604 14.7126 26.0588C15.5833 28.0562 17.7423 29.41 20.5133 29.5502C20.809 29.9222 21.1858 30.2164 21.5929 30.4567C19.428 31.0218 16.8399 31.3541 14.2916 31.3541ZM44.2772 27.937C42.4668 28.9479 40.1609 28.9295 37.6084 27.8814L36.8687 27.5779L36.3687 28.1443C36.2506 28.2782 35.1495 29.4505 32.8631 29.4505C30.6146 29.4505 29.678 28.2358 29.6461 28.1933L28.9811 27.2564L28.073 28.0197C26.5118 29.3324 25.8364 29.4561 24.4392 29.4561C23.8097 29.4561 22.4599 29.1167 22.0417 28.2996L21.771 27.7708H20.9939C18.2061 27.7708 16.3334 26.2656 16.3334 24.0256C16.3334 22.3682 17.5496 20.8705 19.3595 20.2988L20.2527 20.0167L19.9965 19.214C19.7453 18.4271 19.7762 17.6778 20.0917 16.9219C20.6889 15.4898 22.1728 14.4728 23.8715 14.3302C24.0195 14.3176 24.1676 14.3114 24.3146 14.3114C25.6649 14.3114 26.946 14.8289 27.8068 15.7379L29.1372 17.1424L29.5883 15.3595C30.2437 12.7713 32.9204 10.9381 36.0223 10.9293C39.3898 10.9525 42.2923 13.3294 42.4922 16.2273C42.5535 17.1249 42.3746 17.9958 41.9594 18.8164L41.3836 19.9546L42.7963 20.0718C45.1689 20.2686 46.9583 21.9684 46.9583 24.0256C46.9583 25.1961 46.0187 26.9646 44.2772 27.937Z" fill="white"></path>
</svg>
