<?xml version="1.0" encoding="UTF-8"?>
<svg xmlns="http://www.w3.org/2000/svg" width="43" height="43" viewBox="0 0 43 43" fill="none">
  <path d="M15.2957 6.43061C15.2156 6.1837 15.0161 5.99362 14.7654 5.92512L11.6072 5.06283L9.81106 2.32576C9.52651 1.89141 8.80686 1.89141 8.52232 2.32576L6.72659 5.06283L3.56797 5.92512C3.3173 5.99362 3.11782 6.1837 3.03765 6.43061C2.95748 6.67789 3.00716 6.94851 3.16938 7.151L5.21804 9.70515L5.06184 12.9752C5.04942 13.2349 5.16873 13.4829 5.37876 13.6357C5.51237 13.7328 5.67158 13.7829 5.83192 13.7829C5.92376 13.7829 6.01635 13.7663 6.1048 13.7328L9.16669 12.5739L12.2289 13.7328C12.4717 13.825 12.745 13.7885 12.955 13.6357C13.165 13.4829 13.2843 13.2349 13.2719 12.9752L13.1157 9.70515L15.164 7.151C15.3262 6.94851 15.3759 6.67751 15.2957 6.43061ZM11.7302 8.96819C11.6128 9.1146 11.553 9.29941 11.5616 9.48722L11.6757 11.8754L9.43956 11.0289C9.35149 10.9954 9.25928 10.9788 9.16669 10.9788C9.0741 10.9788 8.98188 10.9954 8.89381 11.0289L6.65809 11.875L6.77213 9.48722C6.78116 9.29941 6.72094 9.1146 6.60351 8.96819L5.10738 7.1032L7.41387 6.47351C7.59528 6.42383 7.75223 6.30979 7.85536 6.15246L9.16669 4.15386L10.4784 6.15246C10.5815 6.30979 10.7385 6.42383 10.9199 6.47351L13.226 7.1032L11.7302 8.96819Z" fill="url(#paint0_linear_184_26)"></path>
  <path d="M31.5207 5.83179H18.4165V7.37346H31.5207V5.83179Z" fill="url(#paint1_linear_184_26)"></path>
  <path d="M39.9999 9.68604H18.4165V11.2277H39.9999V9.68604Z" fill="url(#paint2_linear_184_26)"></path>
  <path d="M15.2957 19.0279C15.2152 18.781 15.0161 18.5909 14.7654 18.5224L11.6072 17.6605L9.81106 14.9234C9.52651 14.4891 8.80686 14.4891 8.52232 14.9234L6.72659 17.6605L3.56797 18.5224C3.3173 18.5909 3.11819 18.781 3.03765 19.0279C2.95748 19.2748 3.00716 19.5458 3.16938 19.7483L5.21804 22.3024L5.06184 25.5725C5.04942 25.8322 5.16873 26.0802 5.37876 26.233C5.5884 26.3851 5.86166 26.4216 6.1048 26.3301L9.16669 25.1712L12.2289 26.3301C12.3174 26.3636 12.41 26.3802 12.5018 26.3802C12.6622 26.3802 12.8214 26.3301 12.955 26.233C13.165 26.0802 13.2843 25.8322 13.2719 25.5725L13.1157 22.3024L15.164 19.7483C15.3262 19.5458 15.3759 19.2748 15.2957 19.0279ZM11.7302 21.5655C11.6128 21.7119 11.553 21.8967 11.5616 22.0845L11.6757 24.4727L9.43956 23.6262C9.35149 23.5927 9.25928 23.5761 9.16669 23.5761C9.0741 23.5761 8.98188 23.5927 8.89381 23.6262L6.65809 24.4723L6.77213 22.0845C6.78116 21.8967 6.72094 21.7119 6.60351 21.5655L5.10738 19.7005L7.41387 19.0712C7.59528 19.0215 7.75223 18.9074 7.85536 18.7501L9.16669 16.7515L10.4784 18.7501C10.5815 18.9074 10.7385 19.0215 10.9199 19.0712L13.226 19.7005L11.7302 21.5655Z" fill="url(#paint3_linear_184_26)"></path>
  <path d="M31.5207 18.1653H18.4165V19.707H31.5207V18.1653Z" fill="url(#paint4_linear_184_26)"></path>
  <path d="M39.9999 22.0193H18.4165V23.561H39.9999V22.0193Z" fill="url(#paint5_linear_184_26)"></path>
  <path d="M15.2957 31.6254C15.2152 31.3785 15.0161 31.1884 14.7654 31.1199L11.6072 30.258L9.81106 27.5206C9.52651 27.0862 8.80686 27.0862 8.52232 27.5206L6.72659 30.258L3.56797 31.1199C3.3173 31.1884 3.11819 31.3785 3.03765 31.6254C2.95748 31.8723 3.00716 32.1433 3.16938 32.3458L5.21804 34.9L5.06184 38.17C5.04942 38.4297 5.16873 38.6777 5.37876 38.8306C5.5884 38.9834 5.86166 39.0191 6.1048 38.9277L9.16669 37.7688L12.2289 38.9277C12.3174 38.9612 12.41 38.9777 12.5018 38.9777C12.6622 38.9777 12.8214 38.9277 12.955 38.8306C13.165 38.6777 13.2843 38.4297 13.2719 38.17L13.1157 34.9L15.164 32.3458C15.3262 32.1433 15.3759 31.8723 15.2957 31.6254ZM11.7302 34.163C11.6128 34.3094 11.553 34.4942 11.5616 34.682L11.6757 37.0702L9.43956 36.2237C9.35149 36.1902 9.25928 36.1737 9.16669 36.1737C9.0741 36.1737 8.98188 36.1902 8.89381 36.2237L6.65809 37.0698L6.77213 34.682C6.78116 34.4942 6.72094 34.3094 6.60351 34.163L5.10738 32.298L7.41387 31.6687C7.59528 31.619 7.75223 31.505 7.85536 31.3477L9.16669 29.3487L10.4784 31.3477C10.5815 31.505 10.7385 31.619 10.9199 31.6687L13.226 32.298L11.7302 34.163Z" fill="url(#paint6_linear_184_26)"></path>
  <path d="M31.5207 31.2693H18.4165V32.811H31.5207V31.2693Z" fill="url(#paint7_linear_184_26)"></path>
  <path d="M39.9999 35.1235H18.4165V36.6652H39.9999V35.1235Z" fill="url(#paint8_linear_184_26)"></path>
  <defs>
    <linearGradient id="paint0_linear_184_26" x1="3.48684" y1="3.24031" x2="12.0334" y2="13.395" gradientUnits="userSpaceOnUse">
      <stop stop-color="#BC0D2C"></stop>
      <stop offset="1" stop-color="#E65F1E"></stop>
    </linearGradient>
    <linearGradient id="paint1_linear_184_26" x1="18.9338" y1="5.99407" x2="19.1665" y2="8.23971" gradientUnits="userSpaceOnUse">
      <stop stop-color="#BC0D2C"></stop>
      <stop offset="1" stop-color="#E65F1E"></stop>
    </linearGradient>
    <linearGradient id="paint2_linear_184_26" x1="19.2685" y1="9.84832" x2="19.4107" y2="12.1091" gradientUnits="userSpaceOnUse">
      <stop stop-color="#BC0D2C"></stop>
      <stop offset="1" stop-color="#E65F1E"></stop>
    </linearGradient>
    <linearGradient id="paint3_linear_184_26" x1="3.48684" y1="15.8379" x2="12.033" y2="25.9925" gradientUnits="userSpaceOnUse">
      <stop stop-color="#BC0D2C"></stop>
      <stop offset="1" stop-color="#E65F1E"></stop>
    </linearGradient>
    <linearGradient id="paint4_linear_184_26" x1="18.9338" y1="18.3276" x2="19.1665" y2="20.5732" gradientUnits="userSpaceOnUse">
      <stop stop-color="#BC0D2C"></stop>
      <stop offset="1" stop-color="#E65F1E"></stop>
    </linearGradient>
    <linearGradient id="paint5_linear_184_26" x1="19.2685" y1="22.1816" x2="19.4107" y2="24.4424" gradientUnits="userSpaceOnUse">
      <stop stop-color="#BC0D2C"></stop>
      <stop offset="1" stop-color="#E65F1E"></stop>
    </linearGradient>
    <linearGradient id="paint6_linear_184_26" x1="3.48684" y1="28.4351" x2="12.0333" y2="38.5898" gradientUnits="userSpaceOnUse">
      <stop stop-color="#BC0D2C"></stop>
      <stop offset="1" stop-color="#E65F1E"></stop>
    </linearGradient>
    <linearGradient id="paint7_linear_184_26" x1="18.9338" y1="31.4316" x2="19.1665" y2="33.6772" gradientUnits="userSpaceOnUse">
      <stop stop-color="#BC0D2C"></stop>
      <stop offset="1" stop-color="#E65F1E"></stop>
    </linearGradient>
    <linearGradient id="paint8_linear_184_26" x1="19.2685" y1="35.2858" x2="19.4107" y2="37.5466" gradientUnits="userSpaceOnUse">
      <stop stop-color="#BC0D2C"></stop>
      <stop offset="1" stop-color="#E65F1E"></stop>
    </linearGradient>
  </defs>
</svg>
