<?xml version="1.0" encoding="UTF-8"?>
<svg xmlns="http://www.w3.org/2000/svg" width="52" height="44" viewBox="0 0 52 44" fill="none">
  <path d="M47.6369 5.55743H33.7013C33.6335 2.90609 31.7159 0.771484 29.3555 0.771484H4.35999C1.95546 0.771484 0 2.98093 0 5.70176V24.2415C0 26.9623 1.95546 29.1735 4.35999 29.1735H6.39581L13.7024 38.7116C13.9482 39.0341 14.3043 39.2141 14.6777 39.2141C14.8259 39.2141 14.9771 39.1855 15.13 39.1232C15.631 38.9111 15.9682 38.3606 15.9682 37.7548V29.1735H18.2971C18.3649 31.8231 20.2825 33.9613 22.643 33.9613H36.0333V42.5407C36.0333 43.1465 36.3705 43.6953 36.8748 43.9109C37.0245 43.9715 37.1741 44 37.3223 44C37.6941 44 38.0518 43.8183 38.2976 43.4993L45.6042 33.9613H47.6384C50.043 33.9613 52 31.75 52 29.0292V10.4877C51.9984 7.76687 50.043 5.55743 47.6369 5.55743ZM18.2814 10.4877V26.2532H14.6762C13.9639 26.2532 13.3857 26.9089 13.3857 27.7125V33.8419L7.96049 26.7539C7.7131 26.4367 7.35857 26.2514 6.94258 26.2514H4.36156C3.3799 26.2514 2.58259 25.3516 2.58259 24.2397V5.70176C2.58259 4.59347 3.38147 3.68831 4.36156 3.68831H29.3586C30.2946 3.68831 31.0415 4.51863 31.1092 5.55743H22.6414C20.2368 5.55743 18.2814 7.76687 18.2814 10.4877ZM49.4174 29.0292C49.4174 30.1393 48.6185 31.0409 47.6369 31.0409H45.0149C44.643 31.0409 44.2853 31.2226 44.0364 31.5434L38.6128 38.6296V32.5002C38.6128 31.6966 38.0329 31.0427 37.3223 31.0427H22.6414C21.6613 31.0427 20.864 30.1411 20.864 29.031V10.4877C20.864 9.37763 21.6613 8.47425 22.6414 8.47425H47.6384C48.6201 8.47425 49.419 9.37763 49.419 10.4877L49.4174 29.0292Z" fill="white"></path>
  <path d="M46.2328 12.9468H24.0469C23.3346 12.9468 22.7563 13.6007 22.7563 14.4043C22.7563 15.2079 23.3346 15.8636 24.0469 15.8636H46.2328C46.9451 15.8636 47.5249 15.2079 47.5249 14.4043C47.5249 13.6007 46.9451 12.9468 46.2328 12.9468Z" fill="white"></path>
  <path d="M46.2328 18.2979H24.0469C23.3346 18.2979 22.7563 18.9518 22.7563 19.7572C22.7563 20.5608 23.3346 21.2165 24.0469 21.2165H46.2328C46.9451 21.2165 47.5249 20.5608 47.5249 19.7572C47.5249 18.9518 46.9451 18.2979 46.2328 18.2979Z" fill="white"></path>
  <path d="M34.549 23.6504H24.0469C23.3346 23.6504 22.7563 24.3043 22.7563 25.1079C22.7563 25.9115 23.3346 26.5672 24.0469 26.5672H34.549C35.2596 26.5672 35.8379 25.9115 35.8379 25.1079C35.8379 24.3043 35.2596 23.6504 34.549 23.6504Z" fill="white"></path>
</svg>
