<?xml version="1.0" encoding="UTF-8"?>
<svg xmlns="http://www.w3.org/2000/svg" width="45" height="45" viewBox="0 0 45 45" fill="none">
  <path d="M25.887 37.4194H21.1128V38.613H25.887V37.4194Z" fill="url(#paint0_linear_184_22)"></path>
  <path d="M40.2097 11.1613H34.2419V6.98387C34.2419 5.33856 32.9034 4 31.2581 4H15.7419C14.0966 4 12.7581 5.33856 12.7581 6.98387V19.5161H6.79032C5.80326 19.5161 5 20.3194 5 21.3065V28.4677C5 29.4548 5.80326 30.2581 6.79032 30.2581H10.7965L12.7581 31.4838V38.0161C12.7581 39.6614 14.0966 41 15.7419 41H31.2581C32.9034 41 34.2419 39.6614 34.2419 38.0161V23.129L36.2035 21.9032H40.2097C41.1967 21.9032 42 21.1 42 20.1129V12.9516C42 11.9645 41.1967 11.1613 40.2097 11.1613ZM15.7419 5.19355H31.2581C32.2451 5.19355 33.0484 5.99681 33.0484 6.98387V7.58065H13.9516V6.98387C13.9516 5.99681 14.7549 5.19355 15.7419 5.19355ZM6.79032 29.0645C6.4615 29.0645 6.19355 28.7966 6.19355 28.4677V21.3065C6.19355 20.9776 6.4615 20.7097 6.79032 20.7097H21.1129C21.4417 20.7097 21.7097 20.9776 21.7097 21.3065V28.4677C21.7097 28.7966 21.4417 29.0645 21.1129 29.0645H15.1452V31.5686L11.139 29.0645H6.79032ZM31.2581 39.8065H15.7419C14.7549 39.8065 13.9516 39.0032 13.9516 38.0161V36.2258H33.0484V38.0161C33.0484 39.0032 32.2451 39.8065 31.2581 39.8065ZM33.0484 35.0323H13.9516V32.2298L16.3387 33.7217V30.2581H21.1129C22.1 30.2581 22.9032 29.4548 22.9032 28.4677V21.3065C22.9032 20.3194 22.1 19.5161 21.1129 19.5161H13.9516V8.77419H33.0484V11.1613H25.8871C24.9 11.1613 24.0968 11.9645 24.0968 12.9516V20.1129C24.0968 21.1 24.9 21.9032 25.8871 21.9032H30.6613V25.3669L33.0484 23.875V35.0323ZM40.8065 20.1129C40.8065 20.4417 40.5385 20.7097 40.2097 20.7097H35.861L31.8548 23.2137V20.7097H25.8871C25.5583 20.7097 25.2903 20.4417 25.2903 20.1129V12.9516C25.2903 12.6228 25.5583 12.3548 25.8871 12.3548H40.2097C40.5385 12.3548 40.8065 12.6228 40.8065 12.9516V20.1129Z" fill="url(#paint1_linear_184_22)"></path>
  <path d="M9.17753 23.0969C9.50635 23.0969 9.7743 23.3648 9.7743 23.6936H10.9679C10.9679 22.7066 10.1646 21.9033 9.17753 21.9033C8.19047 21.9033 7.38721 22.7066 7.38721 23.6936C7.38721 24.6807 8.19047 25.484 9.17753 25.484C9.50635 25.484 9.7743 25.7519 9.7743 26.0807C9.7743 26.4096 9.50635 26.6775 9.17753 26.6775C8.84871 26.6775 8.58076 26.4096 8.58076 26.0807H7.38721C7.38721 27.0678 8.19047 27.8711 9.17753 27.8711C10.1646 27.8711 10.9679 27.0678 10.9679 26.0807C10.9679 25.0937 10.1646 24.2904 9.17753 24.2904C8.84871 24.2904 8.58076 24.0225 8.58076 23.6936C8.58076 23.3648 8.84871 23.0969 9.17753 23.0969Z" fill="url(#paint2_linear_184_22)"></path>
  <path d="M18.7254 26.6775C18.3966 26.6775 18.1286 26.4096 18.1286 26.0807H16.9351C16.9351 27.0678 17.7383 27.8711 18.7254 27.8711C19.7124 27.8711 20.5157 27.0678 20.5157 26.0807C20.5157 25.0937 19.7124 24.2904 18.7254 24.2904C18.3966 24.2904 18.1286 24.0225 18.1286 23.6936C18.1286 23.3648 18.3966 23.0969 18.7254 23.0969C19.0542 23.0969 19.3222 23.3648 19.3222 23.6936H20.5157C20.5157 22.7066 19.7124 21.9033 18.7254 21.9033C17.7383 21.9033 16.9351 22.7066 16.9351 23.6936C16.9351 24.6807 17.7383 25.484 18.7254 25.484C19.0542 25.484 19.3222 25.7519 19.3222 26.0807C19.3222 26.4096 19.0542 26.6775 18.7254 26.6775Z" fill="url(#paint3_linear_184_22)"></path>
  <path d="M16.3391 24.8872C16.3391 23.2419 15.2685 21.9033 13.952 21.9033C12.6356 21.9033 11.5649 23.2419 11.5649 24.8872C11.5649 26.5325 12.6356 27.8711 13.952 27.8711C15.2685 27.8711 16.3391 26.5325 16.3391 24.8872ZM13.952 26.6775C13.3051 26.6775 12.7585 25.8575 12.7585 24.8872C12.7585 23.9168 13.3051 23.0969 13.952 23.0969C14.5989 23.0969 15.1456 23.9168 15.1456 24.8872C15.1456 25.8575 14.5989 26.6775 13.952 26.6775Z" fill="url(#paint4_linear_184_22)"></path>
  <path d="M39.6129 13.5483H26.4839V14.7419H39.6129V13.5483Z" fill="url(#paint5_linear_184_22)"></path>
  <path d="M37.2258 15.9355H26.4839V17.1291H37.2258V15.9355Z" fill="url(#paint6_linear_184_22)"></path>
  <path d="M39.6125 15.9355H38.4189V17.1291H39.6125V15.9355Z" fill="url(#paint7_linear_184_22)"></path>
  <path d="M33.6452 18.3225H32.4517V19.5161H33.6452V18.3225Z" fill="url(#paint8_linear_184_22)"></path>
  <path d="M37.2258 18.3225H36.0322V19.5161H37.2258V18.3225Z" fill="url(#paint9_linear_184_22)"></path>
  <path d="M30.0646 18.3225H28.8711V19.5161H30.0646V18.3225Z" fill="url(#paint10_linear_184_22)"></path>
  <defs>
    <linearGradient id="paint0_linear_184_22" x1="21.3012" y1="37.5451" x2="21.6704" y2="39.221" gradientUnits="userSpaceOnUse">
      <stop stop-color="#BC0D2C"></stop>
      <stop offset="1" stop-color="#E65F1E"></stop>
    </linearGradient>
    <linearGradient id="paint1_linear_184_22" x1="6.46053" y1="7.89474" x2="33.4803" y2="38.5658" gradientUnits="userSpaceOnUse">
      <stop stop-color="#BC0D2C"></stop>
      <stop offset="1" stop-color="#E65F1E"></stop>
    </linearGradient>
    <linearGradient id="paint2_linear_184_22" x1="7.52855" y1="22.5315" x2="11.6164" y2="25.3157" gradientUnits="userSpaceOnUse">
      <stop stop-color="#BC0D2C"></stop>
      <stop offset="1" stop-color="#E65F1E"></stop>
    </linearGradient>
    <linearGradient id="paint3_linear_184_22" x1="17.0764" y1="22.5315" x2="21.1642" y2="25.3157" gradientUnits="userSpaceOnUse">
      <stop stop-color="#BC0D2C"></stop>
      <stop offset="1" stop-color="#E65F1E"></stop>
    </linearGradient>
    <linearGradient id="paint4_linear_184_22" x1="11.7534" y1="22.5315" x2="16.1261" y2="26.5024" gradientUnits="userSpaceOnUse">
      <stop stop-color="#BC0D2C"></stop>
      <stop offset="1" stop-color="#E65F1E"></stop>
    </linearGradient>
    <linearGradient id="paint5_linear_184_22" x1="27.0021" y1="13.674" x2="27.142" y2="15.42" gradientUnits="userSpaceOnUse">
      <stop stop-color="#BC0D2C"></stop>
      <stop offset="1" stop-color="#E65F1E"></stop>
    </linearGradient>
    <linearGradient id="paint6_linear_184_22" x1="26.9079" y1="16.0612" x2="27.0783" y2="17.8017" gradientUnits="userSpaceOnUse">
      <stop stop-color="#BC0D2C"></stop>
      <stop offset="1" stop-color="#E65F1E"></stop>
    </linearGradient>
    <linearGradient id="paint7_linear_184_22" x1="38.4661" y1="16.0612" x2="39.3377" y2="17.0506" gradientUnits="userSpaceOnUse">
      <stop stop-color="#BC0D2C"></stop>
      <stop offset="1" stop-color="#E65F1E"></stop>
    </linearGradient>
    <linearGradient id="paint8_linear_184_22" x1="32.4988" y1="18.4481" x2="33.3704" y2="19.4375" gradientUnits="userSpaceOnUse">
      <stop stop-color="#BC0D2C"></stop>
      <stop offset="1" stop-color="#E65F1E"></stop>
    </linearGradient>
    <linearGradient id="paint9_linear_184_22" x1="36.0793" y1="18.4481" x2="36.9509" y2="19.4375" gradientUnits="userSpaceOnUse">
      <stop stop-color="#BC0D2C"></stop>
      <stop offset="1" stop-color="#E65F1E"></stop>
    </linearGradient>
    <linearGradient id="paint10_linear_184_22" x1="28.9182" y1="18.4481" x2="29.7898" y2="19.4375" gradientUnits="userSpaceOnUse">
      <stop stop-color="#BC0D2C"></stop>
      <stop offset="1" stop-color="#E65F1E"></stop>
    </linearGradient>
  </defs>
</svg>
