<?xml version="1.0" encoding="UTF-8"?>
<svg xmlns="http://www.w3.org/2000/svg" width="35" height="34" viewBox="0 0 35 34" fill="none">
  <path d="M30.0501 30.8766C31.3957 30.8766 32.4903 29.7819 32.4903 28.4363C32.4903 27.0908 31.3957 25.9961 30.0501 25.9961C28.7046 25.9961 27.6099 27.0908 27.6099 28.4363C27.6099 29.7819 28.7046 30.8766 30.0501 30.8766ZM30.0501 27.3905C30.6268 27.3905 31.0959 27.8597 31.0959 28.4363C31.0959 29.013 30.6268 29.4821 30.0501 29.4821C29.4734 29.4821 29.0043 29.013 29.0043 28.4363C29.0043 27.8597 29.4734 27.3905 30.0501 27.3905Z" fill="url(#paint0_linear_46_1586)"></path>
  <path d="M23.9143 30.249C24.9138 30.249 25.7271 29.4358 25.7271 28.4363C25.7271 27.4368 24.9138 26.6235 23.9143 26.6235C22.9148 26.6235 22.1016 27.4368 22.1016 28.4363C22.1016 29.4358 22.9148 30.249 23.9143 30.249ZM23.9143 28.018C24.145 28.018 24.3326 28.2056 24.3326 28.4363C24.3326 28.667 24.145 28.8546 23.9143 28.8546C23.6836 28.8546 23.496 28.667 23.496 28.4363C23.496 28.2056 23.6836 28.018 23.9143 28.018Z" fill="url(#paint1_linear_46_1586)"></path>
  <path d="M4.18354 29.1332H19.313C19.6981 29.1332 20.0102 28.8211 20.0102 28.436C20.0102 28.0509 19.6981 27.7388 19.313 27.7388H4.18354C3.79847 27.7388 3.48633 28.0509 3.48633 28.436C3.48633 28.8211 3.79847 29.1332 4.18354 29.1332Z" fill="url(#paint2_linear_46_1586)"></path>
  <path d="M34.3028 11.8427H31.7231V11.5881C31.7231 11.203 31.411 10.8909 31.0259 10.8909C30.6408 10.8909 30.3287 11.203 30.3287 11.5881V11.8427H4.53187V11.5881C4.53187 11.203 4.21973 10.8909 3.83466 10.8909C3.44959 10.8909 3.13745 11.203 3.13745 11.5881V11.8427H0.697211C0.312141 11.8427 0 12.1548 0 12.5399V21.0459C0 21.431 0.312141 21.7431 0.697211 21.7431H3.13745V23.4861H0.697211C0.312141 23.4861 0 23.7983 0 24.1833V32.6893C0 33.0744 0.312141 33.3865 0.697211 33.3865H34.3028C34.6879 33.3865 35 33.0744 35 32.6893V24.1833C35 23.7983 34.6879 23.4861 34.3028 23.4861H31.7231V21.7431H34.3028C34.6879 21.7431 35 21.431 35 21.0459V12.5399C35 12.1548 34.6879 11.8427 34.3028 11.8427ZM33.6056 24.8806V31.9921H1.39442V24.8806H33.6056ZM4.53187 23.4861V21.7431H30.3287V23.4861H4.53187ZM33.6056 20.3487H1.39442V13.2371H33.6056V20.3487Z" fill="url(#paint3_linear_46_1586)"></path>
  <path d="M30.0501 19.2333C31.3957 19.2333 32.4903 18.1386 32.4903 16.793C32.4903 15.4475 31.3957 14.3528 30.0501 14.3528C28.7046 14.3528 27.6099 15.4475 27.6099 16.793C27.6099 18.1386 28.7046 19.2333 30.0501 19.2333ZM30.0501 15.7472C30.6268 15.7472 31.0959 16.2164 31.0959 16.793C31.0959 17.3697 30.6268 17.8388 30.0501 17.8388C29.4734 17.8388 29.0043 17.3697 29.0043 16.793C29.0043 16.2164 29.4734 15.7472 30.0501 15.7472Z" fill="url(#paint4_linear_46_1586)"></path>
  <path d="M23.9143 18.6057C24.9138 18.6057 25.7271 17.7925 25.7271 16.793C25.7271 15.7935 24.9138 14.9802 23.9143 14.9802C22.9148 14.9802 22.1016 15.7935 22.1016 16.793C22.1016 17.7925 22.9148 18.6057 23.9143 18.6057ZM23.9143 16.3746C24.145 16.3746 24.3326 16.5623 24.3326 16.793C24.3326 17.0237 24.145 17.2113 23.9143 17.2113C23.6836 17.2113 23.496 17.0237 23.496 16.793C23.496 16.5623 23.6836 16.3746 23.9143 16.3746Z" fill="url(#paint5_linear_46_1586)"></path>
  <path d="M4.18354 17.4899H19.313C19.6981 17.4899 20.0102 17.1777 20.0102 16.7927C20.0102 16.4076 19.6981 16.0955 19.313 16.0955H4.18354C3.79847 16.0955 3.48633 16.4076 3.48633 16.7927C3.48633 17.1777 3.79847 17.4899 4.18354 17.4899Z" fill="url(#paint6_linear_46_1586)"></path>
  <path d="M34.3028 0.269043H0.697211C0.312141 0.269043 0 0.581184 0 0.966254V9.47223C0 9.8573 0.312141 10.1694 0.697211 10.1694H34.3028C34.6879 10.1694 35 9.8573 35 9.47223V0.966254C35 0.581184 34.6879 0.269043 34.3028 0.269043ZM33.6056 8.77502H1.39442V1.66347H33.6056V8.77502Z" fill="url(#paint7_linear_46_1586)"></path>
  <path d="M30.0501 7.65929C31.3957 7.65929 32.4903 6.5646 32.4903 5.21905C32.4903 3.8735 31.3957 2.77881 30.0501 2.77881C28.7046 2.77881 27.6099 3.8735 27.6099 5.21905C27.6099 6.5646 28.7046 7.65929 30.0501 7.65929ZM30.0501 4.17323C30.6268 4.17323 31.0959 4.64238 31.0959 5.21905C31.0959 5.79571 30.6268 6.26486 30.0501 6.26486C29.4734 6.26486 29.0043 5.79571 29.0043 5.21905C29.0043 4.64238 29.4734 4.17323 30.0501 4.17323Z" fill="url(#paint8_linear_46_1586)"></path>
  <path d="M23.9143 7.03175C24.9138 7.03175 25.7271 6.21852 25.7271 5.219C25.7271 4.21948 24.9138 3.40625 23.9143 3.40625C22.9148 3.40625 22.1016 4.21948 22.1016 5.219C22.1016 6.21852 22.9148 7.03175 23.9143 7.03175ZM23.9143 4.80067C24.145 4.80067 24.3326 4.98829 24.3326 5.219C24.3326 5.44971 24.145 5.63733 23.9143 5.63733C23.6836 5.63733 23.496 5.44971 23.496 5.219C23.496 4.98829 23.6836 4.80067 23.9143 4.80067Z" fill="url(#paint9_linear_46_1586)"></path>
  <path d="M4.18354 5.91639H14.6417C15.0268 5.91639 15.3389 5.60425 15.3389 5.21918C15.3389 4.83411 15.0268 4.52197 14.6417 4.52197H4.18354C3.79847 4.52197 3.48633 4.83411 3.48633 5.21918C3.48633 5.60425 3.79847 5.91639 4.18354 5.91639Z" fill="url(#paint10_linear_46_1586)"></path>
  <path d="M17.2206 5.91639H19.3123C19.6974 5.91639 20.0095 5.60425 20.0095 5.21918C20.0095 4.83411 19.6974 4.52197 19.3123 4.52197H17.2206C16.8356 4.52197 16.5234 4.83411 16.5234 5.21918C16.5234 5.60425 16.8356 5.91639 17.2206 5.91639Z" fill="url(#paint11_linear_46_1586)"></path>
  <defs>
    <linearGradient id="paint0_linear_46_1586" x1="27.8025" y1="26.5098" x2="31.3665" y2="30.5555" gradientUnits="userSpaceOnUse">
      <stop stop-color="#BC0D2C"></stop>
      <stop offset="1" stop-color="#E65F1E"></stop>
    </linearGradient>
    <linearGradient id="paint1_linear_46_1586" x1="22.2447" y1="27.0052" x2="24.8922" y2="30.0105" gradientUnits="userSpaceOnUse">
      <stop stop-color="#BC0D2C"></stop>
      <stop offset="1" stop-color="#E65F1E"></stop>
    </linearGradient>
    <linearGradient id="paint2_linear_46_1586" x1="4.13859" y1="27.8856" x2="4.29037" y2="29.9272" gradientUnits="userSpaceOnUse">
      <stop stop-color="#BC0D2C"></stop>
      <stop offset="1" stop-color="#E65F1E"></stop>
    </linearGradient>
    <linearGradient id="paint3_linear_46_1586" x1="1.38158" y1="13.2588" x2="15.5819" y2="38.3381" gradientUnits="userSpaceOnUse">
      <stop stop-color="#BC0D2C"></stop>
      <stop offset="1" stop-color="#E65F1E"></stop>
    </linearGradient>
    <linearGradient id="paint4_linear_46_1586" x1="27.8025" y1="14.8665" x2="31.3665" y2="18.9122" gradientUnits="userSpaceOnUse">
      <stop stop-color="#BC0D2C"></stop>
      <stop offset="1" stop-color="#E65F1E"></stop>
    </linearGradient>
    <linearGradient id="paint5_linear_46_1586" x1="22.2447" y1="15.3619" x2="24.8922" y2="18.3672" gradientUnits="userSpaceOnUse">
      <stop stop-color="#BC0D2C"></stop>
      <stop offset="1" stop-color="#E65F1E"></stop>
    </linearGradient>
    <linearGradient id="paint6_linear_46_1586" x1="4.13859" y1="16.2422" x2="4.29037" y2="18.2839" gradientUnits="userSpaceOnUse">
      <stop stop-color="#BC0D2C"></stop>
      <stop offset="1" stop-color="#E65F1E"></stop>
    </linearGradient>
    <linearGradient id="paint7_linear_46_1586" x1="1.38158" y1="1.31119" x2="4.80148" y2="15.0351" gradientUnits="userSpaceOnUse">
      <stop stop-color="#BC0D2C"></stop>
      <stop offset="1" stop-color="#E65F1E"></stop>
    </linearGradient>
    <linearGradient id="paint8_linear_46_1586" x1="27.8025" y1="3.29254" x2="31.3665" y2="7.3382" gradientUnits="userSpaceOnUse">
      <stop stop-color="#BC0D2C"></stop>
      <stop offset="1" stop-color="#E65F1E"></stop>
    </linearGradient>
    <linearGradient id="paint9_linear_46_1586" x1="22.2447" y1="3.78788" x2="24.8922" y2="6.79323" gradientUnits="userSpaceOnUse">
      <stop stop-color="#BC0D2C"></stop>
      <stop offset="1" stop-color="#E65F1E"></stop>
    </linearGradient>
    <linearGradient id="paint10_linear_46_1586" x1="3.95419" y1="4.66875" x2="4.16471" y2="6.69991" gradientUnits="userSpaceOnUse">
      <stop stop-color="#BC0D2C"></stop>
      <stop offset="1" stop-color="#E65F1E"></stop>
    </linearGradient>
    <linearGradient id="paint11_linear_46_1586" x1="16.661" y1="4.66875" x2="17.3046" y2="6.49496" gradientUnits="userSpaceOnUse">
      <stop stop-color="#BC0D2C"></stop>
      <stop offset="1" stop-color="#E65F1E"></stop>
    </linearGradient>
  </defs>
</svg>
