<?xml version="1.0" encoding="UTF-8"?>
<svg xmlns="http://www.w3.org/2000/svg" width="44" height="44" viewBox="0 0 44 44" fill="none">
  <path d="M27.1819 8.1815H15.5876L8.68965 3.16468C8.42797 2.97384 8.0799 2.94704 7.78971 3.09383C7.50042 3.24151 7.31817 3.53858 7.31817 3.86333V8.1815H5.59092C4.16243 8.1815 3 9.34393 3 10.7724V24.0146C3 25.3705 4.06487 26.3179 5.59092 26.3179H27.1819C28.708 26.3179 29.7728 25.3705 29.7728 24.0146V10.7724C29.7728 9.34401 28.6103 8.1815 27.1819 8.1815ZM28.0455 24.0146C28.0455 24.4904 27.5756 24.5907 27.1818 24.5907H5.59092C5.1971 24.5907 4.72725 24.4905 4.72725 24.0146V10.7724C4.72725 10.2966 5.115 9.90875 5.59092 9.90875H8.18183C8.65856 9.90875 9.0455 9.52181 9.0455 9.04508V5.55949L14.799 9.74382C14.9458 9.85094 15.1246 9.90875 15.3069 9.90875H27.1819C27.6586 9.90875 28.0456 10.2965 28.0456 10.7724V24.0146H28.0455Z" fill="url(#paint0_linear_184_20)"></path>
  <path d="M7.75005 18.5453C8.46551 18.5453 9.04551 17.9653 9.04551 17.2498C9.04551 16.5343 8.46551 15.9543 7.75005 15.9543C7.03459 15.9543 6.45459 16.5343 6.45459 17.2498C6.45459 17.9653 7.03459 18.5453 7.75005 18.5453Z" fill="url(#paint1_linear_184_20)"></path>
  <path d="M12.0679 18.5453C12.7834 18.5453 13.3634 17.9653 13.3634 17.2498C13.3634 16.5343 12.7834 15.9543 12.0679 15.9543C11.3525 15.9543 10.7725 16.5343 10.7725 17.2498C10.7725 17.9653 11.3525 18.5453 12.0679 18.5453Z" fill="url(#paint2_linear_184_20)"></path>
  <path d="M16.3863 18.5453C17.1017 18.5453 17.6817 17.9653 17.6817 17.2498C17.6817 16.5343 17.1017 15.9543 16.3863 15.9543C15.6708 15.9543 15.0908 16.5343 15.0908 17.2498C15.0908 17.9653 15.6708 18.5453 16.3863 18.5453Z" fill="url(#paint3_linear_184_20)"></path>
  <path d="M20.7046 18.5453C21.4201 18.5453 22.0001 17.9653 22.0001 17.2498C22.0001 16.5343 21.4201 15.9543 20.7046 15.9543C19.9892 15.9543 19.4092 16.5343 19.4092 17.2498C19.4092 17.9653 19.9892 18.5453 20.7046 18.5453Z" fill="url(#paint4_linear_184_20)"></path>
  <path d="M25.023 18.5453C25.7385 18.5453 26.3185 17.9653 26.3185 17.2498C26.3185 16.5343 25.7385 15.9543 25.023 15.9543C24.3075 15.9543 23.7275 16.5343 23.7275 17.2498C23.7275 17.9653 24.3075 18.5453 25.023 18.5453Z" fill="url(#paint5_linear_184_20)"></path>
  <path d="M38.4094 17.6816H32.3639C31.8863 17.6816 31.5003 18.0686 31.5003 18.5453C31.5003 19.022 31.8863 19.409 32.3639 19.409H38.4094C38.8033 19.409 39.2731 19.5091 39.2731 19.985V33.2272C39.2731 33.7031 38.8862 34.0909 38.4094 34.0909H35.8185C35.3409 34.0909 34.9549 34.4778 34.9549 34.9545V38.4402L29.2013 34.2559C29.0537 34.1488 28.8758 34.091 28.6935 34.091H16.8185C16.3427 34.091 15.9549 33.7032 15.9549 33.2273V28.9091C15.9549 28.4324 15.5679 28.0455 15.0912 28.0455C14.6145 28.0455 14.2275 28.4324 14.2275 28.9091V33.2273C14.2275 34.6558 15.39 35.8182 16.8185 35.8182H28.4128L35.3107 40.8351C35.461 40.9448 35.6398 41 35.8185 41C35.9524 41 36.0863 40.969 36.2107 40.9059C36.4999 40.7582 36.6822 40.4611 36.6822 40.1364V35.8182H38.4094C39.8379 35.8182 41.0004 34.6558 41.0004 33.2273V19.985C41.0004 18.629 39.9355 17.6816 38.4094 17.6816Z" fill="url(#paint6_linear_184_20)"></path>
  <path d="M33.6592 30.6361C34.3747 30.6361 34.9547 30.0561 34.9547 29.3406C34.9547 28.6252 34.3747 28.0452 33.6592 28.0452C32.9438 28.0452 32.3638 28.6252 32.3638 29.3406C32.3638 30.0561 32.9438 30.6361 33.6592 30.6361Z" fill="url(#paint7_linear_184_20)"></path>
  <path d="M27.6138 30.6361C28.3293 30.6361 28.9093 30.0561 28.9093 29.3406C28.9093 28.6252 28.3293 28.0452 27.6138 28.0452C26.8984 28.0452 26.3184 28.6252 26.3184 29.3406C26.3184 30.0561 26.8984 30.6361 27.6138 30.6361Z" fill="url(#paint8_linear_184_20)"></path>
  <path d="M21.5684 30.6361C22.2839 30.6361 22.8639 30.0561 22.8639 29.3406C22.8639 28.6252 22.2839 28.0452 21.5684 28.0452C20.8529 28.0452 20.2729 28.6252 20.2729 29.3406C20.2729 30.0561 20.8529 30.6361 21.5684 30.6361Z" fill="url(#paint9_linear_184_20)"></path>
  <defs>
    <linearGradient id="paint0_linear_184_20" x1="4.05682" y1="5.45452" x2="20.6368" y2="27.0636" gradientUnits="userSpaceOnUse">
      <stop stop-color="#BC0D2C"></stop>
      <stop offset="1" stop-color="#E65F1E"></stop>
    </linearGradient>
    <linearGradient id="paint1_linear_184_20" x1="6.55686" y1="16.2271" x2="8.44891" y2="18.3748" gradientUnits="userSpaceOnUse">
      <stop stop-color="#BC0D2C"></stop>
      <stop offset="1" stop-color="#E65F1E"></stop>
    </linearGradient>
    <linearGradient id="paint2_linear_184_20" x1="10.8747" y1="16.2271" x2="12.7668" y2="18.3748" gradientUnits="userSpaceOnUse">
      <stop stop-color="#BC0D2C"></stop>
      <stop offset="1" stop-color="#E65F1E"></stop>
    </linearGradient>
    <linearGradient id="paint3_linear_184_20" x1="15.1931" y1="16.2271" x2="17.0851" y2="18.3748" gradientUnits="userSpaceOnUse">
      <stop stop-color="#BC0D2C"></stop>
      <stop offset="1" stop-color="#E65F1E"></stop>
    </linearGradient>
    <linearGradient id="paint4_linear_184_20" x1="19.5115" y1="16.2271" x2="21.4035" y2="18.3748" gradientUnits="userSpaceOnUse">
      <stop stop-color="#BC0D2C"></stop>
      <stop offset="1" stop-color="#E65F1E"></stop>
    </linearGradient>
    <linearGradient id="paint5_linear_184_20" x1="23.8298" y1="16.2271" x2="25.7219" y2="18.3748" gradientUnits="userSpaceOnUse">
      <stop stop-color="#BC0D2C"></stop>
      <stop offset="1" stop-color="#E65F1E"></stop>
    </linearGradient>
    <linearGradient id="paint6_linear_184_20" x1="15.2844" y1="20.1362" x2="31.8648" y2="41.7454" gradientUnits="userSpaceOnUse">
      <stop stop-color="#BC0D2C"></stop>
      <stop offset="1" stop-color="#E65F1E"></stop>
    </linearGradient>
    <linearGradient id="paint7_linear_184_20" x1="32.466" y1="28.3179" x2="34.3581" y2="30.4656" gradientUnits="userSpaceOnUse">
      <stop stop-color="#BC0D2C"></stop>
      <stop offset="1" stop-color="#E65F1E"></stop>
    </linearGradient>
    <linearGradient id="paint8_linear_184_20" x1="26.4206" y1="28.3179" x2="28.3127" y2="30.4656" gradientUnits="userSpaceOnUse">
      <stop stop-color="#BC0D2C"></stop>
      <stop offset="1" stop-color="#E65F1E"></stop>
    </linearGradient>
    <linearGradient id="paint9_linear_184_20" x1="20.3752" y1="28.3179" x2="22.2673" y2="30.4656" gradientUnits="userSpaceOnUse">
      <stop stop-color="#BC0D2C"></stop>
      <stop offset="1" stop-color="#E65F1E"></stop>
    </linearGradient>
  </defs>
</svg>
