<?xml version="1.0" encoding="UTF-8"?>
<svg xmlns="http://www.w3.org/2000/svg" width="39" height="39" viewBox="0 0 39 39" fill="none">
  <path d="M4.29519 33.217C4.0997 33.217 3.90914 33.1381 3.77092 32.9998C3.63368 32.8626 3.55469 32.671 3.55469 32.4765C3.55469 32.282 3.63368 32.0905 3.77092 31.9532C3.90914 31.815 4.0997 31.736 4.29519 31.736C4.4897 31.736 4.68026 31.815 4.81849 31.9532C4.95671 32.0905 5.0357 32.282 5.0357 32.4765C5.0357 32.671 4.95671 32.8626 4.81849 32.9998C4.68026 33.1381 4.4897 33.217 4.29519 33.217Z" fill="url(#paint0_linear_46_1600)"></path>
  <path d="M7.18811 32.9998C7.04989 33.1381 6.85933 33.217 6.66482 33.217C6.46933 33.217 6.27877 33.1381 6.14054 32.9998C6.0033 32.8626 5.92432 32.671 5.92432 32.4765C5.92432 32.282 6.0033 32.0905 6.14054 31.9532C6.27877 31.815 6.46933 31.736 6.66482 31.736C6.85933 31.736 7.04989 31.815 7.18811 31.9532C7.32634 32.0905 7.40533 32.282 7.40533 32.4765C7.40533 32.671 7.32634 32.8626 7.18811 32.9998Z" fill="url(#paint1_linear_46_1600)"></path>
  <path d="M4.29519 20.0378C4.0997 20.0378 3.90914 19.9589 3.77092 19.8206C3.63368 19.6834 3.55469 19.4918 3.55469 19.2973C3.55469 19.1028 3.63368 18.9113 3.77092 18.774C3.90914 18.6358 4.0997 18.5568 4.29519 18.5568C4.4897 18.5568 4.68026 18.6358 4.81849 18.774C4.95671 18.9113 5.0357 19.1028 5.0357 19.2973C5.0357 19.4918 4.95671 19.6834 4.81849 19.8206C4.68026 19.9589 4.4897 20.0378 4.29519 20.0378Z" fill="url(#paint2_linear_46_1600)"></path>
  <path d="M7.18811 19.8206C7.04989 19.9589 6.85933 20.0378 6.66482 20.0378C6.46933 20.0378 6.27877 19.9589 6.14054 19.8206C6.0033 19.6834 5.92432 19.4918 5.92432 19.2973C5.92432 19.1018 6.0033 18.9113 6.14054 18.774C6.27877 18.6358 6.46933 18.5568 6.66482 18.5568C6.85933 18.5568 7.04989 18.6358 7.18811 18.774C7.32634 18.9113 7.40533 19.1018 7.40533 19.2973C7.40533 19.4918 7.32634 19.6834 7.18811 19.8206Z" fill="url(#paint3_linear_46_1600)"></path>
  <path d="M4.29519 6.85889C4.0997 6.85889 3.90914 6.7799 3.77092 6.64167C3.63368 6.50443 3.55469 6.31289 3.55469 6.11838C3.55469 5.92289 3.63368 5.73233 3.77092 5.59509C3.90914 5.45686 4.0997 5.37787 4.29519 5.37787C4.4897 5.37787 4.68026 5.45686 4.81849 5.59509C4.95671 5.73233 5.0357 5.92387 5.0357 6.11838C5.0357 6.31289 4.95671 6.50345 4.81849 6.64167C4.68026 6.7799 4.4897 6.85889 4.29519 6.85889Z" fill="url(#paint4_linear_46_1600)"></path>
  <path d="M7.18811 6.64167C7.04989 6.7799 6.85933 6.85889 6.66482 6.85889C6.46933 6.85889 6.27877 6.7799 6.14054 6.64167C6.0033 6.50345 5.92432 6.31289 5.92432 6.11838C5.92432 5.92387 6.0033 5.73233 6.14054 5.59509C6.27877 5.45686 6.46933 5.37787 6.66482 5.37787C6.85933 5.37787 7.04989 5.45686 7.18811 5.59509C7.32634 5.73233 7.40533 5.92289 7.40533 6.11838C7.40533 6.31289 7.32634 6.50443 7.18811 6.64167Z" fill="url(#paint5_linear_46_1600)"></path>
  <path d="M38.2595 26.6493C38.6685 26.6493 39 26.9809 39 27.3898V37.5632C39 37.9722 38.6685 38.3037 38.2595 38.3037H0.740506C0.331549 38.3037 0 37.9722 0 37.5632V27.3898C0 26.9809 0.331549 26.6493 0.740506 26.6493H2.89982V25.1246H0.740506C0.331549 25.1246 0 24.793 0 24.3841V14.2107C0 13.8017 0.331549 13.4702 0.740506 13.4702H2.89982V11.9454H0.740506C0.331549 11.9454 0 11.6139 0 11.2049V1.03156C0 0.622601 0.331549 0.291054 0.740506 0.291054H38.2595C38.6685 0.291054 39 0.622601 39 1.03156V11.2049C39 11.6139 38.6685 11.9454 38.2595 11.9454H36.1002V13.4702H38.2595C38.6685 13.4702 39 13.8017 39 14.2107V24.3841C39 24.793 38.6685 25.1246 38.2595 25.1246H36.1002V26.6493H38.2595ZM37.519 28.1303H33.652V36.8227H37.519V28.1303ZM28.3192 28.1303V36.8227H32.171V28.1303H28.3192ZM1.48101 36.8227H26.8382V28.1303H1.48101V36.8227ZM1.48101 23.6436H26.8382V14.9512H1.48101V23.6436ZM28.3192 14.9512V23.6436H32.171V14.9512H28.3192ZM1.48101 10.4644H26.8382V1.77206H1.48101V10.4644ZM32.171 10.4644V1.77206H28.3192V10.4644H32.171ZM37.519 1.77206H33.652V10.4644H37.519V1.77206ZM34.6192 11.9454H4.38084V13.4702H34.6192V11.9454ZM37.519 14.9512H33.652V23.6436H37.519V14.9512ZM34.6192 25.1246H4.38084V26.6493H34.6192V25.1246Z" fill="url(#paint6_linear_46_1600)"></path>
  <defs>
    <linearGradient id="paint0_linear_46_1600" x1="3.61315" y1="33.0611" x2="4.69468" y2="31.8335" gradientUnits="userSpaceOnUse">
      <stop stop-color="#BC0D2C"></stop>
      <stop offset="1" stop-color="#E65F1E"></stop>
    </linearGradient>
    <linearGradient id="paint1_linear_46_1600" x1="5.98278" y1="33.0611" x2="7.06431" y2="31.8335" gradientUnits="userSpaceOnUse">
      <stop stop-color="#BC0D2C"></stop>
      <stop offset="1" stop-color="#E65F1E"></stop>
    </linearGradient>
    <linearGradient id="paint2_linear_46_1600" x1="3.61315" y1="19.8819" x2="4.69468" y2="18.6543" gradientUnits="userSpaceOnUse">
      <stop stop-color="#BC0D2C"></stop>
      <stop offset="1" stop-color="#E65F1E"></stop>
    </linearGradient>
    <linearGradient id="paint3_linear_46_1600" x1="5.98278" y1="19.8819" x2="7.06431" y2="18.6543" gradientUnits="userSpaceOnUse">
      <stop stop-color="#BC0D2C"></stop>
      <stop offset="1" stop-color="#E65F1E"></stop>
    </linearGradient>
    <linearGradient id="paint4_linear_46_1600" x1="3.61315" y1="6.70299" x2="4.69468" y2="5.47531" gradientUnits="userSpaceOnUse">
      <stop stop-color="#BC0D2C"></stop>
      <stop offset="1" stop-color="#E65F1E"></stop>
    </linearGradient>
    <linearGradient id="paint5_linear_46_1600" x1="5.98278" y1="6.70299" x2="7.06431" y2="5.47531" gradientUnits="userSpaceOnUse">
      <stop stop-color="#BC0D2C"></stop>
      <stop offset="1" stop-color="#E65F1E"></stop>
    </linearGradient>
    <linearGradient id="paint6_linear_46_1600" x1="1.53947" y1="34.3024" x2="29.2002" y2="2.08818" gradientUnits="userSpaceOnUse">
      <stop stop-color="#BC0D2C"></stop>
      <stop offset="1" stop-color="#E65F1E"></stop>
    </linearGradient>
  </defs>
</svg>
