<?xml version="1.0" encoding="UTF-8"?>
<svg xmlns="http://www.w3.org/2000/svg" width="41" height="41" viewBox="0 0 41 41" fill="none">
  <path d="M13.6039 25.8647C14.5688 24.8298 15.7355 24.0037 17.0321 23.4372C18.3286 22.8708 19.7285 22.5765 21.1434 22.5715C22.5582 22.5666 23.9591 22.8516 25.2596 23.409C26.56 23.9664 27.7328 24.7842 28.7049 25.8122M9.0605 19.5551C10.6044 17.8994 12.4712 16.5779 14.5457 15.6715C16.6202 14.7652 18.8581 14.2937 21.1217 14.2858C23.3855 14.2779 25.626 14.7341 27.7067 15.6259C29.7875 16.5178 31.6644 17.8265 33.22 19.4714M3 13.9052C5.31588 11.4218 8.11606 9.43913 11.2278 8.07966C14.3395 6.7202 17.6952 6.01202 21.0908 6.00015C24.4867 5.9883 27.8511 6.67264 30.9723 8.01035C34.0935 9.34807 36.9079 11.3123 39.2412 13.7796M21.1795 35C20.0354 35 19.1081 34.0726 19.1081 32.9286C19.1081 31.7845 20.0354 30.8572 21.1795 30.8572C22.3235 30.8572 23.2509 31.7845 23.2509 32.9286C23.2509 34.0726 22.3235 35 21.1795 35Z" stroke="url(#paint0_linear_184_10)" stroke-width="2" stroke-linecap="round" stroke-linejoin="round"></path>
  <defs>
    <linearGradient id="paint0_linear_184_10" x1="4.43057" y1="9.05263" x2="24.5369" y2="37.575" gradientUnits="userSpaceOnUse">
      <stop stop-color="#BC0D2C"></stop>
      <stop offset="1" stop-color="#E65F1E"></stop>
    </linearGradient>
  </defs>
</svg>
