<?xml version="1.0" encoding="UTF-8"?>
<svg xmlns="http://www.w3.org/2000/svg" width="35" height="35" viewBox="0 0 35 35" fill="none">
  <path d="M33.3721 17.5C33.3721 8.73285 26.2657 1.62602 17.5 1.62602C8.73426 1.62602 1.62791 8.73285 1.62791 17.5C1.62791 26.2672 8.73426 33.374 17.5 33.374C26.2657 33.374 33.3721 26.2672 33.3721 17.5ZM35 17.5C35 27.1647 27.1653 35 17.5 35C7.83474 35 0 27.1647 0 17.5C0 7.83529 7.83474 0 17.5 0C27.1653 0 35 7.83529 35 17.5Z" fill="url(#paint0_linear_46_1569)"></path>
  <path d="M26.2089 17.5C26.2089 8.6735 22.1845 1.62602 17.5003 1.62602C12.8162 1.62602 8.79176 8.6735 8.79176 17.5C8.79176 26.3265 12.8162 33.374 17.5003 33.374C22.1845 33.374 26.2089 26.3265 26.2089 17.5ZM27.8498 17.5C27.8498 27.1053 23.3416 35 17.5003 35C11.6591 35 7.15088 27.1053 7.15088 17.5C7.15088 7.89471 11.6591 0 17.5003 0C23.3416 0 27.8498 7.89471 27.8498 17.5Z" fill="url(#paint1_linear_46_1569)"></path>
  <path d="M0.820604 18.0645H34.1794C34.6326 18.0645 35 17.7275 35 17.3118C35 16.8961 34.6326 16.5591 34.1794 16.5591H0.820604C0.367389 16.5591 0 16.8961 0 17.3118C0 17.7275 0.367389 18.0645 0.820604 18.0645Z" fill="url(#paint2_linear_46_1569)"></path>
  <path d="M16.5591 0.813424V34.1866C16.5591 34.6358 16.9803 35 17.4999 35C18.0196 35 18.4408 34.6358 18.4408 34.1866V0.813424C18.4408 0.364174 18.0196 0 17.4999 0C16.9803 0 16.5591 0.364174 16.5591 0.813424Z" fill="url(#paint3_linear_46_1569)"></path>
  <defs>
    <linearGradient id="paint0_linear_46_1569" x1="1.38158" y1="3.68421" x2="26.9408" y2="32.6974" gradientUnits="userSpaceOnUse">
      <stop stop-color="#BC0D2C"></stop>
      <stop offset="1" stop-color="#E65F1E"></stop>
    </linearGradient>
    <linearGradient id="paint1_linear_46_1569" x1="7.96794" y1="3.68421" x2="31.814" y2="19.6925" gradientUnits="userSpaceOnUse">
      <stop stop-color="#BC0D2C"></stop>
      <stop offset="1" stop-color="#E65F1E"></stop>
    </linearGradient>
    <linearGradient id="paint2_linear_46_1569" x1="1.38158" y1="16.7175" x2="1.46544" y2="18.9307" gradientUnits="userSpaceOnUse">
      <stop stop-color="#BC0D2C"></stop>
      <stop offset="1" stop-color="#E65F1E"></stop>
    </linearGradient>
    <linearGradient id="paint3_linear_46_1569" x1="16.6334" y1="3.68421" x2="19.7665" y2="3.87542" gradientUnits="userSpaceOnUse">
      <stop stop-color="#BC0D2C"></stop>
      <stop offset="1" stop-color="#E65F1E"></stop>
    </linearGradient>
  </defs>
</svg>
