<?xml version="1.0" encoding="UTF-8"?>
<svg xmlns="http://www.w3.org/2000/svg" width="33" height="33" viewBox="0 0 33 33" fill="none">
  <path d="M31 15.5952L17.2895 28.526C15.6099 30.11 13.3317 31 10.9564 31C8.58099 31 6.3029 30.11 4.62325 28.526C2.94361 26.9419 2 24.7933 2 22.553C2 20.3128 2.94361 18.1643 4.62325 16.5802M21.4965 8.63032L8.8304 20.562C8.27053 21.09 7.95599 21.8063 7.95599 22.553C7.95599 23.2998 8.27053 24.0159 8.8304 24.5439C9.39029 25.0721 10.1496 25.3687 10.9415 25.3687C11.7332 25.3687 12.4926 25.0721 13.0525 24.5439L19.9152 18.0786M11.4785 10.1147L18.3338 3.64937C19.4536 2.59329 20.9723 2 22.5559 2C24.1395 2 25.6582 2.59329 26.7779 3.64937C27.8977 4.70544 28.5268 6.13779 28.5268 7.6313C28.5268 9.12482 27.8977 10.5572 26.7779 11.6132L25.0294 13.2605" stroke="#F57600" stroke-width="2.2" stroke-linecap="round" stroke-linejoin="round"></path>
</svg>
