<?xml version="1.0" encoding="UTF-8"?>
<svg xmlns="http://www.w3.org/2000/svg" width="27" height="27" viewBox="0 0 27 27" fill="none">
  <path fill-rule="evenodd" clip-rule="evenodd" d="M0 13.5C0 6.04415 6.04415 0 13.5 0C20.9558 0 27 6.04415 27 13.5C27 20.9558 20.9558 27 13.5 27C6.04415 27 0 20.9558 0 13.5ZM13.5 9.45C13.097 9.45 12.7364 9.62491 12.4871 9.90741C11.9938 10.4664 11.1406 10.5196 10.5817 10.0262C10.0227 9.53284 9.96948 8.67972 10.4629 8.12072C11.203 7.28217 12.2901 6.75 13.5 6.75C15.7368 6.75 17.55 8.56325 17.55 10.8C17.55 12.5647 16.4223 14.0631 14.85 14.6192V14.85C14.85 15.5956 14.2456 16.2 13.5 16.2C12.7544 16.2 12.15 15.5956 12.15 14.85V14.175C12.15 12.9983 13.0779 12.3012 13.8351 12.1084C14.4194 11.9597 14.85 11.4284 14.85 10.8C14.85 10.0544 14.2456 9.45 13.5 9.45ZM13.5 17.55C12.7544 17.55 12.15 18.1544 12.15 18.9C12.15 19.6456 12.7544 20.25 13.5 20.25H13.5135C14.2591 20.25 14.8635 19.6456 14.8635 18.9C14.8635 18.1544 14.2591 17.55 13.5135 17.55H13.5Z" fill="#F55500"></path>
</svg>
