<?xml version="1.0" encoding="UTF-8"?>
<svg xmlns="http://www.w3.org/2000/svg" width="52" height="39" viewBox="0 0 52 39" fill="none">
  <path d="M47.6369 5.00384H33.7013C33.6335 2.65918 31.7159 0.771484 29.3555 0.771484H4.35999C1.95546 0.771484 0 2.72536 0 5.13147V21.5267C0 23.9328 1.95546 25.8883 4.35999 25.8883H6.39581L13.7024 34.3231C13.9482 34.6083 14.3043 34.7674 14.6777 34.7674C14.8259 34.7674 14.9771 34.7422 15.13 34.6871C15.631 34.4995 15.9682 34.0127 15.9682 33.4769V25.8883H18.2971C18.3649 28.2314 20.2825 30.1222 22.643 30.1222H36.0333V37.7093C36.0333 38.245 36.3705 38.7303 36.8748 38.921C37.0245 38.9746 37.1741 38.9998 37.3223 38.9998C37.6941 38.9998 38.0518 38.8391 38.2976 38.557L45.6042 30.1222H47.6384C50.043 30.1222 52 28.1668 52 25.7607V9.36383C51.9984 6.95772 50.043 5.00384 47.6369 5.00384ZM18.2814 9.36383V23.3057H14.6762C13.9639 23.3057 13.3857 23.8856 13.3857 24.5962V30.0167L7.96049 23.7485C7.7131 23.468 7.35856 23.3041 6.94258 23.3041H4.36157C3.3799 23.3041 2.58259 22.5084 2.58259 21.5252V5.13147C2.58259 4.15138 3.38147 3.35092 4.36157 3.35092H29.3586C30.2946 3.35092 31.0415 4.0852 31.1092 5.00384H22.6414C20.2368 5.00384 18.2814 6.95772 18.2814 9.36383ZM49.4174 25.7607C49.4174 26.7423 48.6185 27.5396 47.6369 27.5396H45.0149C44.643 27.5396 44.2853 27.7004 44.0364 27.984L38.6128 34.2506V28.8301C38.6128 28.1195 38.0329 27.5412 37.3223 27.5412H22.6414C21.6613 27.5412 20.864 26.7439 20.864 25.7622V9.36383C20.864 8.38216 21.6613 7.58328 22.6414 7.58328H47.6384C48.6201 7.58328 49.419 8.38216 49.419 9.36383L49.4174 25.7607Z" fill="white"></path>
  <path d="M46.2328 11.5386H24.0469C23.3346 11.5386 22.7563 12.1169 22.7563 12.8275C22.7563 13.5381 23.3346 14.118 24.0469 14.118H46.2328C46.9451 14.118 47.5249 13.5381 47.5249 12.8275C47.5249 12.1169 46.9451 11.5386 46.2328 11.5386Z" fill="white"></path>
  <path d="M46.2328 16.2705H24.0469C23.3346 16.2705 22.7563 16.8488 22.7563 17.561C22.7563 18.2717 23.3346 18.8515 24.0469 18.8515H46.2328C46.9451 18.8515 47.5249 18.2717 47.5249 17.561C47.5249 16.8488 46.9451 16.2705 46.2328 16.2705Z" fill="white"></path>
  <path d="M34.549 21.0039H24.0469C23.3346 21.0039 22.7563 21.5822 22.7563 22.2928C22.7563 23.0035 23.3346 23.5833 24.0469 23.5833H34.549C35.2596 23.5833 35.8379 23.0035 35.8379 22.2928C35.8379 21.5822 35.2596 21.0039 34.549 21.0039Z" fill="white"></path>
</svg>
