<?xml version="1.0" encoding="UTF-8"?>
<svg xmlns="http://www.w3.org/2000/svg" width="49" height="49" viewBox="0 0 49 49" fill="none">
  <path d="M44.2511 21.0801C44.4919 20.2028 44.5856 19.2951 44.5298 18.3685C44.2666 14.0165 40.4569 10.4476 36.0381 10.4127C32.9269 10.4329 30.1062 12.0724 28.5833 14.6183V6.78344C28.5834 2.91645 22.4394 0 14.2916 0C6.14383 0 0 2.91645 0 6.78344V30.9868C0 34.6901 5.6389 37.5142 13.2708 37.7479V40.9783C11.8429 41.3495 10.7246 42.468 10.3533 43.8958H2.04166V45.9375H10.3533C10.8098 47.6937 12.3946 49 14.2916 49C16.1887 49 17.7734 47.6937 18.23 45.9375H26.5416V43.8958H18.23C17.8588 42.468 16.7404 41.3496 15.3125 40.9783V37.7444C18.9315 37.619 22.452 36.8396 24.9562 35.594C26.4603 35.526 27.4706 35.1375 28.7094 34.1032C29.476 34.7836 30.8223 35.6016 32.863 35.6016C35.1678 35.6016 36.6597 34.6117 37.4218 33.9178C41.1263 35.4212 43.7741 34.5758 45.3727 33.5574C47.8649 31.9724 48.9999 29.2428 48.9999 27.3781C49 24.4072 47.0311 21.8881 44.2511 21.0801ZM14.2916 2.04166C21.5107 2.04166 26.5416 4.54041 26.5416 6.78344C26.5416 9.02648 21.5107 11.5252 14.2916 11.5252C7.07255 11.5252 2.04166 9.02648 2.04166 6.78344C2.04166 4.54041 7.07255 2.04166 14.2916 2.04166ZM2.04166 10.3641C4.49644 12.3123 8.9578 13.5669 14.2916 13.5669C19.6255 13.5669 24.0868 12.3124 26.5416 10.3641V14.6775C25.637 14.3535 24.6663 14.2016 23.677 14.2971C21.2002 14.5339 19.0404 16.2157 18.1746 18.5808C18.0821 18.8335 18.0076 19.0879 17.9483 19.3437C16.7643 19.4972 15.5447 19.5932 14.2916 19.5932C7.07255 19.5932 2.04166 17.0944 2.04166 14.8514V10.3641ZM14.3048 27.6609C14.3004 27.6609 14.296 27.6612 14.2916 27.6612C7.07255 27.6612 2.04166 25.1625 2.04166 22.9195V18.4321C4.49644 20.3802 8.9578 21.6348 14.2916 21.6348C15.5008 21.6348 16.68 21.5448 17.8348 21.4107C17.8408 21.4638 17.8397 21.5165 17.8471 21.5695C15.6893 22.6936 14.2916 24.9291 14.2916 27.378C14.2917 27.4739 14.3009 27.5663 14.3048 27.6609ZM16.3334 44.9166C16.3334 46.0426 15.4177 46.9582 14.2917 46.9582C13.1657 46.9582 12.2501 46.0426 12.2501 44.9166C12.2501 43.7906 13.1657 42.8749 14.2917 42.8749C15.4177 42.8749 16.3334 43.7906 16.3334 44.9166ZM14.2916 35.7291C7.07255 35.7291 2.04166 33.2299 2.04166 30.9868V26.5C4.49644 28.4482 8.9578 29.7028 14.2916 29.7028C14.4335 29.7028 14.5719 29.6967 14.7126 29.6949C15.5833 31.9711 17.7423 33.5138 20.5133 33.6735C20.809 34.0974 21.1858 34.4326 21.5929 34.7065C19.428 35.3505 16.8399 35.7291 14.2916 35.7291ZM44.2772 31.8352C42.4668 32.9871 40.1609 32.9662 37.6084 31.7719L36.8687 31.426L36.3687 32.0714C36.2506 32.224 35.1495 33.5598 32.8631 33.5598C30.6146 33.5598 29.678 32.1756 29.6461 32.1273L28.9811 31.0596L28.073 31.9294C26.5118 33.4252 25.8364 33.5663 24.4392 33.5663C23.8097 33.5663 22.4599 33.1795 22.0417 32.2484L21.771 31.6458H20.9939C18.2061 31.6458 16.3334 29.9306 16.3334 27.378C16.3334 25.4894 17.5496 23.7827 19.3595 23.1312L20.2527 22.8097L19.9965 21.895C19.7453 20.9983 19.7762 20.1445 20.0917 19.2831C20.6889 17.6512 22.1728 16.4923 23.8715 16.3298C24.0195 16.3154 24.1676 16.3084 24.3146 16.3084C25.6649 16.3084 26.946 16.898 27.8068 17.9338L29.1372 19.5344L29.5883 17.5027C30.2437 14.5533 32.9204 12.4643 36.0223 12.4543C39.3898 12.4808 42.2923 15.1894 42.4922 18.4916C42.5535 19.5144 42.3746 20.5068 41.9594 21.4419L41.3836 22.7389L42.7963 22.8725C45.1689 23.0968 46.9583 25.0338 46.9583 27.378C46.9583 28.7119 46.0187 30.7271 44.2772 31.8352Z" fill="white"></path>
</svg>
