<?xml version="1.0" encoding="UTF-8"?>
<svg xmlns="http://www.w3.org/2000/svg" width="27" height="27" viewBox="0 0 27 27" fill="none">
  <path d="M13.5 0C6.04415 0 0 6.04415 0 13.5C0 20.9558 6.04415 27 13.5 27C20.9558 27 27 20.9558 27 13.5C27 6.04415 20.9558 0 13.5 0ZM16.6843 10.011H10.3544L10.3147 10.0109V9.19002C10.3147 7.37923 11.7434 5.90625 13.4995 5.90625C15.2555 5.90625 16.6843 7.37923 16.6843 9.19002V10.011ZM13.4995 15.7576C11.7434 15.7576 10.3147 14.2845 10.3147 12.4738V11.6529H16.6842V12.4738C16.6843 14.2845 15.2555 15.7576 13.4995 15.7576ZM11.6974 21.0938V20.6974C11.6974 20.2098 12.1091 19.7866 12.7033 19.5824V18.5068C9.8222 18.1042 7.59375 15.5531 7.59375 12.4738V10.8319C7.59375 10.548 7.95741 10.3168 8.40444 10.3168C8.85131 10.3168 9.21512 10.548 9.21512 10.8319V12.4738C9.21512 14.91 11.1372 16.892 13.5 16.892C15.8628 16.892 17.7849 14.91 17.7849 12.4738V10.8319C17.7849 10.548 18.1486 10.3168 18.5956 10.3168C19.0426 10.3168 19.4062 10.548 19.4062 10.8319V12.4738C19.4062 15.5534 17.1772 18.1048 14.2957 18.507V19.5824C14.8898 19.7866 15.3015 20.2098 15.3015 20.6974V21.0938H14.2957H12.7033H11.6974Z" fill="#F55500"></path>
</svg>
