<?xml version="1.0" encoding="UTF-8"?>
<svg xmlns="http://www.w3.org/2000/svg" width="81" height="73" viewBox="0 0 81 73" fill="none">
  <path d="M11.4323 13.9998C12.265 13.9998 13.0803 13.7743 13.8089 13.3753C14.5202 13.7916 15.3356 13.9998 16.1856 13.9998C18.8051 13.9998 20.9389 11.866 20.9389 9.24649C20.9389 6.62696 18.8051 4.49316 16.1856 4.49316C15.3529 4.49316 14.5376 4.71869 13.8089 5.11769C13.0977 4.70134 12.2823 4.49316 11.4323 4.49316C8.81275 4.49316 6.67896 6.62696 6.67896 9.24649C6.67896 11.866 8.81275 13.9998 11.4323 13.9998ZM11.4323 6.92187C12.0048 6.92187 12.5599 7.13005 12.9936 7.52905C13.462 7.9454 14.1559 7.9454 14.6243 7.52905C15.058 7.14739 15.5958 6.93922 16.1856 6.93922C17.4694 6.93922 18.5102 7.98009 18.5102 9.26384C18.5102 10.5476 17.4694 11.5885 16.1856 11.5885C15.6131 11.5885 15.058 11.3803 14.6243 10.9986C14.3988 10.7905 14.1039 10.6864 13.8089 10.6864C13.514 10.6864 13.2191 10.7905 12.9936 10.9986C12.5599 11.3803 12.0048 11.6058 11.4323 11.6058C10.1485 11.6058 9.10766 10.5649 9.10766 9.28119C9.10766 7.99744 10.1485 6.92187 11.4323 6.92187Z" fill="url(#paint0_linear_173_20)"></path>
  <path d="M29.3352 10.4609H32.9783C33.6548 10.4609 34.1926 9.92315 34.1926 9.24658C34.1926 8.57001 33.6548 8.03223 32.9783 8.03223H29.3352C28.6586 8.03223 28.1208 8.57001 28.1208 9.24658C28.1208 9.92315 28.676 10.4609 29.3352 10.4609Z" fill="url(#paint1_linear_173_20)"></path>
  <path d="M37.749 10.4609H41.3921C42.0687 10.4609 42.6064 9.92315 42.6064 9.24658C42.6064 8.57001 42.0687 8.03223 41.3921 8.03223H37.749C37.0725 8.03223 36.5347 8.57001 36.5347 9.24658C36.5347 9.92315 37.0725 10.4609 37.749 10.4609Z" fill="url(#paint2_linear_173_20)"></path>
  <path d="M46.1455 10.4609H49.7886C50.4651 10.4609 51.0029 9.92315 51.0029 9.24658C51.0029 8.57001 50.4651 8.03223 49.7886 8.03223H46.1455C45.4689 8.03223 44.9312 8.57001 44.9312 9.24658C44.9312 9.92315 45.4689 10.4609 46.1455 10.4609Z" fill="url(#paint3_linear_173_20)"></path>
  <path d="M80.4596 71.7683V50.8641V41.2707C80.4596 34.7132 78.0309 28.4332 73.6419 23.5932C69.5131 19.048 63.9791 16.0989 57.9594 15.2315V5.69011C57.9594 2.55014 55.4092 0 52.2692 0H5.69011C2.55014 0 0 2.55014 0 5.69011V18.9439V23.8707V33.4641C0 40.1604 2.51545 46.5618 7.0953 51.4539C11.3976 56.0511 17.105 58.9135 23.3156 59.6248V63.6668C23.3156 63.7536 23.3329 63.823 23.3503 63.9097V71.7856C23.3503 72.4622 23.8881 73 24.5646 73H79.2799C79.9218 72.9827 80.4596 72.4449 80.4596 71.7683ZM78.0309 41.2707V47.6027C78.0309 47.5853 78.0309 47.568 78.0135 47.5506C77.9615 47.3424 77.9095 47.1516 77.8401 46.9434C77.8227 46.8914 77.8054 46.8394 77.788 46.77C77.7186 46.5618 77.6492 46.3363 77.5798 46.1281C77.5798 46.1107 77.5625 46.0934 77.5625 46.076C77.4931 45.8852 77.4237 45.677 77.3543 45.4862C77.337 45.4342 77.3196 45.3821 77.3023 45.3127C77.2329 45.1046 77.1462 44.8964 77.0594 44.6882C77.0594 44.6709 77.0421 44.6535 77.0421 44.6362C76.9553 44.4453 76.8859 44.2372 76.7992 44.0463C76.7818 43.9943 76.7471 43.9423 76.7298 43.8729C76.6431 43.6647 76.5563 43.4565 76.4522 43.2483C76.4522 43.231 76.4349 43.231 76.4349 43.2136C76.3482 43.0228 76.2441 42.8146 76.1573 42.6238C76.1226 42.5718 76.1053 42.5197 76.0706 42.4677C75.9665 42.2595 75.8624 42.0687 75.7583 41.8779C75.7583 41.8779 75.7583 41.8779 75.7583 41.8605C71.855 34.6091 64.673 29.5608 56.5889 28.3291C56.4327 28.2944 56.2593 28.2771 56.1031 28.2597C56.0511 28.2597 55.9991 28.2424 55.947 28.2424H55.9297C55.9123 28.2424 55.895 28.2424 55.8603 28.2424C55.8429 28.2424 55.8256 28.2424 55.8256 28.2424C55.7909 28.2424 55.7562 28.2424 55.7041 28.2597C55.6868 28.2597 55.6868 28.2597 55.6694 28.2597C55.6347 28.2597 55.6174 28.2771 55.5827 28.2771C55.5654 28.2771 55.548 28.2944 55.5307 28.2944C55.5133 28.2944 55.4786 28.3118 55.4613 28.3118C55.4439 28.3118 55.4266 28.3291 55.4092 28.3291C55.3919 28.3465 55.3572 28.3465 55.3398 28.3638C55.3225 28.3638 55.3051 28.3812 55.3051 28.3812C55.2878 28.3985 55.2531 28.4159 55.2357 28.4159C55.2184 28.4159 55.2184 28.4332 55.201 28.4332C55.1663 28.4506 55.1317 28.4853 55.097 28.5026C54.8367 28.7281 54.6806 29.0751 54.6806 29.4221V31.9028L53.7438 31.1915L42.5891 22.6911L46.3016 19.8634L54.698 13.4793V16.1683C54.698 16.8101 55.1837 17.3306 55.8256 17.3826C56.1031 17.4 56.346 17.4173 56.5889 17.452C68.8365 18.7704 78.0309 28.9884 78.0309 41.2707ZM37.4368 48.6435H67.2405C67.2752 49.4068 67.466 50.1528 67.813 50.8467C68.6977 52.6336 70.4672 53.7612 72.4449 53.8306V60.4054C69.6345 60.5269 67.3619 62.7821 67.2578 65.5924H36.5694C36.448 62.7821 34.1927 60.5095 31.3824 60.4054V59.9717L36.0143 56.4501C35.9796 56.6756 35.9449 56.9011 35.9449 57.1267C35.9449 58.4798 36.6908 59.6942 37.8878 60.3187C38.3909 60.5789 38.9634 60.7177 39.5359 60.7177C40.8023 60.7177 41.9819 60.0411 42.6238 58.9655C42.6412 58.9482 42.6412 58.9308 42.6585 58.9135C42.9708 58.3757 43.1442 57.7512 43.1442 57.1093C43.1442 55.2184 41.687 53.6744 39.8308 53.5183L40.5941 52.9458C40.889 52.7203 41.0798 52.356 41.0798 51.9743C41.0798 51.5927 40.9064 51.2457 40.5941 51.0029L37.4368 48.6435ZM39.5359 55.947C40.1778 55.947 40.6982 56.4674 40.6982 57.1093C40.6982 57.3001 40.6461 57.491 40.5594 57.6645C40.5594 57.6818 40.5421 57.6818 40.5421 57.6991C40.3339 58.0635 39.9522 58.289 39.5359 58.289C39.3451 58.289 39.1716 58.2369 38.9981 58.1502C38.6164 57.942 38.3736 57.5604 38.3736 57.1093C38.3562 56.4848 38.894 55.947 39.5359 55.947ZM25.2586 39.3624C24.8942 39.0848 24.3912 39.0328 23.9922 39.241C23.5758 39.4491 23.3156 39.8655 23.3156 40.3339V43.8382C23.1074 43.8035 22.8992 43.7514 22.6911 43.7167C22.6217 43.6994 22.5523 43.682 22.4829 43.6647C22.3441 43.63 22.2053 43.5953 22.0665 43.5606C21.9798 43.5433 21.9104 43.5259 21.8237 43.4912C21.7022 43.4565 21.5808 43.4218 21.4594 43.3871C21.3726 43.3698 21.2859 43.3351 21.1991 43.3177C21.0777 43.283 20.9563 43.2483 20.8522 43.2136C20.7654 43.1789 20.6787 43.1616 20.592 43.1269C20.4705 43.0922 20.3664 43.0575 20.245 43.0055C20.1583 42.9708 20.0715 42.9534 19.9848 42.9187C19.8634 42.884 19.7593 42.832 19.6378 42.7973C19.5511 42.7626 19.4644 42.7279 19.395 42.7106C19.2735 42.6585 19.1694 42.6238 19.048 42.5718C18.9613 42.5371 18.8919 42.5024 18.8051 42.485C18.6837 42.433 18.5623 42.3809 18.4408 42.3289C18.3714 42.2942 18.302 42.2769 18.2327 42.2422C18.0765 42.1728 17.9377 42.1034 17.7816 42.034C17.7469 42.0166 17.6949 41.9993 17.6602 41.9819C17.4693 41.8952 17.2785 41.8085 17.105 41.7044C17.053 41.6697 16.9836 41.635 16.9316 41.6176C16.8101 41.5482 16.6887 41.4962 16.5499 41.4268C16.4805 41.3921 16.4111 41.3401 16.3244 41.3054C16.2203 41.2533 16.0989 41.1839 15.9948 41.1145C15.9254 41.0625 15.8386 41.0278 15.7693 40.9758C15.6652 40.9237 15.5611 40.8543 15.457 40.7849C15.3702 40.7329 15.3009 40.6808 15.2141 40.6461C15.11 40.5768 15.0233 40.5247 14.9192 40.4553C14.8325 40.4033 14.7631 40.3512 14.6763 40.2992C14.5722 40.2298 14.4855 40.1778 14.3814 40.1084C14.312 40.0563 14.2253 40.0043 14.1559 39.9522C14.0518 39.8828 13.9651 39.8135 13.861 39.7441C13.7916 39.692 13.7222 39.64 13.6355 39.5879C13.5314 39.5185 13.4446 39.4318 13.3405 39.3624C13.2712 39.3104 13.2018 39.2583 13.1324 39.2063C13.0283 39.1195 12.9068 39.0328 12.8028 38.9461C12.7507 38.9114 12.6987 38.8593 12.6466 38.8246C12.4905 38.6858 12.3344 38.5644 12.1782 38.4256C12.1262 38.3909 12.0741 38.3389 12.0394 38.3042C11.9354 38.2001 11.8313 38.1134 11.7098 38.0093C11.6404 37.9572 11.5884 37.8878 11.519 37.8358C11.4323 37.7491 11.3455 37.6623 11.2414 37.5756C11.1721 37.5062 11.12 37.4541 11.0506 37.3847C10.9639 37.298 10.8771 37.2113 10.7904 37.1245C10.721 37.0551 10.6516 36.9857 10.5996 36.9163C10.5128 36.8296 10.4434 36.7429 10.3567 36.6561C10.2873 36.5867 10.2353 36.5174 10.1659 36.448C10.0791 36.3612 10.0097 36.2745 9.92301 36.1877C9.85361 36.1183 9.80157 36.049 9.73218 35.9796C9.64544 35.8928 9.57605 35.7887 9.50665 35.702C9.45461 35.6326 9.38522 35.5632 9.33318 35.4938C9.24644 35.3897 9.17704 35.303 9.0903 35.1989C9.03826 35.1295 8.98622 35.0601 8.93417 34.9907C8.84743 34.8866 8.76069 34.7652 8.67395 34.6611C8.63926 34.6091 8.58722 34.557 8.55252 34.4876C8.43108 34.3142 8.30965 34.1407 8.18821 33.9672C8.17087 33.9325 8.15352 33.9152 8.13617 33.8805C8.04943 33.7417 7.94534 33.6029 7.8586 33.4641H52.2346C52.3733 33.4641 52.4948 33.4641 52.6336 33.4468C52.6509 33.4468 52.6509 33.4468 52.6683 33.4468L55.1664 35.3377C55.5307 35.6153 56.0337 35.6673 56.4327 35.4591C56.8491 35.251 57.1093 34.8346 57.1093 34.3662V30.8793C57.3175 30.914 57.5257 30.966 57.7338 31.0007C57.8032 31.0181 57.8726 31.0354 57.942 31.0528C58.0808 31.0875 58.2196 31.1222 58.3584 31.1568C58.4451 31.1742 58.5145 31.1915 58.6012 31.2262C58.7227 31.2609 58.8441 31.2956 58.9655 31.3303C59.0523 31.3477 59.139 31.3824 59.2258 31.3997C59.3472 31.4344 59.4686 31.4691 59.5901 31.5038C59.6768 31.5385 59.7635 31.5558 59.8503 31.5905C59.9717 31.6252 60.0758 31.6599 60.1972 31.712C60.284 31.7467 60.3707 31.764 60.4575 31.7987C60.5789 31.8334 60.683 31.8855 60.8044 31.9202C60.8912 31.9548 60.9606 31.9722 61.0473 32.0069C61.1687 32.0589 61.2902 32.0936 61.4116 32.1457C61.481 32.1804 61.5677 32.1977 61.6371 32.2324C61.7586 32.2845 61.8973 32.3365 62.0188 32.3885C62.0882 32.4232 62.1402 32.4406 62.2096 32.4753C62.3831 32.5447 62.5392 32.6314 62.7127 32.7008C62.73 32.7182 62.7474 32.7182 62.7821 32.7355C62.9729 32.8222 63.1637 32.9263 63.3546 33.0131C63.4066 33.0304 63.4587 33.0651 63.5107 33.0825C63.6495 33.1519 63.7883 33.2212 63.9097 33.2906C63.9791 33.3253 64.0485 33.36 64.1005 33.3947C64.222 33.4641 64.3434 33.5335 64.4475 33.5856C64.5169 33.6202 64.5863 33.6723 64.6557 33.707C64.7597 33.7764 64.8812 33.8458 64.9853 33.8978C65.0547 33.9499 65.1241 33.9846 65.1934 34.0366C65.2975 34.106 65.4016 34.1754 65.5231 34.2448C65.5924 34.2968 65.6618 34.3315 65.7312 34.3836C65.8353 34.453 65.9394 34.5223 66.0435 34.5917C66.1129 34.6438 66.1823 34.6785 66.2517 34.7305C66.3558 34.7999 66.4598 34.8866 66.5813 34.956C66.6507 35.0081 66.7027 35.0428 66.7721 35.0948C66.8935 35.1816 66.9976 35.2683 67.1191 35.355C67.1711 35.3897 67.2231 35.4418 67.2752 35.4765C67.414 35.5806 67.5528 35.702 67.6915 35.8061C67.7262 35.8234 67.7436 35.8408 67.7783 35.8755C67.9344 36.0143 68.1079 36.153 68.264 36.2918C68.2987 36.3092 68.3161 36.3439 68.3334 36.3612C68.4722 36.4827 68.5936 36.5867 68.7324 36.7082C68.7845 36.7602 68.8365 36.7949 68.8712 36.847C68.9753 36.951 69.0794 37.0378 69.1835 37.1419C69.2355 37.1939 69.2875 37.246 69.3569 37.298C69.4437 37.3847 69.5478 37.4888 69.6345 37.5756C69.6866 37.6276 69.7559 37.697 69.808 37.7491C69.8947 37.8358 69.9815 37.9399 70.0682 38.0266C70.1202 38.096 70.1896 38.1481 70.2417 38.2174C70.3284 38.3042 70.4152 38.4083 70.5019 38.5124C70.5539 38.5818 70.606 38.6338 70.658 38.7032C70.7448 38.8073 70.8315 38.9114 70.9183 38.9981C70.9703 39.0675 71.0223 39.1195 71.0744 39.1889C71.1611 39.293 71.2479 39.3971 71.3346 39.5185C71.3866 39.5706 71.4213 39.64 71.4734 39.692C71.5775 39.8135 71.6642 39.9522 71.7683 40.0737C71.803 40.1084 71.8377 40.1604 71.855 40.1951C71.9765 40.3686 72.0979 40.5421 72.2193 40.7155C72.2367 40.7329 72.254 40.7502 72.254 40.7849C72.3581 40.9237 72.4449 41.0625 72.5316 41.2013H27.722L25.2586 39.3624ZM2.42871 20.1756H41.9993L39.8828 21.789C39.5879 22.0145 39.3971 22.3788 39.3971 22.7605C39.3971 23.1421 39.5706 23.4891 39.8828 23.7319L40.7849 24.4259H4.31963C4.28493 24.2003 4.25024 23.9575 4.21554 23.7319C4.1288 23.1248 3.62571 22.6911 3.01854 22.6911H2.44606V20.1756H2.42871ZM6.48812 31.0701C6.47077 31.0528 6.47077 31.0354 6.45342 31.0007C6.40138 30.914 6.36668 30.8272 6.31464 30.7231C6.24525 30.567 6.17586 30.4109 6.08912 30.2721C6.03707 30.168 6.00238 30.0639 5.95033 29.9772C5.88094 29.8384 5.8289 29.6823 5.75951 29.5435C5.72481 29.4394 5.67277 29.3353 5.63807 29.2312C5.58603 29.0924 5.51663 28.9363 5.46459 28.7975C5.4299 28.6934 5.37785 28.5894 5.34316 28.4853C5.29111 28.3291 5.23907 28.1904 5.18702 28.0342C5.15233 27.9301 5.11763 27.826 5.08294 27.722C5.03089 27.5658 4.97885 27.4097 4.94415 27.2536C4.90946 27.1495 4.87476 27.0454 4.85741 26.9587C4.85741 26.924 4.84007 26.8893 4.84007 26.8719H43.9596L49.5109 31.1048H6.48812V31.0701ZM5.69011 2.44606H52.2866C54.0908 2.44606 55.548 3.90328 55.548 5.70746V9.94035H55.5307C55.496 9.9577 55.4613 9.97505 55.4266 9.9924C55.4092 9.9924 55.3919 10.0097 55.3745 10.0097C55.3225 10.0444 55.2704 10.0791 55.2184 10.1138L45.1913 17.7469H2.42871V5.69011C2.42871 3.90328 3.88593 2.44606 5.69011 2.44606ZM2.42871 33.4641V27.1321C2.4634 27.2536 2.4981 27.3577 2.53279 27.4791C2.56749 27.5658 2.58484 27.6699 2.61953 27.7567C2.68893 27.9822 2.75832 28.2077 2.82771 28.4332C2.84506 28.4853 2.86241 28.5373 2.87975 28.572C2.96649 28.8496 3.07058 29.1098 3.15732 29.3874C3.19202 29.4567 3.20936 29.5435 3.24406 29.6129C3.31345 29.8037 3.38284 29.9945 3.46958 30.1854C3.50428 30.2895 3.55632 30.3762 3.59102 30.4803C3.66041 30.6538 3.7298 30.8272 3.81654 31.0007C3.85124 31.1048 3.90328 31.1915 3.93798 31.2956C4.02471 31.4691 4.11145 31.6599 4.19819 31.8334C4.23289 31.9202 4.28493 31.9895 4.31963 32.0763C4.44106 32.3365 4.57985 32.5967 4.71863 32.8396C8.726 40.2471 16.0642 45.3301 24.3912 46.4404C24.4432 46.4404 24.4952 46.4577 24.5299 46.4577H24.5473C24.582 46.4577 24.5993 46.4577 24.634 46.4577H24.6514C24.6861 46.4577 24.7381 46.4404 24.7728 46.4404H24.7902C24.8249 46.4404 24.8596 46.423 24.8943 46.423C24.9116 46.423 24.9116 46.423 24.9289 46.4057C24.9463 46.4057 24.981 46.3883 24.9983 46.371C25.0157 46.371 25.033 46.3536 25.033 46.3536C25.0504 46.3363 25.0851 46.3363 25.1024 46.3189C25.1198 46.3189 25.1198 46.3016 25.1371 46.3016C25.1545 46.2842 25.1892 46.2669 25.2065 46.2495C25.2239 46.2495 25.2239 46.2322 25.2412 46.2322C25.2759 46.2148 25.3106 46.1801 25.3453 46.1628C25.6055 45.9373 25.7616 45.6077 25.7616 45.2433V42.7626L26.6117 43.4045L37.8705 51.9743L29.4567 58.3757L25.779 61.1861V58.4971C25.779 57.8553 25.2933 57.3348 24.6514 57.2828C12.1609 56.4327 2.42871 45.9546 2.42871 33.4641ZM78.0309 70.5539H25.7616V64.2393L28.9537 61.8106C29.0404 62.3831 29.5435 62.8341 30.1507 62.8341H31.1395C32.7875 62.8341 34.1407 64.1699 34.1407 65.8353V66.8241C34.1407 67.5007 34.6785 68.0385 35.355 68.0385H68.4375C69.1141 68.0385 69.6519 67.5007 69.6519 66.8241V65.818C69.6519 64.1699 70.9876 62.8168 72.653 62.8168H73.6419C74.3184 62.8168 74.8562 62.279 74.8562 61.6024V52.5989C74.8562 51.9223 74.3184 51.3845 73.6419 51.3845H72.653C71.5081 51.3845 70.4846 50.7426 69.9815 49.7365C69.7733 49.3201 69.6692 48.8691 69.6692 48.4007V47.4292C69.6692 46.7526 69.1314 46.2148 68.4549 46.2148H35.355C35.0601 46.2148 34.7999 46.3189 34.5917 46.475L30.914 43.682H73.9541C73.9715 43.6994 73.9715 43.7341 73.9888 43.7514C74.1103 44.0116 74.2317 44.2719 74.3531 44.5147C74.3705 44.5494 74.3878 44.5841 74.3878 44.6015C74.5093 44.879 74.6307 45.1566 74.7348 45.4168C74.7348 45.4168 74.7348 45.4168 74.7348 45.4342C74.8389 45.7117 74.943 45.9893 75.0471 46.2669C75.0644 46.3016 75.0644 46.3189 75.0818 46.3536C75.1858 46.6312 75.2726 46.8914 75.3593 47.169C75.3767 47.2037 75.394 47.2557 75.394 47.2904C75.4808 47.5506 75.5501 47.8282 75.6195 48.0884C75.6369 48.1404 75.6369 48.1751 75.6542 48.2272C75.7236 48.5048 75.793 48.765 75.8624 49.0425C75.8798 49.0772 75.8798 49.1293 75.8971 49.164C75.9665 49.4415 76.0185 49.7191 76.0706 50.014C76.0706 50.0487 76.0879 50.0834 76.0879 50.1008C76.14 50.3957 76.192 50.6906 76.2267 51.0029C76.2961 51.4539 76.591 51.8182 76.99 51.9743C77.1288 52.0264 77.2676 52.0611 77.4237 52.0611H77.9962V70.5539H78.0309Z" fill="url(#paint4_linear_173_20)"></path>
  <path d="M65.1414 60.8392C67.1885 60.8392 68.8712 59.1738 68.8712 57.1094C68.8712 55.045 67.2058 53.3796 65.1414 53.3796C63.077 53.3796 61.4116 55.045 61.4116 57.1094C61.4116 59.1738 63.0944 60.8392 65.1414 60.8392ZM65.1414 55.8257C65.8527 55.8257 66.4425 56.4155 66.4425 57.1268C66.4425 57.8381 65.8527 58.4279 65.1414 58.4279C64.4302 58.4279 63.8403 57.8381 63.8403 57.1268C63.8403 56.4155 64.4302 55.8257 65.1414 55.8257Z" fill="url(#paint5_linear_173_20)"></path>
  <path d="M48.2792 60.9084C49.1986 61.5503 50.2395 61.9667 51.3845 62.0881V63.0249C51.3845 63.3892 51.6794 63.6667 52.0437 63.6667C52.408 63.6667 52.7029 63.3718 52.7029 63.0249V62.1228C54.6285 61.9493 55.9296 60.839 55.9296 59.1736C55.9296 57.5603 54.9408 56.6408 52.6509 56.051V53.1539C53.1713 53.2753 53.6744 53.5009 54.2122 53.8131C54.3683 53.8999 54.5071 53.9519 54.6632 53.9519C55.1316 53.9519 55.5133 53.5876 55.5133 53.1192C55.5133 52.7549 55.3051 52.5294 55.0622 52.3906C54.3683 51.9569 53.605 51.662 52.7203 51.5579V51.2283C52.7203 50.864 52.4254 50.5864 52.0611 50.5864C51.6967 50.5864 51.4018 50.8813 51.4018 51.2283V51.5406C49.5109 51.6967 48.2272 52.807 48.2272 54.4203C48.2272 55.1142 48.4006 55.6694 48.7476 56.1031C49.2507 56.7623 50.1528 57.196 51.4712 57.5256V60.5094C50.6385 60.3533 49.9446 60.0063 49.2333 59.5033C49.0946 59.3992 48.9211 59.3298 48.7302 59.3298C48.2619 59.3298 47.8976 59.6941 47.8976 60.1625C47.8802 60.4921 48.0363 60.735 48.2792 60.9084ZM52.6335 57.8378C53.7958 58.2022 54.1255 58.6012 54.1255 59.2777C54.1255 60.0063 53.605 60.4921 52.6335 60.5962V57.8378ZM50.8467 55.4959C50.1875 55.1836 49.9966 54.8367 49.9966 54.3162C49.9966 53.657 50.4824 53.1366 51.4539 53.0498V55.7214C51.211 55.652 51.0028 55.5826 50.8467 55.4959Z" fill="url(#paint6_linear_173_20)"></path>
  <defs>
    <linearGradient id="paint0_linear_173_20" x1="7.24185" y1="5.49386" x2="13.3538" y2="15.9007" gradientUnits="userSpaceOnUse">
      <stop stop-color="#BC0D2C"></stop>
      <stop offset="1" stop-color="#E65F1E"></stop>
    </linearGradient>
    <linearGradient id="paint1_linear_173_20" x1="28.3605" y1="8.28788" x2="29.4814" y2="11.4686" gradientUnits="userSpaceOnUse">
      <stop stop-color="#BC0D2C"></stop>
      <stop offset="1" stop-color="#E65F1E"></stop>
    </linearGradient>
    <linearGradient id="paint2_linear_173_20" x1="36.7743" y1="8.28788" x2="37.8952" y2="11.4686" gradientUnits="userSpaceOnUse">
      <stop stop-color="#BC0D2C"></stop>
      <stop offset="1" stop-color="#E65F1E"></stop>
    </linearGradient>
    <linearGradient id="paint3_linear_173_20" x1="45.1708" y1="8.28788" x2="46.2917" y2="11.4686" gradientUnits="userSpaceOnUse">
      <stop stop-color="#BC0D2C"></stop>
      <stop offset="1" stop-color="#E65F1E"></stop>
    </linearGradient>
    <linearGradient id="paint4_linear_173_20" x1="3.17604" y1="7.68421" x2="55.5929" y2="73.2646" gradientUnits="userSpaceOnUse">
      <stop stop-color="#BC0D2C"></stop>
      <stop offset="1" stop-color="#E65F1E"></stop>
    </linearGradient>
    <linearGradient id="paint5_linear_173_20" x1="61.7061" y1="54.1649" x2="67.1536" y2="60.3485" gradientUnits="userSpaceOnUse">
      <stop stop-color="#BC0D2C"></stop>
      <stop offset="1" stop-color="#E65F1E"></stop>
    </linearGradient>
    <linearGradient id="paint6_linear_173_20" x1="48.2133" y1="51.9633" x2="57.248" y2="58.2618" gradientUnits="userSpaceOnUse">
      <stop stop-color="#BC0D2C"></stop>
      <stop offset="1" stop-color="#E65F1E"></stop>
    </linearGradient>
  </defs>
</svg>
