<?xml version="1.0" encoding="UTF-8"?>
<svg xmlns="http://www.w3.org/2000/svg" width="29" height="31" viewBox="0 0 29 31" fill="none">
  <path d="M27.0695 18.4547C26.9086 18.3545 26.7806 18.2093 26.7014 18.0371C26.6222 17.8649 26.5952 17.6733 26.6238 17.4859C26.8435 16.1776 26.8435 14.8418 26.6238 13.5334C26.5952 13.3461 26.6222 13.1544 26.7014 12.9822C26.7806 12.81 26.9086 12.6649 27.0695 12.5647C27.7104 12.1788 28.1778 11.5607 28.3745 10.8389C28.5712 10.1172 28.4819 9.34734 28.1254 8.68969L27.1566 6.94594C26.9717 6.6106 26.7222 6.31513 26.4227 6.07651C26.1231 5.83789 25.7794 5.66082 25.4112 5.55549C25.043 5.45016 24.6576 5.41865 24.2772 5.46275C23.8967 5.50686 23.5288 5.62572 23.1945 5.8125C23.026 5.90147 22.8351 5.93881 22.6456 5.91986C22.456 5.9009 22.2763 5.8265 22.1288 5.70594C21.0909 4.88415 19.9304 4.23037 18.6898 3.76844C18.5137 3.7007 18.3612 3.58303 18.2511 3.42987C18.141 3.27671 18.0779 3.09472 18.0698 2.90625C18.0698 2.13546 17.7636 1.39625 17.2185 0.851221C16.6735 0.306193 15.9343 0 15.1635 0L13.226 0C12.4552 0 11.716 0.306193 11.171 0.851221C10.626 1.39625 10.3198 2.13546 10.3198 2.90625C10.3135 3.0964 10.2513 3.28049 10.141 3.43554C10.0308 3.59059 9.87731 3.70974 9.69977 3.77813C8.45911 4.24005 7.29863 4.89384 6.26071 5.71563C6.11223 5.83465 5.93199 5.90731 5.74248 5.92454C5.55297 5.94176 5.36259 5.9028 5.19508 5.8125C4.53857 5.45511 3.7696 5.36441 3.04796 5.55925C2.32632 5.7541 1.7075 6.2195 1.32008 6.85875L0.351332 8.6025C-0.00521763 9.26016 -0.0944342 10.03 0.102249 10.7517C0.298932 11.4735 0.766364 12.0917 1.40727 12.4775C1.56817 12.5777 1.69615 12.7229 1.77536 12.895C1.85457 13.0672 1.88153 13.2589 1.85289 13.4462C1.6334 14.7546 1.6334 16.0904 1.85289 17.3987C1.88153 17.5861 1.85457 17.7778 1.77536 17.95C1.69615 18.1221 1.56817 18.2673 1.40727 18.3675C0.766364 18.7533 0.298932 19.3715 0.102249 20.0933C-0.0944342 20.815 -0.00521763 21.5848 0.351332 22.2425L1.32008 23.9862C1.68185 24.6522 2.28943 25.1505 3.0133 25.3749C3.73718 25.5993 4.52007 25.532 5.19508 25.1875C5.36351 25.0985 5.55442 25.0612 5.74396 25.0801C5.93349 25.0991 6.11323 25.1735 6.26071 25.2941C7.29863 26.1158 8.45911 26.7696 9.69977 27.2316C9.87584 27.2993 10.0283 27.417 10.1384 27.5701C10.2486 27.7233 10.3116 27.9053 10.3198 28.0938C10.3198 28.8645 10.626 29.6038 11.171 30.1488C11.716 30.6938 12.4552 31 13.226 31H15.1635C15.9343 31 16.6735 30.6938 17.2185 30.1488C17.7636 29.6038 18.0698 28.8645 18.0698 28.0938C18.0761 27.9036 18.1382 27.7195 18.2485 27.5645C18.3588 27.4094 18.5122 27.2903 18.6898 27.2219C19.9304 26.7599 21.0909 26.1062 22.1288 25.2844C22.2763 25.1638 22.456 25.0894 22.6456 25.0705C22.8351 25.0515 23.026 25.0888 23.1945 25.1778C23.8556 25.5501 24.6361 25.649 25.3692 25.4535C26.1023 25.258 26.7299 24.7836 27.1179 24.1316L28.0866 22.3878C28.4644 21.7293 28.5695 20.949 28.3794 20.214C28.1893 19.479 27.7191 18.8475 27.0695 18.4547ZM24.7154 13.8337C24.8962 14.9372 24.8962 16.0628 24.7154 17.1663C24.6199 17.7438 24.7011 18.3368 24.9482 18.8675C25.1954 19.3981 25.5971 19.8418 26.1007 20.1403C26.3063 20.2706 26.4554 20.4735 26.5182 20.7086C26.581 20.9437 26.553 21.1939 26.4398 21.4094L25.471 23.1531C25.3406 23.3612 25.1359 23.512 24.8985 23.5749C24.6611 23.6379 24.4087 23.6083 24.1923 23.4922C23.685 23.206 23.1035 23.0789 22.5231 23.1273C21.9427 23.1756 21.3902 23.3973 20.9373 23.7634C20.0672 24.4781 19.0853 25.0443 18.031 25.4394C17.4852 25.6409 17.0124 26.0016 16.6739 26.4749C16.3354 26.9481 16.1467 27.5121 16.1323 28.0938C16.1323 28.3507 16.0302 28.5971 15.8485 28.7788C15.6669 28.9604 15.4204 29.0625 15.1635 29.0625H13.226C12.9691 29.0625 12.7227 28.9604 12.541 28.7788C12.3593 28.5971 12.2573 28.3507 12.2573 28.0938C12.2509 27.5105 12.0692 26.9426 11.7357 26.4641C11.4023 25.9855 10.9325 25.6183 10.3876 25.4103C9.33328 25.0152 8.35136 24.449 7.48133 23.7344C7.02842 23.3682 6.47594 23.1466 5.89554 23.0982C5.31514 23.0499 4.7336 23.177 4.22633 23.4631C4.00991 23.5792 3.75747 23.6088 3.52007 23.5459C3.28267 23.4829 3.07804 23.3321 2.94758 23.1241L1.97883 21.3803C1.86559 21.1649 1.8376 20.9147 1.90042 20.6795C1.96325 20.4444 2.11229 20.2415 2.31789 20.1112C2.82148 19.8127 3.22317 19.3691 3.47035 18.8384C3.71754 18.3077 3.7987 17.7148 3.70321 17.1372C3.52245 16.0337 3.52245 14.9082 3.70321 13.8047C3.7987 13.2271 3.71754 12.6342 3.47035 12.1035C3.22317 11.5728 2.82148 11.1292 2.31789 10.8306C2.11454 10.7056 1.9645 10.5099 1.89656 10.2811C1.82863 10.0522 1.84757 9.80636 1.94977 9.59062L2.91852 7.84688C3.04898 7.63879 3.25361 7.48803 3.49101 7.42508C3.7284 7.36213 3.98085 7.3917 4.19727 7.50781C4.70454 7.79395 5.28608 7.92109 5.86648 7.87272C6.44688 7.82435 6.99936 7.60272 7.45227 7.23656C8.32229 6.52194 9.30422 5.9557 10.3585 5.56062C10.9044 5.35909 11.3771 4.99836 11.7157 4.52512C12.0542 4.05188 12.2429 3.48792 12.2573 2.90625C12.2573 2.64932 12.3593 2.40292 12.541 2.22124C12.7227 2.03956 12.9691 1.9375 13.226 1.9375H15.1635C15.4204 1.9375 15.6669 2.03956 15.8485 2.22124C16.0302 2.40292 16.1323 2.64932 16.1323 2.90625C16.1386 3.48951 16.3204 4.05735 16.6538 4.53593C16.9873 5.01451 17.457 5.38168 18.002 5.58969C19.0563 5.98476 20.0382 6.551 20.9082 7.26562C21.3611 7.63178 21.9136 7.85341 22.494 7.90178C23.0744 7.95015 23.6559 7.82302 24.1632 7.53688C24.3796 7.42077 24.6321 7.39119 24.8695 7.45414C25.1069 7.51709 25.3115 7.66785 25.442 7.87594L26.4107 9.61969C26.524 9.83514 26.5519 10.0853 26.4891 10.3205C26.4263 10.5556 26.2773 10.7585 26.0716 10.8888C25.5786 11.1893 25.1862 11.63 24.9447 12.1545C24.7031 12.6791 24.6233 13.2637 24.7154 13.8337Z" fill="#F57600"></path>
  <path d="M14.1948 6.78125C12.4704 6.78125 10.7847 7.2926 9.35095 8.25062C7.91716 9.20865 6.79966 10.5703 6.13975 12.1635C5.47985 13.7566 5.30719 15.5097 5.64361 17.2009C5.98002 18.8922 6.8104 20.4457 8.02974 21.6651C9.24908 22.8844 10.8026 23.7148 12.4939 24.0512C14.1852 24.3876 15.9382 24.215 17.5314 23.5551C19.1245 22.8952 20.4862 21.7777 21.4442 20.3439C22.4022 18.9101 22.9136 17.2244 22.9136 15.5C22.9136 13.1876 21.995 10.97 20.3599 9.33491C18.7248 7.69983 16.5072 6.78125 14.1948 6.78125ZM14.1948 22.2812C12.8536 22.2812 11.5425 21.8835 10.4274 21.1384C9.3122 20.3933 8.44303 19.3342 7.92977 18.0951C7.41651 16.856 7.28222 15.4925 7.54388 14.177C7.80553 12.8616 8.45139 11.6533 9.39976 10.7049C10.3481 9.75656 11.5564 9.11071 12.8719 8.84905C14.1873 8.58739 15.5508 8.72169 16.7899 9.23494C18.029 9.7482 19.0881 10.6174 19.8332 11.7325C20.5784 12.8477 20.9761 14.1588 20.9761 15.5C20.9761 17.2985 20.2616 19.0233 18.9899 20.2951C17.7182 21.5668 15.9933 22.2812 14.1948 22.2812Z" fill="#F57600"></path>
  <path d="M14.1948 12.5938H16.1323C16.3893 12.5938 16.6357 12.4917 16.8173 12.31C16.999 12.1283 17.1011 11.8819 17.1011 11.625C17.1011 11.3681 16.999 11.1217 16.8173 10.94C16.6357 10.7583 16.3893 10.6562 16.1323 10.6562H14.1948C13.424 10.6563 12.6848 10.9624 12.1398 11.5075C11.5948 12.0525 11.2886 12.7917 11.2886 13.5625C11.2886 14.3333 11.5948 15.0725 12.1398 15.6175C12.6848 16.1626 13.424 16.4688 14.1948 16.4688C14.4518 16.4688 14.6982 16.5708 14.8798 16.7525C15.0615 16.9342 15.1636 17.1806 15.1636 17.4375C15.1636 17.6944 15.0615 17.9408 14.8798 18.1225C14.6982 18.3042 14.4518 18.4062 14.1948 18.4062H12.2573C12.0004 18.4062 11.754 18.5083 11.5723 18.69C11.3906 18.8717 11.2886 19.1181 11.2886 19.375C11.2886 19.6319 11.3906 19.8783 11.5723 20.06C11.754 20.2417 12.0004 20.3438 12.2573 20.3438H14.1948C14.9656 20.3438 15.7048 20.0376 16.2499 19.4925C16.7949 18.9475 17.1011 18.2083 17.1011 17.4375C17.1011 16.6667 16.7949 15.9275 16.2499 15.3825C15.7048 14.8374 14.9656 14.5312 14.1948 14.5312C13.9379 14.5312 13.6915 14.4292 13.5098 14.2475C13.3281 14.0658 13.2261 13.8194 13.2261 13.5625C13.2261 13.3056 13.3281 13.0592 13.5098 12.8775C13.6915 12.6958 13.9379 12.5938 14.1948 12.5938Z" fill="#F57600"></path>
</svg>
