<?xml version="1.0" encoding="UTF-8"?>
<svg xmlns="http://www.w3.org/2000/svg" width="20" height="20" viewBox="0 0 20 20" fill="none">
  <path d="M0.000892538 4.99286C0.000892538 5.83006 0.307926 6.75027 0.697965 7.72671C1.088 8.70314 1.5905 9.62335 1.98144 10.3204C3.04177 12.1617 4.40825 13.9745 5.97019 15.4802C7.53213 16.9859 9.37344 18.2417 11.437 18.995C12.6366 19.4689 13.8361 19.9991 15.1749 19.9991C15.8443 19.9991 16.7931 19.7483 17.6571 19.385C18.4943 19.0227 19.2467 18.4648 19.5261 17.7954C19.6376 17.5446 19.7769 17.2099 19.8608 16.819C19.9447 16.4566 20 16.0934 20 15.8426C20 15.7033 20 15.5632 19.9723 15.5355C19.8884 15.3677 19.693 15.2285 19.4698 15.0893C18.9673 14.8385 18.8843 14.7546 18.131 14.3083C17.3501 13.862 16.5414 13.3595 15.8434 12.9971C15.5087 12.8017 15.2856 12.7178 15.2017 12.7178C14.7554 12.7178 14.1976 13.3318 13.7237 14.0013C13.2212 14.6707 12.6633 15.2847 12.2733 15.2847C12.0778 15.2847 11.8824 15.2008 11.6592 15.0616C11.4361 14.9224 11.213 14.8108 11.0737 14.7269C8.61924 13.3318 6.9734 11.6869 5.57926 9.26009C5.41146 8.98072 5.02142 8.39522 5.02142 8.08818C5.02142 7.72581 5.52392 7.30721 6.02553 6.86094C6.49946 6.44234 7.00196 5.94074 7.00196 5.32667C7.00196 5.24277 6.94573 4.99197 6.83417 4.6296C6.58336 3.90396 6.24866 3.06765 5.9693 2.25901C5.83006 1.86808 5.71849 1.58961 5.68993 1.45038C5.6337 1.36648 5.60603 1.25491 5.57837 1.11567C5.5507 0.976437 5.49447 0.86487 5.4668 0.753302C5.3829 0.502499 5.24366 0.307033 5.10443 0.195466C4.96519 0.139236 4.63049 0.0562296 4.29579 0.0276684C3.96109 0.0276684 3.57015 0 3.40325 0C3.31935 0 3.20778 -3.02572e-07 3.09622 0.0276684H2.73385C1.84131 0.4186 1.19957 1.19957 0.725634 2.11978C0.279364 3.03999 0 4.07265 0 4.99286H0.000892538Z" fill="white"></path>
</svg>
