<?xml version="1.0" encoding="UTF-8"?>
<svg xmlns="http://www.w3.org/2000/svg" width="77" height="83" viewBox="0 0 77 83" fill="none">
  <path d="M39.4646 80.8728H2V13.831H41.4364M41.4364 13.831V29.6055H57.2109M41.4364 13.831L57.2109 29.6055M41.4364 13.831L13.831 13.8309V2H53.2674M57.2109 29.6055L57.211 37.4927M53.2674 2L69.0419 17.7746M53.2674 2L53.2672 17.7746H69.0419M69.0419 17.7746V41.4364M39.4645 67.07H11.859M39.4645 57.2109H11.859M29.6054 47.3519H11.859M57 53V55M57 55C54.8 55 53 56.8 53 59C53 61.2 54.8 63 57 63C59.2 63 61 64.8 61 67C61 69.2 59.2 71 57 71M57 55H57.4C58.4 55 59.4 55.4 60.2 56.2L61 57M57 71V73M57 71H56.6C55.6 71 54.6 70.6 53.8 69.8L53 69M25.6618 29.6055C25.6618 33.9615 22.1306 37.4928 17.7745 37.4928C13.4185 37.4928 9.88725 33.9615 9.88725 29.6055C9.88725 25.2495 13.4185 21.7182 17.7745 21.7182C22.1306 21.7182 25.6618 25.2495 25.6618 29.6055ZM74.9567 64.8248C74.3575 73.3639 67.1661 80.3504 58.3767 80.9326C49.1877 81.7089 41.3971 75.6927 39.3995 67.3477C39.1998 66.1833 39 64.8248 39 63.4663C39 61.5256 39.3995 59.3908 39.9988 57.6442C42.3959 50.8518 49.1877 46 56.9784 46C61.5728 46 65.7678 47.7466 68.964 50.4636C72.9592 53.9569 75.3563 59.0027 74.9567 64.8248Z" stroke="url(#paint0_linear_173_18)" stroke-width="3" stroke-miterlimit="10" stroke-linecap="round" stroke-linejoin="round"></path>
  <defs>
    <linearGradient id="paint0_linear_173_18" x1="4.88158" y1="10.3158" x2="62.9701" y2="71.2462" gradientUnits="userSpaceOnUse">
      <stop stop-color="#BC0D2C"></stop>
      <stop offset="1" stop-color="#E65F1E"></stop>
    </linearGradient>
  </defs>
</svg>
