<?xml version="1.0" encoding="UTF-8"?>
<svg xmlns="http://www.w3.org/2000/svg" width="27" height="27" viewBox="0 0 27 27" fill="none">
  <path fill-rule="evenodd" clip-rule="evenodd" d="M0 13.5C0 6.04415 6.04415 0 13.5 0C20.9558 0 27 6.04415 27 13.5C27 20.9558 20.9558 27 13.5 27C6.04415 27 0 20.9558 0 13.5ZM13.4999 5.4C10.5175 5.4 8.09988 7.81766 8.09988 10.8C8.09988 13.7823 10.5175 16.2 13.4999 16.2C16.4821 16.2 18.8999 13.7823 18.8999 10.8C18.8999 7.81766 16.4821 5.4 13.4999 5.4ZM20.4005 18.8965C21.4236 19.5553 21.3736 20.9913 20.442 21.7739C18.5648 23.3504 16.1434 24.3 13.5001 24.3C10.8744 24.3 8.4674 23.363 6.59551 21.8049C5.65557 21.0226 5.60577 19.5793 6.63324 18.9162C6.95309 18.7098 7.30142 18.5289 7.67946 18.3731C9.20047 17.746 11.1432 17.55 13.5 17.55C15.8687 17.55 17.8224 17.7335 19.3474 18.3538C19.7284 18.5088 20.0791 18.6895 20.4005 18.8965Z" fill="#F55500"></path>
</svg>
